<svg xmlns="http://www.w3.org/2000/svg" xmlns:xlink="http://www.w3.org/1999/xlink" xmlns:lucid="lucid" viewBox="0 0 4500 4500"><g transform="translate(0 1500)" lucid:page-tab-id="0_0"><path d="M2278.54-1234a6 6 0 0 1 6-6H3441.5a6 6 0 0 1 6 6V73.38a6 6 0 0 1-6 6H2284.54a6 6 0 0 1-6-6z" stroke="#000" stroke-opacity="0" stroke-width="2" fill="#f8f8f8"/><path d="M2597.86-1228.5a7.17 7.17 0 0 1 6.9-6.1l98-2.82a263.5 263.5 0 0 1 12-.07l178 2.98a6.14 6.14 0 0 1 6.03 6.1l2.4 389.92a5.93 5.93 0 0 1-5.95 5.97l-350.5-1.86a5.2 5.2 0 0 1-5.1-5.96z" stroke="#000" stroke-opacity="0" stroke-width="2" fill="#e3fae3"/><use xlink:href="#a" transform="matrix(1,0,0,1,2538.75,-1237.5952608187417) translate(102.125 157.859375)"/><use xlink:href="#b" transform="matrix(1,0,0,1,2538.75,-1237.5952608187417) translate(186.2265625 157.859375)"/><use xlink:href="#c" transform="matrix(1,0,0,1,2538.75,-1237.5952608187417) translate(101.421875 203.02083333333334)"/><use xlink:href="#d" transform="matrix(1,0,0,1,2538.75,-1237.5952608187417) translate(228.54427083333331 203.02083333333334)"/><use xlink:href="#e" transform="matrix(1,0,0,1,2538.75,-1237.5952608187417) translate(181.5 241.73958333333334)"/><use xlink:href="#f" transform="matrix(1,0,0,1,2538.75,-1237.5952608187417) translate(119.45572916666666 280.4583333333333)"/><use xlink:href="#g" transform="matrix(1,0,0,1,2538.75,-1237.5952608187417) translate(161.05729166666666 280.4583333333333)"/><path d="M60 78.5a6 6 0 0 1 6-6h2835.5a6 6 0 0 1 6 6V599a6 6 0 0 1-6 6H66a6 6 0 0 1-6-6zM2940 626.8a6 6 0 0 1 6-6h508a6 6 0 0 1 6 6v2332.06a6 6 0 0 1-6 6h-508a6 6 0 0 1-6-6zM3536.24 666a6 6 0 0 1 6-6h863.02a6 6 0 0 1 6 6v585.96a6 6 0 0 1-6 6h-863.02a6 6 0 0 1-6-6z" stroke="#000" stroke-opacity="0" stroke-width="2" fill="#f8f8f8"/><path d="M3550.62 974.75a6 6 0 0 1 6-6h350.5a6 6 0 0 1 6 6v265.6a6 6 0 0 1-6 6h-350.5a6 6 0 0 1-6-6z" stroke="#000" stroke-opacity="0" stroke-width="2" fill="#e3fae3"/><use xlink:href="#h" transform="matrix(1,0,0,1,3555.6198510699865,973.7508753894565) translate(93.794921875 126.6875)"/><use xlink:href="#i" transform="matrix(1,0,0,1,3555.6198510699865,973.7508753894565) translate(181.841796875 126.6875)"/><use xlink:href="#c" transform="matrix(1,0,0,1,3555.6198510699865,973.7508753894565) translate(96.421875 171.84895833333334)"/><use xlink:href="#j" transform="matrix(1,0,0,1,3555.6198510699865,973.7508753894565) translate(223.54427083333331 171.84895833333334)"/><path d="M3551.55 678.5a6 6 0 0 1 6-6h350.5a6 6 0 0 1 6 6v271.74a6 6 0 0 1-6 6h-350.5a6 6 0 0 1-6-6z" stroke="#000" stroke-opacity="0" stroke-width="2" fill="#e3fae3"/><use xlink:href="#h" transform="matrix(1,0,0,1,3556.552517690463,677.5) translate(97.76953125 128.65625)"/><use xlink:href="#k" transform="matrix(1,0,0,1,3556.552517690463,677.5) translate(185.81640625 128.65625)"/><use xlink:href="#c" transform="matrix(1,0,0,1,3556.552517690463,677.5) translate(96.421875 173.81770833333334)"/><use xlink:href="#j" transform="matrix(1,0,0,1,3556.552517690463,677.5) translate(223.54427083333331 173.81770833333334)"/><path d="M3085 2038.5a6 6 0 0 1 6-6h350.5a6 6 0 0 1 6 6v275.13a6 6 0 0 1-6 6H3091a6 6 0 0 1-6-6z" stroke="#000" stroke-opacity="0" stroke-width="2" fill="#e3fae3"/><use xlink:href="#l" transform="matrix(1,0,0,1,3090.0046892368064,2037.500059035139) translate(108.052734375 134.3125)"/><use xlink:href="#m" transform="matrix(1,0,0,1,3090.0046892368064,2037.500059035139) translate(189.888671875 134.3125)"/><use xlink:href="#c" transform="matrix(1,0,0,1,3090.0046892368064,2037.500059035139) translate(96.421875 179.47395833333334)"/><use xlink:href="#j" transform="matrix(1,0,0,1,3090.0046892368064,2037.500059035139) translate(223.54427083333331 179.47395833333334)"/><path d="M1822.47 194.56a6 6 0 0 1 6-6H2139a6 6 0 0 1 6 6V486.7a6 6 0 0 1-6 6h-310.53a6 6 0 0 1-6-6z" stroke="#000" stroke-opacity="0" stroke-width="2" fill="#fcfcca"/><use xlink:href="#a" transform="matrix(1,0,0,1,1827.4680436573854,193.55975505179603) translate(74.83984375 98.671875)"/><use xlink:href="#n" transform="matrix(1,0,0,1,1827.4680436573854,193.55975505179603) translate(158.94140625 98.671875)"/><use xlink:href="#c" transform="matrix(1,0,0,1,1827.4680436573854,193.55975505179603) translate(75.9140625 143.83333333333334)"/><use xlink:href="#o" transform="matrix(1,0,0,1,1827.4680436573854,193.55975505179603) translate(203.03645833333331 143.83333333333334)"/><use xlink:href="#e" transform="matrix(1,0,0,1,1827.4680436573854,193.55975505179603) translate(156.5 182.55208333333334)"/><use xlink:href="#p" transform="matrix(1,0,0,1,1827.4680436573854,193.55975505179603) translate(12.087022569444457 225.57638888888889)"/><use xlink:href="#q" transform="matrix(1,0,0,1,1827.4680436573854,193.55975505179603) translate(127.82703993055557 225.57638888888889)"/><use xlink:href="#r" transform="matrix(1,0,0,1,1827.4680436573854,193.55975505179603) translate(162.0219184027778 225.57638888888889)"/><use xlink:href="#s" transform="matrix(1,0,0,1,1827.4680436573854,193.55975505179603) translate(183.94249131944446 225.57638888888889)"/><use xlink:href="#t" transform="matrix(1,0,0,1,1827.4680436573854,193.55975505179603) translate(280.32921006944446 225.57638888888889)"/><path d="M2532.5 98.3a6 6 0 0 1 6-6h353.63a6 6 0 0 1 6 6v388.2a6 6 0 0 1-6 6H2538.5a6 6 0 0 1-6-6z" stroke="#000" stroke-opacity="0" stroke-width="2" fill="#e3fae3"/><use xlink:href="#a" transform="matrix(1,0,0,1,2537.5,97.30578075783319) translate(96.876953125 191.484375)"/><use xlink:href="#u" transform="matrix(1,0,0,1,2537.5,97.30578075783319) translate(180.978515625 191.484375)"/><use xlink:href="#c" transform="matrix(1,0,0,1,2537.5,97.30578075783319) translate(97.921875 236.64583333333334)"/><use xlink:href="#j" transform="matrix(1,0,0,1,2537.5,97.30578075783319) translate(225.04427083333331 236.64583333333334)"/><path d="M2157.5 98.5a6 6 0 0 1 6-6h353.63a6 6 0 0 1 6 6v388.2a6 6 0 0 1-6 6H2163.5a6 6 0 0 1-6-6z" stroke="#000" stroke-opacity="0" stroke-width="2" fill="#e3fae3"/><use xlink:href="#a" transform="matrix(1,0,0,1,2162.5,97.50375161703619) translate(97.08203125 191.484375)"/><use xlink:href="#v" transform="matrix(1,0,0,1,2162.5,97.50375161703619) translate(181.18359375 191.484375)"/><use xlink:href="#c" transform="matrix(1,0,0,1,2162.5,97.50375161703619) translate(97.921875 236.64583333333334)"/><use xlink:href="#j" transform="matrix(1,0,0,1,2162.5,97.50375161703619) translate(225.04427083333331 236.64583333333334)"/><path d="M576.25 198.5a6 6 0 0 1 6-6h337.13a6 6 0 0 1 6 6v288a6 6 0 0 1-6 6H582.25a6 6 0 0 1-6-6z" stroke="#000" stroke-opacity="0" stroke-width="2" fill="#fcfcca"/><use xlink:href="#a" transform="matrix(1,0,0,1,581.25,197.49929226836076) translate(89.267578125 97.65625)"/><use xlink:href="#i" transform="matrix(1,0,0,1,581.25,197.49929226836076) translate(173.369140625 97.65625)"/><use xlink:href="#c" transform="matrix(1,0,0,1,581.25,197.49929226836076) translate(90.09765625 142.81770833333334)"/><use xlink:href="#w" transform="matrix(1,0,0,1,581.25,197.49929226836076) translate(217.22005208333331 142.81770833333334)"/><use xlink:href="#e" transform="matrix(1,0,0,1,581.25,197.49929226836076) translate(170 181.53645833333334)"/><use xlink:href="#p" transform="matrix(1,0,0,1,581.25,197.49929226836076) translate(44.583333333333314 224.56076388888889)"/><use xlink:href="#x" transform="matrix(1,0,0,1,581.25,197.49929226836076) translate(160.32335069444443 224.56076388888889)"/><use xlink:href="#r" transform="matrix(1,0,0,1,581.25,197.49929226836076) translate(200.7009548611111 224.56076388888889)"/><use xlink:href="#y" transform="matrix(1,0,0,1,581.25,197.49929226836076) translate(222.62152777777777 224.56076388888889)"/><path d="M210.88 198.5a6 6 0 0 1 6-6H554a6 6 0 0 1 6 6v288a6 6 0 0 1-6 6H216.87a6 6 0 0 1-6-6z" stroke="#000" stroke-opacity="0" stroke-width="2" fill="#fcfcca"/><use xlink:href="#a" transform="matrix(1,0,0,1,215.8750000000582,197.49929226836076) translate(93.2421875 97.65625)"/><use xlink:href="#k" transform="matrix(1,0,0,1,215.8750000000582,197.49929226836076) translate(177.34375 97.65625)"/><use xlink:href="#c" transform="matrix(1,0,0,1,215.8750000000582,197.49929226836076) translate(90.09765625 142.81770833333334)"/><use xlink:href="#w" transform="matrix(1,0,0,1,215.8750000000582,197.49929226836076) translate(217.22005208333331 142.81770833333334)"/><use xlink:href="#e" transform="matrix(1,0,0,1,215.8750000000582,197.49929226836076) translate(170 181.53645833333334)"/><use xlink:href="#p" transform="matrix(1,0,0,1,215.8750000000582,197.49929226836076) translate(37.34483506944446 224.56076388888889)"/><use xlink:href="#q" transform="matrix(1,0,0,1,215.8750000000582,197.49929226836076) translate(153.08485243055557 224.56076388888889)"/><use xlink:href="#r" transform="matrix(1,0,0,1,215.8750000000582,197.49929226836076) translate(187.2797309027778 224.56076388888889)"/><use xlink:href="#z" transform="matrix(1,0,0,1,215.8750000000582,197.49929226836076) translate(209.20030381944446 224.56076388888889)"/><use xlink:href="#t" transform="matrix(1,0,0,1,215.8750000000582,197.49929226836076) translate(282.07139756944446 224.56076388888889)"/><path d="M3085 1378.5a6 6 0 0 1 6-6h350.5a6 6 0 0 1 6 6v315.03a6 6 0 0 1-6 6H3091a6 6 0 0 1-6-6z" stroke="#000" stroke-opacity="0" stroke-width="2" fill="#e3fae3"/><use xlink:href="#l" transform="matrix(1,0,0,1,3090,1377.5000140058876) translate(109.751953125 153.03125)"/><use xlink:href="#A" transform="matrix(1,0,0,1,3090,1377.5000140058876) translate(191.587890625 153.03125)"/><use xlink:href="#c" transform="matrix(1,0,0,1,3090,1377.5000140058876) translate(96.421875 198.19270833333334)"/><use xlink:href="#j" transform="matrix(1,0,0,1,3090,1377.5000140058876) translate(223.54427083333331 198.19270833333334)"/><path d="M940 198.5a6 6 0 0 1 6-6h390.04a6 6 0 0 1 6 6v288a6 6 0 0 1-6 6H946a6 6 0 0 1-6-6z" stroke="#000" stroke-opacity="0" stroke-width="2" fill="#fcfcca"/><use xlink:href="#a" transform="matrix(1,0,0,1,945,197.50000000000006) translate(115.455078125 97.65625)"/><use xlink:href="#B" transform="matrix(1,0,0,1,945,197.50000000000006) translate(199.556640625 97.65625)"/><use xlink:href="#c" transform="matrix(1,0,0,1,945,197.50000000000006) translate(116.421875 142.81770833333334)"/><use xlink:href="#d" transform="matrix(1,0,0,1,945,197.50000000000006) translate(243.54427083333331 142.81770833333334)"/><use xlink:href="#e" transform="matrix(1,0,0,1,945,197.50000000000006) translate(196.5 181.53645833333334)"/><use xlink:href="#p" transform="matrix(1,0,0,1,945,197.50000000000006) translate(74.17469618055554 224.56076388888889)"/><use xlink:href="#q" transform="matrix(1,0,0,1,945,197.50000000000006) translate(189.91471354166666 224.56076388888889)"/><use xlink:href="#r" transform="matrix(1,0,0,1,945,197.50000000000006) translate(224.10959201388889 224.56076388888889)"/><use xlink:href="#y" transform="matrix(1,0,0,1,945,197.50000000000006) translate(246.03016493055554 224.56076388888889)"/><path d="M212.5 192.5l-6.25-6.25L200 180v325l6.25-6.25 6.25-6.25z" fill="#fff"/><path d="M212.5 192.5v300M200 505V180m12.5 12.5" stroke="#000" stroke-width="2" fill="none"/><path d="M3447.5 1033.75l6.25 6.25h6.25V846.25h-6.25l-6.25 6.25zm0-193.75l6.25 6.25h6.25v-225l-6.25 6.25-6.25 6.25z" fill="#fff"/><path d="M3447.5 1033.75V852.5m12.5-6.25V1040m-12.5-200V633.75m12.5-12.5v225m-12.5-6.25" stroke="#000" stroke-width="2" fill="none"/><path d="M212.5 492.5l-6.25 6.25L200 505h109.33v-12.5z" fill="#fff"/><path d="M212.5 492.5h96.83m0 12.5H200m12.5-12.5" stroke="#000" stroke-width="2" fill="none"/><path d="M3085 1372.5l-6.25-6.25h-6.25V1420h12.5zm0 87.5h-12.5v162.5h12.5zm0 202.5h-12.5v43.76h6.25l6.25-6.25zm0 50l-6.25-6.24h-6.25v57.5h12.5zm0 91.25h-12.5V1835l6.25-6.25 6.25-6.25z" fill="#fff"/><path d="M3085 1372.5v47.5h-12.5v-53.75M3085 1460v162.5h-12.5V1460h12.5zm0 202.5v37.5m-12.5 6.26v-43.76h12.5m0 50v51.25h-12.5v-57.5m12.5 97.51v18.75m-12.5 12.5v-31.25h12.5" stroke="#000" stroke-width="2" fill="none"/><path d="M3085 1622.5v40h-12.5v-40z" fill="#fff" fill-opacity="0"/><path d="M309.33 192.5V180H200l6.25 6.25 6.25 6.25z" fill="#fff"/><path d="M309.33 192.5H212.5M200 180h109.33m0 12.5" stroke="#000" stroke-width="2" fill="none"/><path d="M309.33 492.5V505H440v-12.5zm190.67 0V505h70v-6.25l-6.25-6.25z" fill="#fff"/><path d="M309.33 492.5H440V505H309.33M500 492.5h63.75M570 505h-70v-12.5" stroke="#000" stroke-width="2" fill="none"/><path d="M440 492.5h60V505h-60z" fill="#fff" fill-opacity="0"/><path d="M412.42 192.5V180h-103.1v12.5z" fill="#fff"/><path d="M412.42 192.5h-103.1m0-12.5h103.1m0 12.5" stroke="#000" stroke-width="2" fill="none"/><path d="M563.75 492.5l6.25 6.25 6.25-6.25v-300l-6.25-6.25-6.25 6.25z" fill="#fff"/><path d="M563.75 492.5v-300m12.5 0v300m-12.5 0" stroke="#000" stroke-width="2" fill="none"/><path d="M724.92 192.5V180H570v6.25l6.25 6.25zm-161.17 0l6.25-6.25V180H412.42v12.5z" fill="#fff"/><path d="M724.92 192.5H576.25M570 180h154.92m-161.17 12.5H412.42m0-12.5H570m-6.25 12.5" stroke="#000" stroke-width="2" fill="none"/><path d="M925.38 492.74l6.25 6.26 6.25-6.26V192.5l-6.25-6.25-6.25 6.25z" fill="#fff"/><path d="M925.38 492.74V192.5m12.5 0v300.24m-12.5 0" stroke="#000" stroke-width="2" fill="none"/><path d="M1037.42 192.5V180h-105.8v6.25l6.26 6.25zm-112.04 0l6.25-6.25V180h-206.7v12.5z" fill="#fff"/><path d="M1037.42 192.5h-99.54m-6.25-12.5h105.8m-112.05 12.5H724.92m0-12.5h206.7m-6.24 12.5" stroke="#000" stroke-width="2" fill="none"/><path d="M1343.67 492.5l6.25 6.25 6.25 6.25V180l-6.25 6.25-6.25 6.25z" fill="#fff"/><path d="M1343.67 492.5v-300m12.5-12.5v325m-12.5-12.5" stroke="#000" stroke-width="2" fill="none"/><path d="M1343.67 192.5l6.25-6.25 6.25-6.25h-83.67l-6.25 6.25v6.25zm-77.42 0v-6.25L1260 180h-222.58v12.5z" fill="#fff"/><path d="M1343.67 192.5h-77.42m6.25-12.5h83.67m-89.92 12.5h-228.83m0-12.5H1260m6.25 12.5" stroke="#000" stroke-width="2" fill="none"/><path d="M1532.5 180H1520v325l6.25-6.25 6.25-6.25z" fill="#fff"/><path d="M1532.5 180v312.5M1520 505V180h12.5" stroke="#000" stroke-width="2" fill="none"/><path d="M1368.58 180H1500v20.3h-131.42zM1368.58 200.3H1500v20.32h-131.42zM1368.58 220.63H1500v20.3h-131.42zM1368.58 240.94H1500v20.3h-131.42zM1368.58 261.25H1500v20.3h-131.42zM1368.58 281.56H1500v20.3h-131.42zM1368.58 301.88H1500v20.3h-131.42zM1368.58 322.2H1500v20.3h-131.42zM1368.58 342.5H1500v20.3h-131.42zM1368.58 362.8H1500v20.32h-131.42zM1368.58 383.13H1500v20.3h-131.42zM1368.58 403.44H1500v20.3h-131.42zM1368.58 423.75H1500v20.3h-131.42zM1368.58 444.06H1500v20.3h-131.42zM1368.58 464.38H1500v20.3h-131.42zM1368.58 484.7H1500V505h-131.42z" stroke="#000" stroke-width="2" fill="#fff"/><path d="M1434.3 474.53V190.16l-26.3 20.3m26.3-20.3l26.28 20.3" stroke="#000" stroke-width="2" fill="none"/><use xlink:href="#C" transform="matrix(1,0,0,1,1372.5833333334886,488.99999999999994) translate(50.646552734375 16.216875)"/><path d="M1532.5 492.5l-6.25 6.25L1520 505h40v-12.5zm67.5 0V505h140v-12.5zm180 0V505h36.22v-6.25l-6.25-6.25zm42.47 0l-6.25 6.25V505h22.53v-12.5z" fill="#fff"/><path d="M1532.5 492.5h27.5V505h-40m80-12.5h140V505h-140v-12.5zm180 0h29.97m6.25 12.5H1780v-12.5m42.47 0h16.28m0 12.5h-22.53m6.25-12.5" stroke="#000" stroke-width="2" fill="none"/><path d="M1809.97 492.5l6.25 6.25 6.25-6.25V190.93l-6.25-6.28-6.25-6.28z" fill="#fff"/><path d="M1809.97 492.5V178.37m12.5 12.56V492.5m-12.5 0" stroke="#000" stroke-width="2" fill="none"/><path d="M1838.75 492.5V505h38.75v-12.5zm78.75 0V505H2060v-12.5zm182.5 0V505h51.25v-6.25l-6.25-6.25z" fill="#fff"/><path d="M1838.75 492.5h38.75V505h-38.75m78.75-12.5H2060V505h-142.5v-12.5zm182.5 0h45m6.25 12.5H2100v-12.5" stroke="#000" stroke-width="2" fill="none"/><path d="M2145 192.47l6.25-6.22-6.25-6.28-112.5-.54-6.25 6.22-.03 6.25zm-118.78-.57l.03-6.25-6.25-6.28-210.03-1 6.25 6.28 6.25 6.28z" fill="#fff"/><path d="M2145 192.47l-118.78-.57m6.28-12.47l112.5.54m-118.78 11.93l-203.75-.97m-12.5-12.56l210.03 1m6.22 12.53" stroke="#000" stroke-width="2" fill="none"/><path d="M2060 492.5h40V505h-40z" fill="#fff" fill-opacity="0"/><path d="M2157.5 92.5l-6.25-6.25L2145 80v99.97l6.25 6.28h6.25zm0 93.75h-6.25l-6.25 6.22V492.5l6.25 6.25 6.25-6.25z" fill="#fff"/><path d="M2157.5 92.5v93.75m-12.5-6.28V80m12.5 106.25V492.5m-12.5 0V192.47m12.5-6.22" stroke="#000" stroke-width="2" fill="none"/><path d="M2157.5 492.5l-6.25 6.25V505H2180v-12.5zm72.5 0V505h210v-12.5zm260 0V505h36.25v-6.25l-6.25-6.25z" fill="#fff"/><path d="M2157.5 492.5h22.5V505h-28.75m78.75-12.5h210V505h-210v-12.5zm260 0h30m6.25 12.5H2490v-12.5" stroke="#000" stroke-width="2" fill="none"/><path d="M2520 492.5l6.25 6.25 6.25-6.25v-400l-6.25-6.25-6.25 6.25z" fill="#fff"/><path d="M2520 492.5v-400m12.5 0v400m-12.5 0" stroke="#000" stroke-width="2" fill="none"/><path d="M2520 92.5l6.25-6.25V80h-235.2l-6.26 6.25v6.25zm-235.2 0v-6.25l-6.26-6.25H2145l6.25 6.25 6.25 6.25z" fill="#fff"/><path d="M2520 92.5h-235.2m6.24-12.5h235.2M2284.8 92.5h-127.3M2145 80h133.54m6.25 12.5" stroke="#000" stroke-width="2" fill="none"/><path d="M2532.5 492.5l-6.25 6.25V505h36.25v-12.5zm80 0V505H2820v-12.5zm257.5 0V505h37.5l-6.25-6.25-6.25-6.25z" fill="#fff"/><path d="M2532.5 492.5h30V505h-36.25m86.25-12.5H2820V505h-207.5v-12.5zm257.5 0h25m12.5 12.5H2870v-12.5" stroke="#000" stroke-width="2" fill="none"/><path d="M2895 492.5l6.25 6.25 6.25 6.25V80l-6.25 6.25-6.25 6.25z" fill="#fff"/><path d="M2895 492.5v-400m12.5-12.5v425m-12.5-12.5" stroke="#000" stroke-width="2" fill="none"/><path d="M2895 92.5l6.25-6.25 6.25-6.25h-381.25v6.25l6.25 6.25z" fill="#fff"/><path d="M2895 92.5h-362.5m-6.25-12.5h381.25M2895 92.5" stroke="#000" stroke-width="2" fill="none"/><path d="M2440 492.5h50V505h-50zM2180 492.5h50V505h-50zM2562.5 492.5h50V505h-50zM2820 492.5h50V505h-50z" fill="#fff" fill-opacity="0"/><path d="M2523.13-7.5l6.24 6.25 6.26-6.25v-190.63l-6.26-6.25h-6.24zm0-196.88h6.24l6.26-6.25V-407.5l-6.26-6.25-6.24 6.25z" fill="#fff"/><path d="M2523.13-7.5v-196.88m12.5 6.25V-7.5m-12.5-196.88V-407.5m12.5 0v196.88m-12.5 6.25" stroke="#000" stroke-width="2" fill="none"/><path d="M2898.13-7.5l6.24 6.25 6.26 6.25v-45h-12.5zm0-92.5h12.5v-203.75h-12.5zm0-263.75h12.5v-50h-6.26l-6.24 6.25z" fill="#fff"/><path d="M2898.13-7.5V-40h12.5V5m-12.5-105v-203.75h12.5V-100h-12.5zm0-263.75v-43.75m12.5-6.25v50h-12.5" stroke="#000" stroke-width="2" fill="none"/><path d="M2898.13-407.5l6.24-6.25-6.24-6.25h-368.76v6.25l6.26 6.25z" fill="#fff"/><path d="M2898.13-407.5h-362.5m-6.26-12.5h368.76m0 12.5" stroke="#000" stroke-width="2" fill="none"/><path d="M2898.13-303.75v-60h12.5v60z" fill="#fff" fill-opacity="0"/><path d="M2910.63 5l-6.26-6.25-6.24-6.25h-362.5l-6.26 6.25V5z" fill="#fff"/><path d="M2910.63 5h-381.26m6.26-12.5h362.5m12.5 12.5" stroke="#000" stroke-width="2" fill="none"/><path d="M2278.54-2.56l6.25 1.3 9.54-6.24 174.75-400-4.1-6.25-6.05-1.76z" fill="#fff"/><path d="M2278.54-2.56l180.4-412.95m10.15 8l-174.76 400m-15.8 4.94" stroke="#000" stroke-width="2" fill="none"/><path d="M2523.13-407.5l6.24-6.25V-420h-57.07l-7.3 6.25 4.1 6.25z" fill="#fff"/><path d="M2523.13-407.5h-54.04m3.2-12.5h57.07m-6.24 12.5" stroke="#000" stroke-width="2" fill="none"/><path d="M2377.5-225.2a6 6 0 0 1 6-6H2514a6 6 0 0 1 6 6v65.8a6 6 0 0 1-6 6h-130.5a6 6 0 0 1-6-6z" fill="none"/><use xlink:href="#D" transform="matrix(1,0,0,1,2377.5,-231.1956903752447) translate(52.88020833333333 48.700520833333336)"/><path d="M2529.37 5v-6.25l-6.25-6.25h-228.78l-9.55 6.25 6.24 6.25z" fill="#fff"/><path d="M2529.37 5h-238.33m3.3-12.5h228.78m6.25 12.5" stroke="#000" stroke-width="2" fill="none"/><path d="M2898.13-40v-60h12.5v60z" fill="#fff" fill-opacity="0"/><path d="M2458.95-415.5l6.05 1.75 7.3-6.25 32.4-207.6-5.35-6.25-6.18-.96zm34.22-219.3l6.18.95 7.3-6.25 28.08-179.9-5.35-6.25-6.2-.92z" fill="#fff"/><path d="M2458.95-415.5l34.22-219.3m11.53 7.2L2472.3-420M2493.17-634.8l30.02-192.37m11.53 7.17l-28.08 179.9m-13.48 5.3" stroke="#000" stroke-width="2" fill="none"/><path d="M2898.13-420l6.24 6.25h6.26v-38.75h-12.5zm0-92.5h12.5v-121.35h-6.26l-6.24 6.25zm0-127.6l6.24 6.25h6.26v-82.4h-12.5zm0-136.15h12.5v-50h-6.26l-6.24 6.25z" fill="#fff"/><path d="M2898.13-420v-32.5h12.5v38.75m-12.5-98.75v-115.1m12.5-6.25v121.35h-12.5m0-127.6v-76.15h12.5v82.4m-12.5-142.4V-820m12.5-6.25v50h-12.5" stroke="#000" stroke-width="2" fill="none"/><path d="M2898.13-820l6.24-6.25-6.24-6.25h-361.56l-7.2 6.25 5.36 6.25z" fill="#fff"/><path d="M2898.13-820h-363.4m1.84-12.5h361.55m0 12.5" stroke="#000" stroke-width="2" fill="none"/><path d="M2898.13-716.25v-60h12.5v60zM2898.13-452.5v-60h12.5v60z" fill="#fff" fill-opacity="0"/><path d="M2523.2-827.17l6.17.92 7.2-6.25 56.36-400-5.43-6.25-5.43-6.25z" fill="#fff"/><path d="M2523.2-827.17l58.87-417.83m10.86 12.5l-56.36 400m-13.38 5.33" stroke="#000" stroke-width="2" fill="none"/><path d="M2898.12-1232.5l6.25-6.25 6.25-6.25h-328.55l5.43 6.25 5.43 6.25z" fill="#fff"/><path d="M2898.12-1232.5h-305.2m-10.85-12.5h328.55m-12.5 12.5" stroke="#000" stroke-width="2" fill="none"/><path d="M1560 492.5h40V505h-40z" fill="#fff" fill-opacity="0"/><path d="M60 180h131.42v20.3H60zM60 200.3h131.42v20.32H60zM60 220.63h131.42v20.3H60zM60 240.94h131.42v20.3H60zM60 261.25h131.42v20.3H60zM60 281.56h131.42v20.3H60zM60 301.88h131.42v20.3H60zM60 322.2h131.42v20.3H60zM60 342.5h131.42v20.3H60zM60 362.8h131.42v20.32H60zM60 383.13h131.42v20.3H60zM60 403.44h131.42v20.3H60zM60 423.75h131.42v20.3H60zM60 444.06h131.42v20.3H60zM60 464.38h131.42v20.3H60zM60 484.7h131.42V505H60z" stroke="#000" stroke-width="2" fill="#fff"/><path d="M125.7 474.53V190.16l-26.28 20.3m26.3-20.3l26.27 20.3" stroke="#000" stroke-width="2" fill="none"/><use xlink:href="#C" transform="matrix(1,0,0,1,64,489) translate(50.646552734375 16.216875)"/><path d="M1740 492.5h40V505h-40z" fill="#fff" fill-opacity="0"/><path d="M3435-7.5l6.25 6.25L3447.5 5v-418.75h-6.25l-6.25 6.25z" fill="#fff"/><path d="M3435-7.5v-400m12.5-6.25V5M3435-7.5" stroke="#000" stroke-width="2" fill="none"/><path d="M3435-420l6.25 6.25h6.25v-412.5h-6.25L3435-820z" fill="#fff"/><path d="M3435-420v-400m12.5-6.25v412.5M3435-420" stroke="#000" stroke-width="2" fill="none"/><path d="M3435-1232.5l6.25-6.25 6.25-6.25H3060l6.25 6.25 6.25 6.25z" fill="#fff"/><path d="M3435-1232.5h-362.5M3060-1245h387.5m-12.5 12.5" stroke="#000" stroke-width="2" fill="none"/><path d="M3060-826.25h6.25l6.25-6.25V-865H3060zm0-98.75h12.5v-307.5l-6.25-6.25-6.25-6.25z" fill="#fff"/><path d="M3060-826.25V-865h12.5v32.5M3060-925v-320m12.5 12.5V-925H3060" stroke="#000" stroke-width="2" fill="none"/><path d="M3060-413.75h6.25l6.25-6.25v-40H3060zm0-106.25h12.5v-183.75H3060zm0-243.75h12.5V-820l-6.25-6.25H3060z" fill="#fff"/><path d="M3060-413.75V-460h12.5v40M3060-520v-183.75h12.5V-520H3060zm0-243.75v-62.5m12.5 6.25v56.25H3060" stroke="#000" stroke-width="2" fill="none"/><path d="M3060-703.75v-60h12.5v60z" fill="#fff" fill-opacity="0"/><path d="M3120-1065.4a6 6 0 0 1 6-6h248a6 6 0 0 1 6 6v65.8a6 6 0 0 1-6 6h-248a6 6 0 0 1-6-6z" fill="none"/><use xlink:href="#E" transform="matrix(1,0,0,1,3120,-1071.4022875841972) translate(22.158203125 53.55078125)"/><use xlink:href="#F" transform="matrix(1,0,0,1,3120,-1071.4022875841972) translate(208.251953125 53.55078125)"/><path d="M3060-460v-60h12.5v60z" fill="#fff" fill-opacity="0"/><path d="M3060 5l6.25-6.25 6.25-6.25V-40H3060zm0-105h12.5v-203.75H3060zm0-263.75h12.5v-43.75l-6.25-6.25H3060z" fill="#fff"/><path d="M3060 5v-45h12.5v32.5M3060-100v-203.75h12.5V-100H3060zm0-263.75v-50m12.5 6.25v43.75H3060" stroke="#000" stroke-width="2" fill="none"/><path d="M3060-303.75v-60h12.5v60zM3060-40v-60h12.5v60z" fill="#fff" fill-opacity="0"/><path d="M3447.5 5l-6.25-6.25L3435-7.5h-362.5l-6.25 6.25L3060 5z" fill="#fff"/><path d="M3447.5 5H3060m12.5-12.5H3435M3447.5 5" stroke="#000" stroke-width="2" fill="none"/><path d="M2898.13-832.5l6.24 6.25h6.26V-865h-12.5zm0-92.5h12.5v-320l-6.26 6.25-6.24 6.25z" fill="#fff"/><path d="M2898.13-832.5V-865h12.5v38.75m-12.5-98.75v-307.5m12.5-12.5v320h-12.5" stroke="#000" stroke-width="2" fill="none"/><path d="M2898.13-865v-60h12.5v60zM3060-865v-60h12.5v60z" fill="#fff" fill-opacity="0"/><path d="M3435-832.5l6.25 6.25h6.25V-1245l-6.25 6.25-6.25 6.25z" fill="#fff"/><path d="M3435-832.5v-400m12.5-12.5v418.75m-12.5-6.25" stroke="#000" stroke-width="2" fill="none"/><path d="M2032.5 54.45l-6.25 6.6-6.25 6.6v111.72l6.25 6.28 6.25-6.22z" fill="#fff"/><path d="M2032.5 54.45v124.98m-12.5-.06V67.65m12.5-13.2" stroke="#000" stroke-width="2" fill="none"/><path d="M1272.5 108.42l-6.25-5.92-6.25-5.92V180l6.25 6.25 6.25-6.25z" fill="#fff"/><path d="M1272.5 108.42V180m-12.5 0V96.58m12.5 11.84" stroke="#000" stroke-width="2" fill="none"/><path d="M1260 96.58l6.25 5.92 6.25 5.92L2020 67.65l6.25-6.6 6.25-6.6z" fill="#fff"/><path d="M1260 96.58l772.5-42.13m-12.5 13.2l-747.5 40.77M1260 96.58" stroke="#000" stroke-width="2" fill="none"/><path d="M2910.63-1245H3060v20h-149.38zM2910.63-1225H3060v20h-149.38zM2910.63-1205H3060v20h-149.38zM2910.63-1185H3060v20h-149.38zM2910.63-1165H3060v20h-149.38zM2910.63-1145H3060v20h-149.38zM2910.63-1125H3060v20h-149.38zM2910.63-1105H3060v20h-149.38z" stroke="#000" stroke-width="2" fill="#fff"/><path d="M2985.3-1115v-120l-29.86 20m29.87-20l29.9 20" stroke="#000" stroke-width="2" fill="none"/><use xlink:href="#C" transform="matrix(1,0,0,1,2914.625,-1100.9999999999995) translate(59.646552734375 16.216875)"/><path d="M2291.04 5l-6.25-6.25-6.26-1.3V80l6.25 6.25 6.24-6.25z" fill="#fff"/><path d="M2291.04 5v75m-12.5 0V-2.56m12.5 7.56" stroke="#000" stroke-width="2" fill="none"/><path d="M576.25 492.5l-6.25 6.25V505l250 .17v-12.5zm303.76.2v12.5l51.62.05V499l-6.24-6.26z" fill="#fff"/><path d="M576.25 492.5l243.76.17v12.5L570 505M880 492.7l45.38.04m6.24 12.5l-51.62-.03v-12.5" stroke="#000" stroke-width="2" fill="none"/><path d="M417.5-940.25a6 6 0 0 1 6-6h1948a6 6 0 0 1 6 6v131.75a6 6 0 0 1-6 6h-1948a6 6 0 0 1-6-6z" fill="none"/><use xlink:href="#G" transform="matrix(1,0,0,1,417.4999999999998,-946.25) translate(459.47135416666663 129.16666666666669)"/><use xlink:href="#H" transform="matrix(1,0,0,1,417.4999999999998,-946.25) translate(1058.625 129.16666666666669)"/><use xlink:href="#I" transform="matrix(1,0,0,1,417.4999999999998,-946.25) translate(706.18359375 271.09375)"/><use xlink:href="#J" transform="matrix(1,0,0,1,417.4999999999998,-946.25) translate(874.38671875 271.09375)"/><path d="M500-474a6 6 0 0 1 6-6h88a6 6 0 0 1 6 6v66.75a6 6 0 0 1-6 6h-88a6 6 0 0 1-6-6z" stroke="#6f7681" stroke-width="2" fill="#e3fae3"/><path d="M640-464a6 6 0 0 1 6-6h691.67a6 6 0 0 1 6 6v46.75a6 6 0 0 1-6 6H646a6 6 0 0 1-6-6z" fill="none"/><use xlink:href="#K" transform="matrix(1,0,0,1,640,-470) translate(0 51.66666666666667)"/><use xlink:href="#L" transform="matrix(1,0,0,1,640,-470) translate(125.18229166666669 51.66666666666667)"/><path d="M500-574a6 6 0 0 1 6-6h691.67a6 6 0 0 1 6 6v46.75a6 6 0 0 1-6 6H506a6 6 0 0 1-6-6z" fill="none"/><use xlink:href="#M" transform="matrix(1,0,0,1,500,-580) translate(0 51.66666666666667)"/><path d="M500-354a6 6 0 0 1 6-6h88a6 6 0 0 1 6 6v66.75a6 6 0 0 1-6 6h-88a6 6 0 0 1-6-6z" stroke="#6f7681" stroke-width="2" fill="#fcfcca"/><path d="M640-344a6 6 0 0 1 6-6h691.67a6 6 0 0 1 6 6v46.75a6 6 0 0 1-6 6H646a6 6 0 0 1-6-6z" fill="none"/><use xlink:href="#N" transform="matrix(1,0,0,1,640,-350) translate(0 51.66666666666667)"/><use xlink:href="#L" transform="matrix(1,0,0,1,640,-350) translate(120.44270833333334 51.66666666666667)"/><path d="M3447.5 1046.25l6.25-6.25-6.25-6.25H3085l-6.25 6.25 6.25 6.25z" fill="#fff"/><path d="M3447.5 1046.25H3085m0-12.5h362.5m0 12.5" stroke="#000" stroke-width="2" fill="none"/><path d="M3447.5 633.75l6.25-6.25 6.25-6.25h-387.5l6.25 6.25 6.25 6.25z" fill="#fff"/><path d="M3447.5 633.75H3085m-12.5-12.5H3460m-12.5 12.5" stroke="#000" stroke-width="2" fill="none"/><path d="M3447.5 1257.96l6.25 6.25h6.25V1169h-6.25l-6.25 6.25zm0-95.23l6.25 6.25h6.25V1040h-6.25l-6.25 6.25z" fill="#fff"/><path d="M3447.5 1257.96v-82.73m12.5-6.25v95.23m-12.5-101.47v-116.48m12.5-6.25v128.98m-12.5-6.25" stroke="#000" stroke-width="2" fill="none"/><path d="M3072.5 1264.2h6.25l6.25-6.24v-16.37h-12.5zm0-62.6h12.5v-26.37l-6.25-6.25h-6.25zm0-32.62h6.25l6.25-6.25v-46.02h-12.5zm0-92.27h12.5v-30.45l-6.25-6.25h-6.25z" fill="#fff"/><path d="M3072.5 1264.2v-22.6h12.5v16.36m-12.5-56.35v-32.62m12.5 6.25v26.36h-12.5m0-32.62v-52.27h12.5v46.03m-12.5-86.02V1040m12.5 6.25v30.46h-12.5" stroke="#000" stroke-width="2" fill="none"/><path d="M3072.5 1116.7v-40h12.5v40z" fill="#fff" fill-opacity="0"/><path d="M3131.4 1071.6a6 6 0 0 1 6-6h248a6 6 0 0 1 6 6v65.8a6 6 0 0 1-6 6h-248a6 6 0 0 1-6-6z" fill="none"/><use xlink:href="#O" transform="matrix(1,0,0,1,3131.402287584197,1065.587699840404) translate(42.77994791666666 48.700520833333336)"/><use xlink:href="#P" transform="matrix(1,0,0,1,3131.402287584197,1065.587699840404) translate(121.95963541666667 48.700520833333336)"/><path d="M3085 1420v40h-12.5v-40z" fill="#fff" fill-opacity="0"/><path d="M3085 1700l-6.25 6.26 6.25 6.25h362.5l6.25-6.26-6.25-6.25z" fill="#fff"/><path d="M3085 1700h362.5m0 12.5H3085m0-12.5" stroke="#000" stroke-width="2" fill="none"/><path d="M3447.5 1822.5l6.25 6.25 6.25 6.25v-128.76h-6.25l-6.25 6.25zm0-122.5l6.25 6.24h6.25v-340h-6.25l-6.25 6.26z" fill="#fff"/><path d="M3447.5 1822.5v-110m12.5-6.26V1835m-12.5-135v-327.5m12.5-6.25v340m-12.5-6.26" stroke="#000" stroke-width="2" fill="none"/><path d="M3447.5 1372.5l6.25-6.25-6.25-6.25H3085l-6.25 6.25 6.25 6.25z" fill="#fff"/><path d="M3447.5 1372.5H3085m0-12.5h362.5m0 12.5" stroke="#000" stroke-width="2" fill="none"/><path d="M3460 1835l-6.25-6.25-6.25-6.25H3085l-6.25 6.25-6.25 6.25z" fill="#fff"/><path d="M3460 1835h-387.5m12.5-12.5h362.5m12.5 12.5" stroke="#000" stroke-width="2" fill="none"/><path d="M3131.4 1734.6a6 6 0 0 1 6-6h248a6 6 0 0 1 6 6v65.8a6 6 0 0 1-6 6h-248a6 6 0 0 1-6-6z" fill="none"/><use xlink:href="#Q" transform="matrix(1,0,0,1,3131.402287584197,1728.5982826541162) translate(33.62630208333334 48.700520833333336)"/><use xlink:href="#R" transform="matrix(1,0,0,1,3131.402287584197,1728.5982826541162) translate(168.30078125 48.700520833333336)"/><path d="M3085 1763.75v40h-12.5v-40z" fill="#fff" fill-opacity="0"/><g stroke="#000" stroke-width="2"><path d="M3456.32 1851.1v140h-20.4v-140z" fill="#fff"/><path d="M3435.93 1851.1v140h-20.4v-140z" fill="#fff"/><path d="M3415.53 1851.1v140h-20.4v-140z" fill="#fff"/><path d="M3395.14 1851.1v140h-20.4v-140zM3374.74 1851.1v140h-20.4v-140z" fill="#fff"/><path d="M3354.35 1851.1v140h-20.4v-140zM3333.95 1851.1v140h-20.4v-140z" fill="#fff"/><path d="M3313.56 1851.1v140h-20.4v-140z" fill="#fff"/><path d="M3293.17 1851.1v140h-20.4v-140z" fill="#fff"/><path d="M3303.36 1921.1h142.76l-20.4-28m20.4 28l-20.4 28" fill="none"/></g><use xlink:href="#C" transform="matrix(6.123233995736766e-17,1,-1,6.123233995736766e-17,3288.7707206110395,1855.0971559549805) translate(54.646552734375 16.216875)"/><path d="M3085 2438.5a6 6 0 0 1 6-6h350.5a6 6 0 0 1 6 6v507.87a6 6 0 0 1-6 6H3091a6 6 0 0 1-6-6z" stroke="#000" stroke-opacity="0" stroke-width="2" fill="#edf5ff"/><use xlink:href="#l" transform="matrix(1,0,0,1,3089.9996539820845,2437.5005256762756) translate(76.83203125 245.9375)"/><use xlink:href="#S" transform="matrix(1,0,0,1,3089.9996539820845,2437.5005256762756) translate(158.66796875 245.9375)"/><use xlink:href="#T" transform="matrix(1,0,0,1,3089.9996539820845,2437.5005256762756) translate(250.97265625 245.9375)"/><use xlink:href="#c" transform="matrix(1,0,0,1,3089.9996539820845,2437.5005256762756) translate(90.99869791666667 291.0989583333333)"/><use xlink:href="#U" transform="matrix(1,0,0,1,3089.9996539820845,2437.5005256762756) translate(218.12109375 291.0989583333333)"/><g><path d="M3085 2032.5l-6.25-6.25-6.25-6.25v60h12.5zm0 87.5h-12.5v120h12.5zm0 160h-12.5v45.88h6.25l6.25-6.25zm0 52.13l-6.25-6.25h-6.25V2360h12.5zm0 67.87h-12.5v26.25h6.25l6.25-6.25zm0 32.5l-6.25-6.25h-6.25V2440h12.5zm0 47.5h-12.5v6.25h6.25l6.25-6.25zm0 12.5l-6.25-6.25h-6.25v116.45h12.5zm0 150.2h-12.5v63.42h12.5z" fill="#fff"/><path d="M3085 2032.5v47.5h-12.5v-60m12.5 100v120h-12.5v-120h12.5zm0 160v39.63m-12.5 6.25V2280h12.5m0 52.13V2360h-12.5v-34.12M3085 2400v20m-12.5 6.25V2400h12.5m0 32.5v7.5h-12.5v-13.75m0 60V2480h12.5m0 12.5v110.2h-12.5v-116.45m12.5 156.45v63.42m-12.5 0v-63.42h12.5" stroke="#000" stroke-width="2" fill="none"/></g><g><path d="M3085 2360v40h-12.5v-40z" fill="#fff" fill-opacity="0"/></g><g><path d="M3085 2080v40h-12.5v-40z" fill="#fff" fill-opacity="0"/></g><g><path d="M3085 2952.36l-6.25 6.25-6.25 6.26H3460l-6.25-6.24-6.25-6.25z" fill="#fff"/><path d="M3085 2952.36h362.5m12.5 12.5h-387.5m12.5-12.5" stroke="#000" stroke-width="2" fill="none"/></g><g><path d="M3447.5 2952.37l6.25 6.25 6.25 6.25v-538.62h-6.25l-6.25 6.25zm0-532.37l6.25 6.25h6.25v-100.37h-6.25l-6.25 6.25zm0-100.37l6.25 6.25h6.25V2020l-6.25 6.25-6.25 6.25z" fill="#fff"/><path d="M3447.5 2952.37V2432.5m12.5-6.25v538.62M3447.5 2420v-87.87m12.5-6.25v100.37m-12.5-106.62V2032.5m12.5-12.5v305.88m-12.5-6.25" stroke="#000" stroke-width="2" fill="none"/></g><g><path d="M3085 2440v40h-12.5v-40z" fill="#fff" fill-opacity="0"/></g><g><path d="M3072.5 2020l6.25 6.25 6.25 6.25h362.5l6.25-6.25 6.25-6.25z" fill="#fff"/><path d="M3072.5 2020H3460m-12.5 12.5H3085m-12.5-12.5" stroke="#000" stroke-width="2" fill="none"/></g><g><path d="M3085 2420l-6.25 6.25 6.25 6.25h362.5l6.25-6.25-6.25-6.25z" fill="#fff"/><path d="M3085 2420h362.5m0 12.5H3085m0-12.5" stroke="#000" stroke-width="2" fill="none"/></g><path d="M500-226.14a6 6 0 0 1 6-6h88a6 6 0 0 1 6 6v66.75a6 6 0 0 1-6 6h-88a6 6 0 0 1-6-6z" stroke="#6f7681" stroke-width="2" fill="#edf5ff"/><path d="M640-221.54a6 6 0 0 1 6-6h691.67a6 6 0 0 1 6 6v46.75a6 6 0 0 1-6 6H646a6 6 0 0 1-6-6z" fill="none"/><g><use xlink:href="#V" transform="matrix(1,0,0,1,640,-227.5395594227487) translate(0 51.66666666666667)"/></g><g><path d="M3915 1078.75h12.5v-42.5H3915zm0-82.5h12.5V962.5h-6.25l-6.25 6.25zm0-40l6.25 6.25h6.25V940H3915zm0-56.25h12.5V740H3915zm0-200h12.5v-40l-6.25 6.25-6.25 6.25z" fill="#fff"/><path d="M3915 1078.75v-42.5h12.5v42.5m-12.5-82.5v-27.5m12.5-6.25v33.74H3915m0-40V940h12.5v22.5M3915 900V740h12.5v160H3915zm0-200v-27.5m12.5-12.5v40H3915" stroke="#000" stroke-width="2" fill="none"/></g><g><path d="M3915 968.75l6.25-6.25-6.25-6.25h-364.35l-6.3 6.24 6.2 6.24z" fill="#fff"/><path d="M3915 968.75h-364.44m.1-12.5H3915m0 12.5" stroke="#000" stroke-width="2" fill="none"/></g><g><path d="M3915 672.5l6.25-6.25 6.25-6.25h-387.46l6.2 6.25 6.22 6.25z" fill="#fff"/><path d="M3915 672.5h-362.54m-12.42-12.5h387.46m-12.5 12.5" stroke="#000" stroke-width="2" fill="none"/></g><g><path d="M3915 1241.57l6.25 6.25 6.25 6.25v-38.84H3915zm0-66.34h12.5v-96.48H3915z" fill="#fff"/><path d="M3915 1241.57v-26.34h12.5v38.84m-12.5-78.84v-96.48m12.5 0v96.48H3915" stroke="#000" stroke-width="2" fill="none"/></g><g><path d="M3536.24 1254.07l6.3-6.25 6.28-6.25 1.74-272.83-6.2-6.25-6.26-.05zm1.86-291.62l6.25.04 6.3-6.26 1.8-283.74-6.2-6.25-6.2-6.25z" fill="#fff"/><path d="M3536.24 1254.07l1.86-291.62m12.46 6.3l-1.74 272.82m-10.72-279.12l1.94-302.45m12.42 12.5l-1.82 283.74m-12.54 6.2" stroke="#000" stroke-width="2" fill="none"/></g><g><path d="M3927.5 1254.07l-6.25-6.25-6.25-6.25h-366.18l-6.3 6.25-6.28 6.25z" fill="#fff"/><path d="M3927.5 1254.07h-391.26m12.58-12.5H3915m12.5 12.5" stroke="#000" stroke-width="2" fill="none"/></g><g><path d="M4398.76 1078.67h12.51V740l-6.25 6.25-6.24 6.25z" fill="#fff"/><path d="M4398.76 1078.67V752.5m12.5-12.5v338.67m-12.5 0" stroke="#000" stroke-width="2" fill="none"/></g><g><path d="M4398.76 752.5l6.25-6.25 6.26-6.25H4023.8l6.2 6.25 6.2 6.25z" fill="#fff"/><path d="M4398.76 752.5H4036.2m-12.4-12.5h387.46m-12.5 12.5" stroke="#000" stroke-width="2" fill="none"/></g><g><path d="M4398.76 1241.5l6.25 6.24 6.26 6.25v-175.33h-12.49z" fill="#fff"/><path d="M4398.76 1241.5v-162.83m12.5 0V1254m-12.5-12.5" stroke="#000" stroke-width="2" fill="none"/></g><g><path d="M4020 1254l6.3-6.26 6.3-6.25.28-39.9-12.5-.1zm.9-121.28l12.5.1 2.8-380.32-6.2-6.25-6.2-6.25z" fill="#fff"/><path d="M4020 1254l.38-52.5 12.5.1-.3 39.9m-11.7-108.78l2.93-392.72m12.4 12.5l-2.8 380.3-12.5-.08" stroke="#000" stroke-width="2" fill="none"/></g><g><path d="M4411.26 1254l-6.25-6.26-6.24-6.25H4032.6l-6.3 6.24-6.3 6.25z" fill="#fff"/><path d="M4411.26 1254H4020m12.6-12.5h366.16m12.5 12.5" stroke="#000" stroke-width="2" fill="none"/></g><g><path d="M3915 740v-40h12.5v40z" fill="#fff" fill-opacity="0"/></g><g><path d="M3915 940v-40h12.5v40z" fill="#fff" fill-opacity="0"/></g><g><path d="M3915 1036.24v-40h12.5v40z" fill="#fff" fill-opacity="0"/></g><g><path d="M3915 1215.23v-40h12.5v40z" fill="#fff" fill-opacity="0"/></g><g stroke="#000" stroke-width="2"><path d="M4411.26 660v80h-19.17v-80z" fill="#fff"/><path d="M4392.1 660v80h-19.17v-80zM4372.93 660v80h-19.17v-80zM4353.76 660v80h-19.17v-80z" fill="#fff"/><path d="M4334.6 660v80h-19.17v-80zM4315.43 660v80h-19.17v-80zM4296.26 660v80h-19.17v-80z" fill="#fff"/><path d="M4277.1 660v80h-19.17v-80zM4257.93 660v80h-19.17v-80z" fill="#fff"/><path d="M4267.5 700h134.18l-19.17-16m19.18 16l-19.17 16" fill="none"/></g><g><use xlink:href="#C" transform="matrix(6.123233995736766e-17,1,-1,6.123233995736766e-17,4254.760297860028,664) translate(25.146552734375 16.216875)"/></g><g><path d="M4020.38 1201.5l.5-68.78 12.5.1-.5 68.77z" fill="#fff" fill-opacity="0"/></g><g><path d="M820 492.67l60 .04v12.5l-60-.03z" fill="#fff" fill-opacity="0"/></g><g><path d="M937.88 492.74l-6.25 6.26v6.25l30.2-.02v-12.5zm83.95-.05v12.5l238.18-.15v-12.5zm298.17-.18v12.5l36.17-.02-6.25-6.25-6.25-6.25z" fill="#fff"/><path d="M937.88 492.74h23.95v12.5h-30.2m90.2-12.55l238.17-.15v12.5l-238.16.14v-12.5zm298.17-.18l23.67-.02m12.5 12.5l-36.16.02v-12.5" stroke="#000" stroke-width="2" fill="none"/></g><g><path d="M961.83 492.73l60-.04v12.5l-60 .03z" fill="#fff" fill-opacity="0"/></g><g><path d="M1260 492.55l60-.03v12.5l-60 .03z" fill="#fff" fill-opacity="0"/></g><path d="M1877.5 492.5h40V505h-40z" fill="#fff" fill-opacity="0"/><path d="M3072.5-832.5l-6.25 6.25 6.25 6.25H3435l6.25-6.25-6.25-6.25z" fill="#fff"/><path d="M3072.5-832.5H3435m0 12.5h-362.5m0-12.5" stroke="#000" stroke-width="2" fill="none"/><path d="M3072.5-420l-6.25 6.25 6.25 6.25H3435l6.25-6.25L3435-420z" fill="#fff"/><path d="M3072.5-420H3435m0 12.5h-362.5m0-12.5" stroke="#000" stroke-width="2" fill="none"/><path d="M3120-634a6 6 0 0 1 6-6h248a6 6 0 0 1 6 6v65.8a6 6 0 0 1-6 6h-248a6 6 0 0 1-6-6z" fill="none"/><g><use xlink:href="#E" transform="matrix(1,0,0,1,3120,-640) translate(23.720703125 53.55078125)"/><use xlink:href="#W" transform="matrix(1,0,0,1,3120,-640) translate(209.814453125 53.55078125)"/></g><path d="M3123.75-226.14a6 6 0 0 1 6-6h248a6 6 0 0 1 6 6v65.8a6 6 0 0 1-6 6h-248a6 6 0 0 1-6-6z" fill="none"/><g><use xlink:href="#E" transform="matrix(1,0,0,1,3123.75,-232.14111520685032) translate(22.021484375 53.55078125)"/><use xlink:href="#X" transform="matrix(1,0,0,1,3123.75,-232.14111520685032) translate(208.115234375 53.55078125)"/></g><g><path d="M3085 633.75l-6.25-6.25-6.25-6.25v225h6.25L3085 840zm0 218.75l-6.25-6.25h-6.25v130.8h12.5zm0 164.54h-12.5V1040h6.25l6.25-6.25z" fill="#fff"/><path d="M3085 633.75V840m-12.5 6.25v-225M3085 852.5v124.54h-12.5v-130.8M3085 1017.05v16.7m-12.5 6.26v-22.96h12.5" stroke="#000" stroke-width="2" fill="none"/></g><g><path d="M3447.5 852.5l6.25-6.25-6.25-6.25h-276.96v12.5zm-316.96 0V840H3085l-6.25 6.25 6.25 6.25z" fill="#fff"/><path d="M3447.5 852.5h-276.96V840h276.96m-316.96 12.5H3085m0-12.5h45.54v12.5" stroke="#000" stroke-width="2" fill="none"/></g><g><path d="M3085 977.04v40h-12.5v-40z" fill="#fff" fill-opacity="0"/></g><g><path d="M3447.5 1175.23l6.25-6.25-6.25-6.25H3085l-6.25 6.25 6.25 6.25z" fill="#fff"/><path d="M3447.5 1175.23H3085m0-12.5h362.5m0 12.5" stroke="#000" stroke-width="2" fill="none"/></g><g><path d="M3170.54 852.5h-40V840h40z" fill="#fff" fill-opacity="0"/></g><g><path d="M3447.5 1270.46l6.25-6.25-6.25-6.24H3085l-6.25 6.25 6.25 6.26z" fill="#fff"/><path d="M3447.5 1270.46H3085m0-12.5h362.5m0 12.5" stroke="#000" stroke-width="2" fill="none"/></g><g><path d="M3072.5 1241.6v-40h12.5v40z" fill="#fff" fill-opacity="0"/></g><path d="M3136.25 910.22a6 6 0 0 1 6-6h248a6 6 0 0 1 6 6v65.8a6 6 0 0 1-6 6h-248a6 6 0 0 1-6-6z" fill="none"/><g><use xlink:href="#Y" transform="matrix(1,0,0,1,3136.247631959695,904.2227124158027) translate(36.85546875 29.34114583333333)"/><use xlink:href="#Z" transform="matrix(1,0,0,1,3136.247631959695,904.2227124158027) translate(96.55598958333334 29.34114583333333)"/><use xlink:href="#aa" transform="matrix(1,0,0,1,3136.247631959695,904.2227124158027) translate(115.34505208333334 29.34114583333333)"/><use xlink:href="#ab" transform="matrix(1,0,0,1,3136.247631959695,904.2227124158027) translate(43.11197916666666 68.05989583333333)"/><use xlink:href="#ac" transform="matrix(1,0,0,1,3136.247631959695,904.2227124158027) translate(137.20052083333334 68.05989583333333)"/></g><g><path d="M3460 1264.2h-6.25l-6.25 6.26V1360l6.25 6.25h6.25z" fill="#fff"/><path d="M3460 1264.2v102.05m-12.5-6.25v-89.54m12.5-6.25" stroke="#000" stroke-width="2" fill="none"/></g><g><path d="M3085 1270.46l-6.25-6.25h-6.25v31.03h12.5zm0 64.77h-12.5v31.02h6.25l6.25-6.25z" fill="#fff"/><path d="M3085 1270.46v24.77h-12.5v-31.02m12.5 71.03V1360m-12.5 6.25v-31.02h12.5" stroke="#000" stroke-width="2" fill="none"/></g><g><path d="M3085 1295.23v40h-12.5v-40z" fill="#fff" fill-opacity="0"/></g><path d="M3130.54 1282.33a6 6 0 0 1 6-6h248a6 6 0 0 1 6 6v65.8a6 6 0 0 1-6 6h-248a6 6 0 0 1-6-6z" fill="none"/><g><use xlink:href="#D" transform="matrix(1,0,0,1,3130.5442753806647,1276.3277825499613) translate(111.38020833333333 48.700520833333336)"/></g><g><path d="M3085 2706.1h-12.5v55.4h12.5zm0 95.4h-12.5v72.24h12.5zm0 112.24h-12.5v51.13l6.25-6.25 6.25-6.25z" fill="#fff"/><path d="M3085 2706.1v55.4h-12.5v-55.4m12.5 95.4v72.24h-12.5v-72.23h12.5zm0 112.24v38.63m-12.5 12.5v-51.13h12.5" stroke="#000" stroke-width="2" fill="none"/></g><g><path d="M3085 2761.5v40h-12.5v-40z" fill="#fff" fill-opacity="0"/></g><g><path d="M3085 2873.74v40h-12.5v-40z" fill="#fff" fill-opacity="0"/></g><g><path d="M3085 2602.7v40h-12.5v-40z" fill="#fff" fill-opacity="0"/></g><path d="M3480 1326a6 6 0 0 1 6-6h919.26a6 6 0 0 1 6 6v88a6 6 0 0 1-6 6H3486a6 6 0 0 1-6-6z" fill="none"/><g><use xlink:href="#ad" transform="matrix(1,0,0,1,3480,1320) translate(187.73828125 79.1015625)"/><use xlink:href="#J" transform="matrix(1,0,0,1,3480,1320) translate(363.83203125 79.1015625)"/></g><g><path d="M2934 1200a6 6 0 0 1 6 6v1208a6 6 0 0 1-6 6h-201.13a6 6 0 0 1-6-6V1206a6 6 0 0 1 6-6z" fill="none"/></g><g><use xlink:href="#ae" transform="matrix(6.123233995736766e-17,1,-1,6.123233995736766e-17,2940,1200) translate(337.94921875 136.1015625)"/><use xlink:href="#J" transform="matrix(6.123233995736766e-17,1,-1,6.123233995736766e-17,2940,1200) translate(501.62109375 136.1015625)"/></g><g stroke="#000" stroke-width="2"><path d="M3460 541.25v80h-20v-80zM3440 541.25v80h-20v-80zM3420 541.25v80h-20v-80zM3400 541.25v80h-20v-80zM3380 541.25v80h-20v-80zM3360 541.25v80h-20v-80zM3340 541.25v80h-20v-80zM3320 541.25v80h-20v-80z" fill="#fff"/><path d="M3330 581.25h120l-20-16m20 16l-20 16" fill="none"/></g><g><use xlink:href="#C" transform="matrix(6.123233995736766e-17,1,-1,6.123233995736766e-17,3316.002143010863,545.25) translate(24.646552734375 16.216875)"/></g><g><path d="M3085 2480l-6.25 6.25 6.25 6.25h292.66V2480z" fill="#fff"/><path d="M3085 2480h292.66v12.5H3085m0-12.5" stroke="#000" stroke-width="2" fill="none"/></g><g><path d="M3085 2240v40h-12.5v-40z" fill="#fff" fill-opacity="0"/></g><g><path d="M3085 2319.63l-6.25 6.25 6.25 6.25h362.5l6.25-6.25-6.25-6.25z" fill="#fff"/><path d="M3085 2319.63h362.5m0 12.5H3085m0-12.5" stroke="#000" stroke-width="2" fill="none"/></g><path d="M3136.25 2345.26a6 6 0 0 1 6-6h248a6 6 0 0 1 6 6v65.8a6 6 0 0 1-6 6h-248a6 6 0 0 1-6-6z" fill="none"/><g><use xlink:href="#af" transform="matrix(1,0,0,1,3136.253711937741,2339.256457352814) translate(123.76302083333333 48.700520833333336)"/></g><path d="M4087.53 968.2a6 6 0 0 1 6-6h248a6 6 0 0 1 6 6v65.8a6 6 0 0 1-6 6h-248a6 6 0 0 1-6-6z" fill="none"/><g><use xlink:href="#ag" transform="matrix(1,0,0,1,4087.5333940121827,962.1954393378528) translate(73.07291666666666 48.700520833333336)"/></g><path d="M40 666a6 6 0 0 1 6-6h416.58a6 6 0 0 1 6 6v1098.63a6 6 0 0 1-6 6H46a6 6 0 0 1-6-6z" stroke="#000" stroke-width="2" fill="#ddd"/><g><path d="M74.58 1446.88a6 6 0 0 1-6-6v-508a6 6 0 0 1 6-6h172.3a6 6 0 0 1 6 6v508a6 6 0 0 1-6 6z" fill="none"/></g><g><use xlink:href="#ah" transform="matrix(6.123233995736766e-17,-1,1,6.123233995736766e-17,68.58333333348855,1446.8756276757981) translate(56.220703125 107.05078125)"/><use xlink:href="#ai" transform="matrix(6.123233995736766e-17,-1,1,6.123233995736766e-17,68.58333333348855,1446.8756276757981) translate(322.646484375 107.05078125)"/></g><g><path d="M289.58 667.88v1098" stroke="#000" stroke-width="2" stroke-linecap="round" fill="none"/></g><g><path d="M274.58 1439.5a6 6 0 0 1-6-6V932.88a6 6 0 0 1 6-6h163.55a6 6 0 0 1 6 6v500.62a6 6 0 0 1-6 6z" fill="none"/></g><g><use xlink:href="#aj" transform="matrix(6.123233995736766e-17,-1,1,6.123233995736766e-17,268.5833333334883,1439.503377968617) translate(54.17578125 102.55078125)"/><use xlink:href="#ai" transform="matrix(6.123233995736766e-17,-1,1,6.123233995736766e-17,268.5833333334883,1439.503377968617) translate(317.69140625 102.55078125)"/></g><path d="M1541.23 259.5a6 6 0 0 1 6-6h248a6 6 0 0 1 6 6v65.8a6 6 0 0 1-6 6h-248a6 6 0 0 1-6-6z" fill="none"/><g><use xlink:href="#ak" transform="matrix(1,0,0,1,1541.233978973979,253.49875399237783) translate(59.599609375 38.75)"/><use xlink:href="#al" transform="matrix(1,0,0,1,1541.233978973979,253.49875399237783) translate(67.412109375 96.828125)"/></g><path d="M2571.86-551.8a6 6 0 0 1 6-6h248a6 6 0 0 1 6 6v65.8a6 6 0 0 1-6 6h-248a6 6 0 0 1-6-6z" fill="none"/><g><use xlink:href="#am" transform="matrix(1,0,0,1,2571.8620410517324,-557.8045751683944) translate(16.474609375 53.55078125)"/><use xlink:href="#an" transform="matrix(1,0,0,1,2571.8620410517324,-557.8045751683944) translate(100.634765625 53.55078125)"/></g><path d="M2580-146.8a6 6 0 0 1 6-6h248a6 6 0 0 1 6 6V-81a6 6 0 0 1-6 6h-248a6 6 0 0 1-6-6z" fill="none"/><g><use xlink:href="#ao" transform="matrix(1,0,0,1,2580,-152.8045751683946) translate(38.916015625 38.75)"/><use xlink:href="#ap" transform="matrix(1,0,0,1,2580,-152.8045751683946) translate(46.806640625 96.828125)"/></g><path d="M3130.54 1181.23a6 6 0 0 1 6-6h248a6 6 0 0 1 6 6v65.8a6 6 0 0 1-6 6h-248a6 6 0 0 1-6-6z" fill="none"/><g><use xlink:href="#aq" transform="matrix(1,0,0,1,3130.5442753806647,1175.2300772941262) translate(32.981770833333314 48.700520833333336)"/><use xlink:href="#ar" transform="matrix(1,0,0,1,3130.5442753806647,1175.2300772941262) translate(143.56770833333331 48.700520833333336)"/></g><path d="M3383.75 1392.88a6 6 0 0 1 6-6h40.8a6 6 0 0 1 6 6v40.62a6 6 0 0 1-6 6h-40.8a6 6 0 0 1-6-6z" stroke="#000" stroke-opacity="0" stroke-width="4" fill="#fff"/><g><use xlink:href="#as" transform="matrix(1,0,0,1,3395.75,1398.8756276757981) translate(-1.5481770833333321 22.58376736111111)"/></g><path d="M3388.44 2045.63a6 6 0 0 1 6-6h40.8a6 6 0 0 1 6 6v40.62a6 6 0 0 1-6 6h-40.8a6 6 0 0 1-6-6z" stroke="#000" stroke-opacity="0" stroke-width="4" fill="#fff"/><g><use xlink:href="#as" transform="matrix(1,0,0,1,3400.4375,2051.624854791895) translate(-1.5481770833333321 22.58376736111111)"/></g><path d="M3569.66 715.24c0 1.08-1.02 2-2.34 2-1.26 0-2.34-.92-2.34-2 0-1.12 1.08-2.04 2.34-2.04 1.32 0 2.34.92 2.34 2.04zM3615.2 715.24c0 1.08-1.08 2-2.34 2-1.32 0-2.34-.92-2.34-2 0-1.12 1.02-2.04 2.34-2.04 1.26 0 2.34.92 2.34 2.04z" stroke="#000"/><path d="M3569.66 680.04h40.86c1.8 0 7.08 3.44 7.2 5l2.34 28c.12 1.56-1.44 2.8-3.24 2.8h-53.52c-1.8 0-3.36-1.24-3.24-2.8l2.34-28c.12-1.56 5.46-5 7.26-5z" stroke="#000" fill="#fff"/><path d="M3602.72 702.64c-3.3 0-5.94 6.52-5.94 14.52h11.88c0-8-2.64-14.52-5.94-14.52zM3596.78 717.24h11.88v1.8h-11.88v-1.8zM3597.74 719.16h9.9v.88h-9.9v-.88zM3582.8 685.04h3.48c.24 0 .48.2.48.44v.84c0 .24-.24.44-.48.44h-3.48c-.24 0-.48-.2-.48-.44v-.84c0-.24.24-.44.48-.44zM3588.32 685.04h3.42c.3 0 .54.2.54.44v.84c0 .24-.24.44-.54.44h-3.42c-.3 0-.48-.2-.48-.44v-.84c0-.24.18-.44.48-.44zM3593.84 685.04h3.42c.3 0 .54.2.54.44v.84c0 .24-.24.44-.54.44h-3.42c-.3 0-.48-.2-.48-.44v-.84c0-.24.18-.44.48-.44zM3582.8 682.48h3.48c.24 0 .48.16.48.44v.84c0 .24-.24.44-.48.44h-3.48c-.24 0-.48-.2-.48-.44v-.84c0-.28.24-.44.48-.44zM3588.32 682.48h3.42c.3 0 .54.16.54.44v.84c0 .24-.24.44-.54.44h-3.42c-.3 0-.48-.2-.48-.44v-.84c0-.28.18-.44.48-.44zM3593.84 682.48h3.42c.3 0 .54.16.54.44v.84c0 .24-.24.44-.54.44h-3.42c-.3 0-.48-.2-.48-.44v-.84c0-.28.18-.44.48-.44zM3595.1 694.48c0 2.8-2.28 5.08-5.04 5.08-2.82 0-5.04-2.28-5.04-5.08 0-2.8 2.22-5.04 5.04-5.04 2.76 0 5.04 2.24 5.04 5.04z" stroke="#000" fill="#fff"/><path d="M3569.66 1017.27c0 1.08-1.02 2-2.34 2-1.26 0-2.34-.92-2.34-2 0-1.12 1.08-2.04 2.34-2.04 1.32 0 2.34.92 2.34 2.04zM3615.2 1017.27c0 1.08-1.08 2-2.34 2-1.32 0-2.34-.92-2.34-2 0-1.12 1.02-2.04 2.34-2.04 1.26 0 2.34.92 2.34 2.04z" stroke="#000"/><path d="M3569.66 982.07h40.86c1.8 0 7.08 3.44 7.2 5l2.34 28c.12 1.56-1.44 2.8-3.24 2.8h-53.52c-1.8 0-3.36-1.24-3.24-2.8l2.34-28c.12-1.56 5.46-5 7.26-5z" stroke="#000" fill="#fff"/><path d="M3602.72 1004.67c-3.3 0-5.94 6.52-5.94 14.52h11.88c0-8-2.64-14.53-5.94-14.53zM3596.78 1019.27h11.88v1.8h-11.88v-1.8zM3597.74 1021.2h9.9v.87h-9.9v-.88zM3582.8 987.07h3.48c.24 0 .48.2.48.44v.85c0 .24-.24.44-.48.44h-3.48c-.24 0-.48-.2-.48-.45v-.84c0-.23.24-.43.48-.43zM3588.32 987.07h3.42c.3 0 .54.2.54.44v.85c0 .24-.24.44-.54.44h-3.42c-.3 0-.48-.2-.48-.45v-.84c0-.23.18-.43.48-.43zM3593.84 987.07h3.42c.3 0 .54.2.54.44v.85c0 .24-.24.44-.54.44h-3.42c-.3 0-.48-.2-.48-.45v-.84c0-.23.18-.43.48-.43zM3582.8 984.5h3.48c.24 0 .48.17.48.45v.84c0 .23-.24.43-.48.43h-3.48c-.24 0-.48-.2-.48-.44v-.85c0-.28.24-.44.48-.44zM3588.32 984.5h3.42c.3 0 .54.17.54.45v.84c0 .23-.24.43-.54.43h-3.42c-.3 0-.48-.2-.48-.44v-.85c0-.28.18-.44.48-.44zM3593.84 984.5h3.42c.3 0 .54.17.54.45v.84c0 .23-.24.43-.54.43h-3.42c-.3 0-.48-.2-.48-.44v-.85c0-.28.18-.44.48-.44zM3595.1 996.5c0 2.8-2.28 5.1-5.04 5.1-2.82 0-5.04-2.3-5.04-5.1s2.22-5.03 5.04-5.03c2.76 0 5.04 2.24 5.04 5.04z" stroke="#000" fill="#fff"/><g><path d="M2535.63-210.63l-6.25 6.25 6.24 6.25h287.5v-12.5z" fill="#fff"/><path d="M2535.63-210.63h287.5v12.5h-287.5m0-12.5" stroke="#000" stroke-width="2" fill="none"/></g><path d="M2563.13-334a6 6 0 0 1 6-6h248a6 6 0 0 1 6 6v65.8a6 6 0 0 1-6 6h-248a6 6 0 0 1-6-6z" fill="none"/><g><use xlink:href="#at" transform="matrix(1,0,0,1,2563.1250070584406,-340) translate(42.6171875 53.55078125)"/><use xlink:href="#au" transform="matrix(1,0,0,1,2563.1250070584406,-340) translate(92.20703125 53.55078125)"/></g><path d="M2552.5-757.75a6 6 0 0 1 6-6h303a6 6 0 0 1 6 6v65.8a6 6 0 0 1-6 6h-303a6 6 0 0 1-6-6z" fill="none"/><g><use xlink:href="#av" transform="matrix(1,0,0,1,2552.5,-763.75) translate(19.775390625 53.55078125)"/><use xlink:href="#au" transform="matrix(1,0,0,1,2552.5,-763.75) translate(170.048828125 53.55078125)"/></g><g><path d="M2506.65-640.1l-7.3 6.25 5.35 6.25h393.43l6.25-6.25-6.26-6.25z" fill="#fff"/><path d="M2506.65-640.1h391.47m0 12.5H2504.7m1.95-12.5" stroke="#000" stroke-width="2" fill="none"/></g><defs><path d="M135 0v-1490h980v253H440v416h609v249H440V0H135" id="aw"/><path d="M567 20C257 20 68-148 68-448v-87h305v92c0 143 75 217 194 217s193-74 193-218v-1046h302v1041c0 301-188 469-495 469" id="ax"/><path d="M135 0v-1490h340l471 754c59 97 122 210 187 365-32-387-14-721-19-1119h312V0h-341C855-382 627-689 427-1113c32 420 16 695 20 1113H135" id="ay"/><g id="a"><use transform="matrix(0.01953125,0,0,0.01953125,0,0)" xlink:href="#aw"/><use transform="matrix(0.01953125,0,0,0.01953125,20.76171875,0)" xlink:href="#ax"/><use transform="matrix(0.01953125,0,0,0.01953125,44.140625,0)" xlink:href="#ay"/></g><path d="M124 0v-220l528-495c135-132 210-216 210-336 0-133-98-215-231-215-139 0-229 88-229 233H110c0-290 214-477 523-477 315 0 525 182 525 440 0 167-80 305-385 586L548-262v11h630V0H124" id="az"/><path d="M690 20C314 20 94-261 94-744c0-482 221-766 596-766 376 0 597 284 597 766 0 483-219 764-597 764zm0-253c184 0 286-184 286-511 0-328-102-514-286-514-183 0-285 187-285 514s101 511 285 511" id="aA"/><path d="M177 0l620-1228v-10H75v-252h1041v256L494 0H177" id="aB"/><g id="b"><use transform="matrix(0.01953125,0,0,0.01953125,0,0)" xlink:href="#az"/><use transform="matrix(0.01953125,0,0,0.01953125,25.1953125,0)" xlink:href="#aA"/><use transform="matrix(0.01953125,0,0,0.01953125,51.38671875,0)" xlink:href="#aB"/></g><path d="M783 20c-382 0-661-292-661-764 0-473 279-766 661-766 302 0 548 182 601 489h-190c-42-204-217-313-411-313-268 0-476 208-476 590 0 381 209 588 476 588 195 0 369-110 411-313h190c-52 303-296 489-601 489" id="aC"/><path d="M471 26C259 26 90-98 90-318c0-256 228-303 435-329 202-27 287-16 287-108 0-139-79-219-234-219-161 0-248 86-283 164l-173-57c86-203 278-265 451-265 150 0 419 46 419 395V0H815v-152h-12C765-73 660 26 471 26zm31-159c199 0 310-134 310-271v-155c-30 35-226 55-295 64-131 17-246 59-246 186 0 116 97 176 231 176" id="aD"/><path d="M158 418v-1536h174v179h20c37-59 106-193 324-193 279 0 474 222 474 576 0 356-194 580-473 580-213 0-288-135-325-197h-14v591H158zm492-555c209 0 317-186 317-421 0-232-105-413-317-413-206 0-314 166-314 413 0 249 111 421 314 421" id="aE"/><path d="M613 24c-304 0-509-231-509-576 0-350 205-580 509-580 216 0 392 114 453 309l-173 49c-33-115-133-197-280-197-223 0-326 196-326 419 0 220 103 415 326 415 150 0 252-85 285-206l172 49C1010-95 832 24 613 24" id="aF"/><path d="M158 0v-1118h180V0H158zm91-1301c-68 0-125-53-125-119s57-119 125-119c69 0 126 53 126 119s-57 119-126 119" id="aG"/><path d="M598-1118v154H368v674c0 100 37 144 132 144 23 0 62-6 92-12L629-6c-37 13-88 20-134 20-193 0-307-107-307-290v-688H20v-154h168v-266h180v266h230" id="aH"/><path d="M140 405l46-156c120 36 205 19 263-150l32-93L54-1118h197c107 313 237 620 324 950 87-331 219-637 326-950h196L606 167c-68 178-176 259-334 259-64 0-113-12-132-21" id="aI"/><path d="M295 13c-75 0-135-60-135-135s60-135 135-135 135 60 135 135S370 13 295 13zm0-809c-75 0-135-60-135-135s60-135 135-135 135 60 135 135-60 135-135 135" id="aJ"/><g id="c"><use transform="matrix(0.013020833333333334,0,0,0.013020833333333334,0,0)" xlink:href="#aC"/><use transform="matrix(0.013020833333333334,0,0,0.013020833333333334,19.479166666666668,0)" xlink:href="#aD"/><use transform="matrix(0.013020833333333334,0,0,0.013020833333333334,34.453125,0)" xlink:href="#aE"/><use transform="matrix(0.013020833333333334,0,0,0.013020833333333334,51.041666666666664,0)" xlink:href="#aD"/><use transform="matrix(0.013020833333333334,0,0,0.013020833333333334,66.015625,0)" xlink:href="#aF"/><use transform="matrix(0.013020833333333334,0,0,0.013020833333333334,81.25,0)" xlink:href="#aG"/><use transform="matrix(0.013020833333333334,0,0,0.013020833333333334,87.70833333333333,0)" xlink:href="#aH"/><use transform="matrix(0.013020833333333334,0,0,0.013020833333333334,96.95312499999999,0)" xlink:href="#aI"/><use transform="matrix(0.013020833333333334,0,0,0.013020833333333334,111.94010416666664,0)" xlink:href="#aJ"/></g><path d="M626 20c-262 0-458-168-468-396h184c12 133 134 229 284 229 180 0 311-137 311-326 0-192-136-335-323-335-92 0-196 33-255 78l-178-22 88-738h784v167H429l-51 435h8c61-51 160-87 263-87 273 0 474 211 474 499 0 286-210 496-497 496" id="aK"/><path d="M646 20c-332 0-524-278-524-764 0-483 194-766 524-766s524 283 524 766c0 485-191 764-524 764zm0-166c218 0 341-220 341-598 0-380-123-601-341-601s-341 222-341 601c0 378 123 598 341 598" id="aL"/><g id="d"><use transform="matrix(0.013020833333333334,0,0,0.013020833333333334,0,0)" xlink:href="#aK"/><use transform="matrix(0.013020833333333334,0,0,0.013020833333333334,16.2109375,0)" xlink:href="#aL"/></g><path d="M218-607c0-325 108-727 258-974h175c-155 315-250 682-250 974 0 265 78 531 250 886H476C306-10 218-315 218-607" id="aM"/><path d="M370-1490V0H180v-1490h190" id="aN"/><path d="M98-1322v-168h1126v168H757V0H567v-1322H98" id="aO"/><g id="f"><use transform="matrix(0.013020833333333334,0,0,0.013020833333333334,0,0)" xlink:href="#aM"/><use transform="matrix(0.013020833333333334,0,0,0.013020833333333334,9.7265625,0)" xlink:href="#aN"/><use transform="matrix(0.013020833333333334,0,0,0.013020833333333334,16.888020833333336,0)" xlink:href="#aO"/></g><path d="M784 20c-382 0-662-292-662-764 0-473 280-766 662-766s660 293 660 766c0 472-278 764-660 764zm0-176c266 0 475-207 475-588 0-383-209-590-475-590-268 0-477 208-477 590 0 380 209 588 477 588" id="aP"/><path d="M180 0v-1490h224l606 953c40 63 108 177 176 312-27-437-7-821-13-1265h190V0h-226C860-448 622-778 356-1262c27 476 11 792 15 1262H180" id="aQ"/><path d="M180 0v-1490h190v1322h690V0H180" id="aR"/><path d="M600 0v-610L52-1490h220l295 481c50 82 90 150 130 243 40-96 80-164 128-243l294-481h219L790-610V0H600" id="aS"/><path d="M96 279C273-86 346-350 346-607c0-292-95-659-250-974h175c150 246 258 650 258 974 0 297-91 602-258 886H96" id="aT"/><g id="g"><use transform="matrix(0.013020833333333334,0,0,0.013020833333333334,0,0)" xlink:href="#aP"/><use transform="matrix(0.013020833333333334,0,0,0.013020833333333334,20.390625,0)" xlink:href="#aQ"/><use transform="matrix(0.013020833333333334,0,0,0.013020833333333334,40.481770833333336,0)" xlink:href="#aR"/><use transform="matrix(0.013020833333333334,0,0,0.013020833333333334,54.661458333333336,0)" xlink:href="#aS"/><use transform="matrix(0.013020833333333334,0,0,0.013020833333333334,72.76041666666667,0)" xlink:href="#aT"/></g><path d="M135 0v-1490h581c339 0 533 192 533 485 0 204-94 351-264 424L1302 0H964L680-532H440V0H135zm305-779h220c186 0 274-77 274-226 0-150-88-233-275-233H440v459" id="aU"/><path d="M135 0v-1490h305v1237h643V0H135" id="aV"/><path d="M789 20C394 20 94-260 94-744c0-487 300-766 695-766s695 279 695 766c0 485-300 764-695 764zm0-271c231 0 385-174 385-493 0-321-154-495-385-495s-385 175-385 495c0 319 154 493 385 493" id="aW"/><g id="h"><use transform="matrix(0.01953125,0,0,0.01953125,0,0)" xlink:href="#aU"/><use transform="matrix(0.01953125,0,0,0.01953125,26.26953125,0)" xlink:href="#aV"/><use transform="matrix(0.01953125,0,0,0.01953125,47.75390625,0)" xlink:href="#aW"/></g><g id="i"><use transform="matrix(0.01953125,0,0,0.01953125,0,0)" xlink:href="#az"/><use transform="matrix(0.01953125,0,0,0.01953125,25.1953125,0)" xlink:href="#aA"/><use transform="matrix(0.01953125,0,0,0.01953125,52.16796875,0)" xlink:href="#az"/></g><g id="j"><use transform="matrix(0.013020833333333334,0,0,0.013020833333333334,0,0)" xlink:href="#aK"/><use transform="matrix(0.013020833333333334,0,0,0.013020833333333334,16.2109375,0)" xlink:href="#aL"/></g><path d="M749-1490V0H444v-1221h-10L93-980v-279l329-231h327" id="aX"/><g id="k"><use transform="matrix(0.01953125,0,0,0.01953125,0,0)" xlink:href="#az"/><use transform="matrix(0.01953125,0,0,0.01953125,25.1953125,0)" xlink:href="#aA"/><use transform="matrix(0.01953125,0,0,0.01953125,52.16796875,0)" xlink:href="#aX"/></g><g id="l"><use transform="matrix(0.01953125,0,0,0.01953125,0,0)" xlink:href="#aU"/><use transform="matrix(0.01953125,0,0,0.01953125,26.26953125,0)" xlink:href="#aw"/><use transform="matrix(0.01953125,0,0,0.01953125,49.74609375,0)" xlink:href="#aV"/></g><path d="M49 0l509-1490h400L1480 0h-339l-115-346H497L386 0H49zm524-585h374c-75-213-124-402-192-666-66 268-110 453-182 666" id="aY"/><g id="m"><use transform="matrix(0.01953125,0,0,0.01953125,0,0)" xlink:href="#az"/><use transform="matrix(0.01953125,0,0,0.01953125,25.1953125,0)" xlink:href="#aY"/></g><path d="M101-265v-241l623-984h383v979h186v246h-186V0H814v-265H101zm719-246v-643h-12L409-523v12h411" id="aZ"/><g id="n"><use transform="matrix(0.01953125,0,0,0.01953125,0,0)" xlink:href="#az"/><use transform="matrix(0.01953125,0,0,0.01953125,25.1953125,0)" xlink:href="#aA"/><use transform="matrix(0.01953125,0,0,0.01953125,52.16796875,0)" xlink:href="#aZ"/></g><path d="M120-303v-155l652-1032h231v1020h202v167h-202V0H821v-303H120zm702-167v-782h-12L323-482v12h499" id="ba"/><g id="o"><use transform="matrix(0.013020833333333334,0,0,0.013020833333333334,0,0)" xlink:href="#ba"/><use transform="matrix(0.013020833333333334,0,0,0.013020833333333334,17.2265625,0)" xlink:href="#aL"/></g><path d="M795 20C377 20 94-272 94-743c0-483 302-767 694-767 335 0 593 206 635 500h-310c-42-142-154-229-320-229-230 0-389 177-389 493s154 495 393 495c212 0 340-120 345-311H818v-232h620v186c0 391-269 628-643 628" id="bb"/><path d="M659 0H135v-1490h529c448 0 721 280 721 744 0 466-273 746-726 746zM440-263h204c287 0 437-148 437-483 0-333-150-481-435-481H440v964" id="bc"/><path d="M135 0v-1490h997v253H440v360h640v249H440v375h694V0H135" id="bd"/><g id="p"><use transform="matrix(0.015190972222222224,0,0,0.015190972222222224,0,0)" xlink:href="#bb"/><use transform="matrix(0.015190972222222224,0,0,0.015190972222222224,23.348524305555557,0)" xlink:href="#aU"/><use transform="matrix(0.015190972222222224,0,0,0.015190972222222224,43.78038194444444,0)" xlink:href="#aY"/><use transform="matrix(0.015190972222222224,0,0,0.015190972222222224,67.00737847222223,0)" xlink:href="#bc"/><use transform="matrix(0.015190972222222224,0,0,0.015190972222222224,89.4748263888889,0)" xlink:href="#bd"/></g><g id="q"><use transform="matrix(0.015190972222222224,0,0,0.015190972222222224,0,0)" xlink:href="#aX"/><use transform="matrix(0.015190972222222224,0,0,0.015190972222222224,13.413628472222223,0)" xlink:href="#aX"/></g><path d="M818-733v240H140v-240h678" id="be"/><use transform="matrix(0.015190972222222224,0,0,0.015190972222222224,0,0)" xlink:href="#be" id="r"/><path d="M681 22C323 22 94-145 85-462h297c10 151 131 226 296 226 163 0 271-77 271-190 0-102-95-149-257-189l-164-41c-252-61-403-188-403-405 0-269 236-449 560-449 330 0 546 183 551 445H941c-11-119-106-188-259-188-156 0-244 72-244 172-3 156 226 185 373 221 250 61 445 186 445 436 0 271-213 446-575 446" id="bf"/><path d="M75-1237v-253h1217v253H837V0H531v-1237H75" id="bg"/><path d="M135 0v-1490h468l242 684c30 94 76 293 111 455 34-161 80-360 110-455l238-684h470V0h-307c0-447-3-765 11-1227-122 503-246 788-395 1227H826C676-435 552-717 427-1215c15 453 11 775 11 1215H135" id="bh"/><g id="s"><use transform="matrix(0.015190972222222224,0,0,0.015190972222222224,0,0)" xlink:href="#bf"/><use transform="matrix(0.015190972222222224,0,0,0.015190972222222224,20.371093750000004,0)" xlink:href="#bg"/><use transform="matrix(0.015190972222222224,0,0,0.015190972222222224,41.137152777777786,0)" xlink:href="#bd"/><use transform="matrix(0.015190972222222224,0,0,0.015190972222222224,60.03472222222223,0)" xlink:href="#bh"/></g><path d="M135 0v-1490h591c327 0 492 160 492 383 0 177-115 286-268 320v15c168 8 326 140 326 361 0 236-176 411-512 411H135zm305-251h264c179 0 258-76 258-189 0-125-97-215-250-215H440v404zm0-613h241c131 0 228-74 228-194 0-109-79-183-222-183H440v377" id="bi"/><use transform="matrix(0.015190972222222224,0,0,0.015190972222222224,0,0)" xlink:href="#bi" id="t"/><path d="M684 20C381 20 94-164 94-710c0-501 235-800 601-800 293 0 496 188 526 433H921c-25-105-108-170-226-170-197 0-301 182-301 476h10c67-130 211-208 374-208 263 0 459 201 459 481 0 301-224 518-553 518zm-2-242c147 0 258-116 258-268 0-150-108-266-256-266-146 0-259 121-259 267 0 147 109 267 257 267" id="bj"/><g id="u"><use transform="matrix(0.01953125,0,0,0.01953125,0,0)" xlink:href="#az"/><use transform="matrix(0.01953125,0,0,0.01953125,25.1953125,0)" xlink:href="#aA"/><use transform="matrix(0.01953125,0,0,0.01953125,52.16796875,0)" xlink:href="#bj"/></g><path d="M664 20c-306 0-529-183-535-438h297c6 117 110 196 238 196 149 0 255-108 255-266 0-159-108-270-261-270-89 0-178 39-224 98l-274-48 72-782h901v252H485l-39 377h8c53-72 165-124 294-124 269 0 467 204 467 490 0 300-224 515-551 515" id="bk"/><g id="v"><use transform="matrix(0.01953125,0,0,0.01953125,0,0)" xlink:href="#az"/><use transform="matrix(0.01953125,0,0,0.01953125,25.1953125,0)" xlink:href="#aA"/><use transform="matrix(0.01953125,0,0,0.01953125,52.16796875,0)" xlink:href="#bk"/></g><path d="M635 20c-292 0-500-160-510-396h192c11 142 145 229 315 229 187 0 323-105 323-260 0-161-125-274-346-274H488v-165h121c174 0 294-100 294-254 0-148-104-245-266-245-152 0-291 85-297 230H157c8-234 222-395 484-395 278 0 448 188 448 400 0 168-95 291-247 336v12c190 31 301 169 301 357 0 244-216 425-508 425" id="bl"/><g id="w"><use transform="matrix(0.013020833333333334,0,0,0.013020833333333334,0,0)" xlink:href="#bl"/><use transform="matrix(0.013020833333333334,0,0,0.013020833333333334,16.471354166666668,0)" xlink:href="#aK"/></g><g id="x"><use transform="matrix(0.015190972222222224,0,0,0.015190972222222224,0,0)" xlink:href="#aX"/><use transform="matrix(0.015190972222222224,0,0,0.015190972222222224,13.413628472222223,0)" xlink:href="#az"/></g><g id="y"><use transform="matrix(0.015190972222222224,0,0,0.015190972222222224,0,0)" xlink:href="#aY"/><use transform="matrix(0.015190972222222224,0,0,0.015190972222222224,23.22699652777778,0)" xlink:href="#bi"/><use transform="matrix(0.015190972222222224,0,0,0.015190972222222224,43.81076388888889,0)" xlink:href="#bh"/></g><g id="z"><use transform="matrix(0.015190972222222224,0,0,0.015190972222222224,0,0)" xlink:href="#bb"/><use transform="matrix(0.015190972222222224,0,0,0.015190972222222224,22.376302083333336,0)" xlink:href="#aY"/><use transform="matrix(0.015190972222222224,0,0,0.015190972222222224,45.13237847222223,0)" xlink:href="#bf"/></g><g id="A"><use transform="matrix(0.01953125,0,0,0.01953125,0,0)" xlink:href="#az"/><use transform="matrix(0.01953125,0,0,0.01953125,25.1953125,0)" xlink:href="#bi"/></g><path d="M659 20C335 20 103-159 99-418h307c5 112 113 185 254 185 147 0 250-83 250-204 0-123-105-209-278-209H494v-227h138c145 0 246-81 246-200 0-115-87-193-216-193-130 0-237 73-240 189H128c4-255 233-433 536-433 306 0 510 185 510 418 0 167-114 285-279 317v11c217 29 333 162 333 347 0 254-237 437-569 437" id="bm"/><g id="B"><use transform="matrix(0.01953125,0,0,0.01953125,0,0)" xlink:href="#az"/><use transform="matrix(0.01953125,0,0,0.01953125,25.1953125,0)" xlink:href="#aA"/><use transform="matrix(0.01953125,0,0,0.01953125,52.16796875,0)" xlink:href="#bm"/></g><path d="M763 24c-353 0-583-224-583-531v-983h190v968c0 214 149 370 393 370 243 0 391-156 391-370v-968h190v983c0 307-230 531-581 531" id="bn"/><g id="C"><use transform="matrix(0.008173828125000001,0,0,0.008173828125000001,0,0)" xlink:href="#bn"/><use transform="matrix(0.008173828125000001,0,0,0.008173828125000001,12.456914062500001,0)" xlink:href="#aE"/></g><path d="M786 20C389 20 94-260 94-744c0-487 299-766 692-766 339 0 597 194 641 529h-309c-28-162-156-258-326-258-233 0-388 179-388 495 0 323 157 493 387 493 170 0 298-97 328-259h309c-34 277-266 530-642 530" id="bo"/><g id="D"><use transform="matrix(0.013020833333333334,0,0,0.013020833333333334,0,0)" xlink:href="#bo"/><use transform="matrix(0.013020833333333334,0,0,0.013020833333333334,19.7265625,0)" xlink:href="#aU"/></g><g id="E"><use transform="matrix(0.01953125,0,0,0.01953125,0,0)" xlink:href="#bo"/><use transform="matrix(0.01953125,0,0,0.01953125,29.58984375,0)" xlink:href="#aW"/><use transform="matrix(0.01953125,0,0,0.01953125,60.41015625,0)" xlink:href="#bh"/><use transform="matrix(0.01953125,0,0,0.01953125,97.67578125,0)" xlink:href="#aV"/><use transform="matrix(0.01953125,0,0,0.01953125,120.29296875,0)" xlink:href="#aY"/><use transform="matrix(0.01953125,0,0,0.01953125,150.15625,0)" xlink:href="#bi"/></g><use transform="matrix(0.01953125,0,0,0.01953125,0,0)" xlink:href="#bo" id="F"/><g id="G"><use transform="matrix(0.06510416666666667,0,0,0.06510416666666667,0,0)" xlink:href="#bf"/><use transform="matrix(0.06510416666666667,0,0,0.06510416666666667,87.3046875,0)" xlink:href="#bd"/><use transform="matrix(0.06510416666666667,0,0,0.06510416666666667,168.29427083333334,0)" xlink:href="#bo"/><use transform="matrix(0.06510416666666667,0,0,0.06510416666666667,266.92708333333337,0)" xlink:href="#aW"/><use transform="matrix(0.06510416666666667,0,0,0.06510416666666667,369.66145833333337,0)" xlink:href="#ay"/><use transform="matrix(0.06510416666666667,0,0,0.06510416666666667,471.28906250000006,0)" xlink:href="#bc"/></g><g id="H"><use transform="matrix(0.06510416666666667,0,0,0.06510416666666667,0,0)" xlink:href="#aw"/><use transform="matrix(0.06510416666666667,0,0,0.06510416666666667,78.25520833333334,0)" xlink:href="#aV"/><use transform="matrix(0.06510416666666667,0,0,0.06510416666666667,149.86979166666669,0)" xlink:href="#aW"/><use transform="matrix(0.06510416666666667,0,0,0.06510416666666667,252.60416666666669,0)" xlink:href="#aW"/><use transform="matrix(0.06510416666666667,0,0,0.06510416666666667,355.3385416666667,0)" xlink:href="#aU"/></g><g id="I"><use transform="matrix(0.0390625,0,0,0.0390625,0,0)" xlink:href="#aw"/><use transform="matrix(0.0390625,0,0,0.0390625,41.5234375,0)" xlink:href="#ax"/><use transform="matrix(0.0390625,0,0,0.0390625,88.28125,0)" xlink:href="#ay"/></g><path d="M750 21c-371 0-615-218-615-544v-967h305v942c0 174 123 299 310 299s309-125 309-299v-942h306v967c0 326-247 544-615 544" id="bp"/><path d="M440-1490V0H135v-1490h305" id="bq"/><g id="J"><use transform="matrix(0.0390625,0,0,0.0390625,0,0)" xlink:href="#bi"/><use transform="matrix(0.0390625,0,0,0.0390625,52.9296875,0)" xlink:href="#bp"/><use transform="matrix(0.0390625,0,0,0.0390625,111.484375,0)" xlink:href="#bq"/><use transform="matrix(0.0390625,0,0,0.0390625,133.9453125,0)" xlink:href="#aV"/><use transform="matrix(0.0390625,0,0,0.0390625,179.1796875,0)" xlink:href="#bc"/><use transform="matrix(0.0390625,0,0,0.0390625,236.953125,0)" xlink:href="#bq"/><use transform="matrix(0.0390625,0,0,0.0390625,259.4140625,0)" xlink:href="#ay"/><use transform="matrix(0.0390625,0,0,0.0390625,320.390625,0)" xlink:href="#bb"/></g><path d="M180 0v-1490h190v644h782v-644h190V0h-190v-678H370V0H180" id="br"/><path d="M180 0v-1490h908v168H370v486h669v168H370v500h727V0H180" id="bs"/><path d="M645 0H180v-1490h484c435 0 692 280 692 742 0 466-257 748-711 748zM370-168h263c363 0 539-218 539-580 0-358-176-574-521-574H370v1154" id="bt"/><g id="K"><use transform="matrix(0.026041666666666668,0,0,0.026041666666666668,0,0)" xlink:href="#br"/><use transform="matrix(0.026041666666666668,0,0,0.026041666666666668,39.63541666666667,0)" xlink:href="#bs"/><use transform="matrix(0.026041666666666668,0,0,0.026041666666666668,71.69270833333334,0)" xlink:href="#bt"/></g><path d="M338-1490V0H158v-1490h180" id="bu"/><path d="M538 24C308 24 148-78 108-271l171-41c32 123 123 178 257 178 156 0 256-77 256-169 0-77-54-128-164-154l-186-44c-203-48-300-148-300-305 0-192 176-326 414-326 230 0 351 112 402 269l-163 42c-31-80-94-158-238-158-133 0-233 69-233 162 0 83 57 129 188 160l169 40c203 48 298 149 298 302 0 196-179 339-441 339" id="bv"/><path d="M158 0v-1118h174v172h12c41-113 157-188 290-188 26 0 70 2 91 3v181c-11-2-60-10-108-10-161 0-279 109-279 260V0H158" id="bw"/><path d="M613 24c-304 0-509-231-509-576 0-350 205-580 509-580 305 0 511 230 511 580 0 345-206 576-511 576zm0-161c226 0 329-195 329-415 0-222-103-419-329-419-223 0-326 196-326 419 0 220 103 415 326 415" id="bx"/><path d="M158 0v-1118h175l1 205c55-151 181-225 313-225 147 0 245 90 285 228 53-141 190-228 352-228 194 0 352 125 352 384V0h-181v-749c0-161-105-225-225-225-151 0-243 103-243 244V0H807v-767c0-124-93-207-219-207-131 0-250 92-250 270V0H158" id="by"/><g id="L"><use transform="matrix(0.026041666666666668,0,0,0.026041666666666668,0,0)" xlink:href="#aC"/><use transform="matrix(0.026041666666666668,0,0,0.026041666666666668,38.958333333333336,0)" xlink:href="#bu"/><use transform="matrix(0.026041666666666668,0,0,0.026041666666666668,51.875,0)" xlink:href="#aD"/><use transform="matrix(0.026041666666666668,0,0,0.026041666666666668,81.82291666666667,0)" xlink:href="#bv"/><use transform="matrix(0.026041666666666668,0,0,0.026041666666666668,109.97395833333334,0)" xlink:href="#bv"/><use transform="matrix(0.026041666666666668,0,0,0.026041666666666668,138.125,0)" xlink:href="#bw"/><use transform="matrix(0.026041666666666668,0,0,0.026041666666666668,157.31770833333334,0)" xlink:href="#bx"/><use transform="matrix(0.026041666666666668,0,0,0.026041666666666668,189.296875,0)" xlink:href="#bx"/><use transform="matrix(0.026041666666666668,0,0,0.026041666666666668,221.27604166666669,0)" xlink:href="#by"/><use transform="matrix(0.026041666666666668,0,0,0.026041666666666668,267.99479166666663,0)" xlink:href="#bv"/></g><path d="M342-723c-98 0-173-75-173-172s75-172 173-172 173 75 173 172-75 172-173 172zm0 742c-98 0-173-75-173-172s75-172 173-172 173 75 173 172S440 19 342 19" id="bz"/><g id="M"><use transform="matrix(0.026041666666666668,0,0,0.026041666666666668,0,0)" xlink:href="#aV"/><use transform="matrix(0.026041666666666668,0,0,0.026041666666666668,30.15625,0)" xlink:href="#bd"/><use transform="matrix(0.026041666666666668,0,0,0.026041666666666668,62.552083333333336,0)" xlink:href="#bb"/><use transform="matrix(0.026041666666666668,0,0,0.026041666666666668,102.578125,0)" xlink:href="#bd"/><use transform="matrix(0.026041666666666668,0,0,0.026041666666666668,134.97395833333334,0)" xlink:href="#ay"/><use transform="matrix(0.026041666666666668,0,0,0.026041666666666668,175.625,0)" xlink:href="#bc"/><use transform="matrix(0.026041666666666668,0,0,0.026041666666666668,214.140625,0)" xlink:href="#bz"/></g><path d="M180 0v-1490h528c311 0 458 177 458 395 0 191-114 278-244 313v14c139 9 302 137 302 371 0 225-148 397-499 397H180zm190-168h350c232 0 321-102 321-231 0-149-120-277-311-277H370v508zm0-668h328c160 0 286-101 286-255 0-129-87-231-280-231H370v486" id="bA"/><g id="N"><use transform="matrix(0.026041666666666668,0,0,0.026041666666666668,0,0)" xlink:href="#bA"/><use transform="matrix(0.026041666666666668,0,0,0.026041666666666668,34.895833333333336,0)" xlink:href="#bs"/><use transform="matrix(0.026041666666666668,0,0,0.026041666666666668,66.953125,0)" xlink:href="#bt"/></g><path d="M135 0v-1490h581c339 0 533 210 533 503 0 295-197 500-540 500H440V0H135zm305-733h220c186 0 274-104 274-254s-88-251-275-251H440v505" id="bB"/><g id="O"><use transform="matrix(0.013020833333333334,0,0,0.013020833333333334,0,0)" xlink:href="#ay"/><use transform="matrix(0.013020833333333334,0,0,0.013020833333333334,20.325520833333336,0)" xlink:href="#bf"/><use transform="matrix(0.013020833333333334,0,0,0.013020833333333334,37.786458333333336,0)" xlink:href="#bg"/><use transform="matrix(0.013020833333333334,0,0,0.013020833333333334,55.5859375,0)" xlink:href="#bB"/></g><g id="P"><use transform="matrix(0.013020833333333334,0,0,0.013020833333333334,0,0)" xlink:href="#aW"/><use transform="matrix(0.013020833333333334,0,0,0.013020833333333334,20.546875,0)" xlink:href="#aw"/><use transform="matrix(0.013020833333333334,0,0,0.013020833333333334,36.19791666666667,0)" xlink:href="#aw"/><use transform="matrix(0.013020833333333334,0,0,0.013020833333333334,51.84895833333334,0)" xlink:href="#bq"/><use transform="matrix(0.013020833333333334,0,0,0.013020833333333334,59.3359375,0)" xlink:href="#bo"/><use transform="matrix(0.013020833333333334,0,0,0.013020833333333334,79.0625,0)" xlink:href="#bd"/></g><g id="Q"><use transform="matrix(0.013020833333333334,0,0,0.013020833333333334,0,0)" xlink:href="#bf"/><use transform="matrix(0.013020833333333334,0,0,0.013020833333333334,17.4609375,0)" xlink:href="#bg"/><use transform="matrix(0.013020833333333334,0,0,0.013020833333333334,35.26041666666667,0)" xlink:href="#bp"/><use transform="matrix(0.013020833333333334,0,0,0.013020833333333334,54.77864583333335,0)" xlink:href="#bc"/><use transform="matrix(0.013020833333333334,0,0,0.013020833333333334,74.03645833333334,0)" xlink:href="#bd"/><use transform="matrix(0.013020833333333334,0,0,0.013020833333333334,90.23437500000001,0)" xlink:href="#ay"/><use transform="matrix(0.013020833333333334,0,0,0.013020833333333334,110.55989583333334,0)" xlink:href="#bg"/></g><g id="R"><use transform="matrix(0.013020833333333334,0,0,0.013020833333333334,0,0)" xlink:href="#aW"/><use transform="matrix(0.013020833333333334,0,0,0.013020833333333334,20.546875,0)" xlink:href="#aU"/><use transform="matrix(0.013020833333333334,0,0,0.013020833333333334,38.059895833333336,0)" xlink:href="#bb"/></g><path d="M571 0L49-1490h339c138 427 271 775 384 1244 111-471 237-815 371-1244h337L970 0H571" id="bC"/><g id="S"><use transform="matrix(0.01953125,0,0,0.01953125,0,0)" xlink:href="#aY"/><use transform="matrix(0.01953125,0,0,0.01953125,26.69921875,0)" xlink:href="#bC"/><use transform="matrix(0.01953125,0,0,0.01953125,56.5625,0)" xlink:href="#aU"/></g><use transform="matrix(0.01953125,0,0,0.01953125,0,0)" xlink:href="#az" id="T"/><path d="M653-1490V0H466v-1314h-10L96-1047v-204l324-239h233" id="bD"/><g id="U"><use transform="matrix(0.013020833333333334,0,0,0.013020833333333334,0,0)" xlink:href="#bD"/><use transform="matrix(0.013020833333333334,0,0,0.013020833333333334,10.846354166666668,0)" xlink:href="#aK"/><use transform="matrix(0.013020833333333334,0,0,0.013020833333333334,27.057291666666668,0)" xlink:href="#aL"/></g><path d="M52 0l541-1490h220L1361 0h-200l-149-416H398L254 0H52zm404-582h497c-103-290-145-390-251-756-108 377-145 460-246 756" id="bE"/><path d="M600 0L52-1490h200c166 485 304 806 458 1336 156-533 285-846 449-1336h202L819 0H600" id="bF"/><path d="M180 0v-1490h510c348 0 508 194 508 460 0 198-88 351-276 417L1256 0h-220L726-579c-117 2-238 0-356 1V0H180zm190-747h312c235 0 327-108 327-283 0-177-92-293-329-293H370v576" id="bG"/><g id="V"><use transform="matrix(0.026041666666666668,0,0,0.026041666666666668,0,0)" xlink:href="#bE"/><use transform="matrix(0.026041666666666668,0,0,0.026041666666666668,33.151041666666664,0)" xlink:href="#bF"/><use transform="matrix(0.026041666666666668,0,0,0.026041666666666668,69.94791666666666,0)" xlink:href="#bG"/></g><use transform="matrix(0.01953125,0,0,0.01953125,0,0)" xlink:href="#bi" id="W"/><use transform="matrix(0.01953125,0,0,0.01953125,0,0)" xlink:href="#aY" id="X"/><g id="Y"><use transform="matrix(0.013020833333333334,0,0,0.013020833333333334,0,0)" xlink:href="#bd"/><use transform="matrix(0.013020833333333334,0,0,0.013020833333333334,16.197916666666668,0)" xlink:href="#bC"/><use transform="matrix(0.013020833333333334,0,0,0.013020833333333334,36.106770833333336,0)" xlink:href="#bB"/></g><use transform="matrix(0.013020833333333334,0,0,0.013020833333333334,0,0)" xlink:href="#be" id="Z"/><path d="M42 0l360-574-338-544h324c72 124 151 261 209 394 58-134 140-271 215-394h318L785-570 1146 0H824c-79-136-169-280-234-425C528-278 439-134 360 0H42" id="bH"/><path d="M683-1118v229H474v562c0 71 29 104 102 104 23 0 73-7 95-13l43 225C647 9 580 16 520 16 296 16 174-96 174-301v-588H20v-229h154v-266h300v266h209" id="bI"/><path d="M633 22C291 22 81-200 81-553c0-345 210-579 537-579 292 0 525 185 525 567v84H378c7 183 109 277 260 277 105 0 184-46 216-132l272 51C1071-99 893 22 633 22zM380-669h474c-15-146-94-237-233-237-143 0-229 99-241 237" id="bJ"/><path d="M128 0v-1118h290v195h12c54-169 184-238 367-200v268c-27-8-86-15-130-15-138 0-239 95-239 234V0H128" id="bK"/><path d="M428-647V0H128v-1118h283l4 231c63-156 176-245 348-245 232 0 384 159 384 421V0H847v-659c0-139-76-222-202-222-128 0-217 86-217 234" id="bL"/><path d="M440 22C227 22 68-92 68-313c0-250 202-322 422-343 195-21 271-24 271-105 0-95-63-149-175-149-116 0-187 57-211 129l-275-46c57-194 237-305 487-305 240 0 474 108 474 379V0H777v-155h-10C713-51 605 22 440 22zm85-211c140 0 238-93 238-211v-121c-37 26-156 42-222 51-111 16-185 59-185 149 0 87 70 132 169 132" id="bM"/><path d="M428-1490V0H128v-1490h300" id="bN"/><g id="aa"><use transform="matrix(0.013020833333333334,0,0,0.013020833333333334,0,0)" xlink:href="#bd"/><use transform="matrix(0.013020833333333334,0,0,0.013020833333333334,16.197916666666668,0)" xlink:href="#bH"/><use transform="matrix(0.013020833333333334,0,0,0.013020833333333334,32.044270833333336,0)" xlink:href="#bI"/><use transform="matrix(0.013020833333333334,0,0,0.013020833333333334,41.54947916666667,0)" xlink:href="#bJ"/><use transform="matrix(0.013020833333333334,0,0,0.013020833333333334,57.43489583333335,0)" xlink:href="#bK"/><use transform="matrix(0.013020833333333334,0,0,0.013020833333333334,68.48958333333334,0)" xlink:href="#bL"/><use transform="matrix(0.013020833333333334,0,0,0.013020833333333334,85.09114583333334,0)" xlink:href="#bM"/><use transform="matrix(0.013020833333333334,0,0,0.013020833333333334,100.57291666666667,0)" xlink:href="#bN"/></g><path d="M750-1118v229H516V0H217v-889H20v-229h197v-86c0-238 156-356 363-356 94 0 178 20 215 31l-54 226c-25-7-61-15-100-15-123-3-131 84-125 200h234" id="bO"/><path d="M128 0v-1118h300V0H128zm150-1264c-91 0-165-68-165-154 0-85 74-154 165-154 90 0 165 69 165 154 0 86-75 154-165 154" id="bP"/><path d="M572 22C302 22 117-98 78-306l279-48c29 105 101 156 224 156 114 0 185-48 185-115 0-118-228-130-337-155-215-49-322-150-322-317 0-215 187-347 470-347 265 0 424 116 466 298l-266 47c-24-76-87-130-196-130-98 0-174 46-174 113 0 56 38 95 144 117l201 40c216 44 320 143 320 302 0 220-207 367-500 367" id="bQ"/><g id="ab"><use transform="matrix(0.013020833333333334,0,0,0.013020833333333334,0,0)" xlink:href="#aY"/><use transform="matrix(0.013020833333333334,0,0,0.013020833333333334,19.674479166666668,0)" xlink:href="#bO"/><use transform="matrix(0.013020833333333334,0,0,0.013020833333333334,29.1796875,0)" xlink:href="#bO"/><use transform="matrix(0.013020833333333334,0,0,0.013020833333333334,39.27083333333334,0)" xlink:href="#bM"/><use transform="matrix(0.013020833333333334,0,0,0.013020833333333334,54.75260416666668,0)" xlink:href="#bP"/><use transform="matrix(0.013020833333333334,0,0,0.013020833333333334,61.97916666666668,0)" xlink:href="#bK"/><use transform="matrix(0.013020833333333334,0,0,0.013020833333333334,72.83854166666669,0)" xlink:href="#bQ"/></g><path d="M628 22C291 22 81-210 81-554c0-346 210-578 547-578 265 0 455 142 497 372l-279 52c-25-116-99-188-215-188-160 0-244 139-244 341 0 200 84 341 244 341 116 0 193-74 217-195l279 51C1085-123 896 22 628 22" id="bR"/><g id="ac"><use transform="matrix(0.013020833333333334,0,0,0.013020833333333334,0,0)" xlink:href="#aW"/><use transform="matrix(0.013020833333333334,0,0,0.013020833333333334,20.546875,0)" xlink:href="#bO"/><use transform="matrix(0.013020833333333334,0,0,0.013020833333333334,30.052083333333336,0)" xlink:href="#bO"/><use transform="matrix(0.013020833333333334,0,0,0.013020833333333334,40.88541666666667,0)" xlink:href="#bP"/><use transform="matrix(0.013020833333333334,0,0,0.013020833333333334,48.11197916666667,0)" xlink:href="#bR"/><use transform="matrix(0.013020833333333334,0,0,0.013020833333333334,63.80208333333335,0)" xlink:href="#bJ"/></g><g id="ad"><use transform="matrix(0.0390625,0,0,0.0390625,0,0)" xlink:href="#aU"/><use transform="matrix(0.0390625,0,0,0.0390625,52.5390625,0)" xlink:href="#aV"/><use transform="matrix(0.0390625,0,0,0.0390625,95.5078125,0)" xlink:href="#aW"/></g><g id="ae"><use transform="matrix(0.0390625,0,0,0.0390625,0,0)" xlink:href="#aU"/><use transform="matrix(0.0390625,0,0,0.0390625,52.5390625,0)" xlink:href="#aw"/><use transform="matrix(0.0390625,0,0,0.0390625,99.4921875,0)" xlink:href="#aV"/></g><use transform="matrix(0.013020833333333334,0,0,0.013020833333333334,0,0)" xlink:href="#be" id="af"/><path d="M601 0v-560L49-1490h357l252 464c38 68 67 130 97 208 96-243 225-446 337-672h356L905-560V0H601" id="bS"/><g id="ag"><use transform="matrix(0.013020833333333334,0,0,0.013020833333333334,0,0)" xlink:href="#aV"/><use transform="matrix(0.013020833333333334,0,0,0.013020833333333334,15.078125,0)" xlink:href="#bq"/><use transform="matrix(0.013020833333333334,0,0,0.013020833333333334,22.565104166666668,0)" xlink:href="#bi"/><use transform="matrix(0.013020833333333334,0,0,0.013020833333333334,40.208333333333336,0)" xlink:href="#aU"/><use transform="matrix(0.013020833333333334,0,0,0.013020833333333334,57.72135416666667,0)" xlink:href="#aY"/><use transform="matrix(0.013020833333333334,0,0,0.013020833333333334,77.63020833333334,0)" xlink:href="#aU"/><use transform="matrix(0.013020833333333334,0,0,0.013020833333333334,94.36197916666669,0)" xlink:href="#bS"/></g><path d="M657 26c-323 0-524-166-541-416h195c15 169 171 246 346 246 202 0 356-106 356-265 5-203-294-238-475-293-239-73-380-191-380-389 0-252 224-419 512-419 294 0 499 171 508 396H992c-17-145-151-228-328-228-193 0-321 102-321 242 0 156 175 211 284 241l149 41c160 44 422 134 422 412 0 244-197 432-541 432" id="bT"/><path d="M180 0v-1490h190c0 262 1 526-3 784 217-279 467-523 702-784h249L716-845 1319 0h-225L585-716 370-489V0H180" id="bU"/><g id="ah"><use transform="matrix(0.01953125,0,0,0.01953125,0,0)" xlink:href="#bA"/><use transform="matrix(0.01953125,0,0,0.01953125,26.171875,0)" xlink:href="#bE"/><use transform="matrix(0.01953125,0,0,0.01953125,53.76953125,0)" xlink:href="#bT"/><use transform="matrix(0.01953125,0,0,0.01953125,79.43359375,0)" xlink:href="#bU"/><use transform="matrix(0.01953125,0,0,0.01953125,106.30859375,0)" xlink:href="#bs"/><use transform="matrix(0.01953125,0,0,0.01953125,130.3515625,0)" xlink:href="#aO"/><use transform="matrix(0.01953125,0,0,0.01953125,156.171875,0)" xlink:href="#bA"/><use transform="matrix(0.01953125,0,0,0.01953125,182.34375,0)" xlink:href="#bE"/><use transform="matrix(0.01953125,0,0,0.01953125,209.94140625,0)" xlink:href="#aR"/><use transform="matrix(0.01953125,0,0,0.01953125,232.55859375,0)" xlink:href="#aR"/></g><g id="ai"><use transform="matrix(0.01953125,0,0,0.01953125,0,0)" xlink:href="#aC"/><use transform="matrix(0.01953125,0,0,0.01953125,29.21875,0)" xlink:href="#aP"/><use transform="matrix(0.01953125,0,0,0.01953125,59.8046875,0)" xlink:href="#bn"/><use transform="matrix(0.01953125,0,0,0.01953125,89.5703125,0)" xlink:href="#bG"/><use transform="matrix(0.01953125,0,0,0.01953125,115.3125,0)" xlink:href="#aO"/></g><g id="aj"><use transform="matrix(0.01953125,0,0,0.01953125,0,0)" xlink:href="#bF"/><use transform="matrix(0.01953125,0,0,0.01953125,26.25,0)" xlink:href="#aP"/><use transform="matrix(0.01953125,0,0,0.01953125,56.8359375,0)" xlink:href="#aR"/><use transform="matrix(0.01953125,0,0,0.01953125,79.453125,0)" xlink:href="#aR"/><use transform="matrix(0.01953125,0,0,0.01953125,102.0703125,0)" xlink:href="#bs"/><use transform="matrix(0.01953125,0,0,0.01953125,126.11328125,0)" xlink:href="#aS"/><use transform="matrix(0.01953125,0,0,0.01953125,153.26171875,0)" xlink:href="#bA"/><use transform="matrix(0.01953125,0,0,0.01953125,179.43359375,0)" xlink:href="#bE"/><use transform="matrix(0.01953125,0,0,0.01953125,207.03125,0)" xlink:href="#aR"/><use transform="matrix(0.01953125,0,0,0.01953125,229.6484375,0)" xlink:href="#aR"/></g><path d="M135 0v-1490h305c1 251 0 501-5 746 157-254 405-512 598-746h373L849-845 1422 0h-361L638-644 440-426V0H135" id="bV"/><g id="ak"><use transform="matrix(0.01953125,0,0,0.01953125,0,0)" xlink:href="#bf"/><use transform="matrix(0.01953125,0,0,0.01953125,26.19140625,0)" xlink:href="#bg"/><use transform="matrix(0.01953125,0,0,0.01953125,51.62109375,0)" xlink:href="#aW"/><use transform="matrix(0.01953125,0,0,0.01953125,82.44140625,0)" xlink:href="#bo"/><use transform="matrix(0.01953125,0,0,0.01953125,112.03125,0)" xlink:href="#bV"/></g><g id="al"><use transform="matrix(0.01953125,0,0,0.01953125,0,0)" xlink:href="#aU"/><use transform="matrix(0.01953125,0,0,0.01953125,26.26953125,0)" xlink:href="#aW"/><use transform="matrix(0.01953125,0,0,0.01953125,57.08984375,0)" xlink:href="#aW"/><use transform="matrix(0.01953125,0,0,0.01953125,87.91015625,0)" xlink:href="#bh"/></g><g id="am"><use transform="matrix(0.01953125,0,0,0.01953125,0,0)" xlink:href="#bh"/><use transform="matrix(0.01953125,0,0,0.01953125,37.265625,0)" xlink:href="#bq"/><use transform="matrix(0.01953125,0,0,0.01953125,48.49609375,0)" xlink:href="#bf"/></g><g id="an"><use transform="matrix(0.01953125,0,0,0.01953125,0,0)" xlink:href="#aW"/><use transform="matrix(0.01953125,0,0,0.01953125,30.8203125,0)" xlink:href="#aw"/><use transform="matrix(0.01953125,0,0,0.01953125,54.296875,0)" xlink:href="#aw"/><use transform="matrix(0.01953125,0,0,0.01953125,77.7734375,0)" xlink:href="#bq"/><use transform="matrix(0.01953125,0,0,0.01953125,89.00390625,0)" xlink:href="#bo"/><use transform="matrix(0.01953125,0,0,0.01953125,118.59375,0)" xlink:href="#bd"/></g><g id="ao"><use transform="matrix(0.01953125,0,0,0.01953125,0,0)" xlink:href="#aw"/><use transform="matrix(0.01953125,0,0,0.01953125,19.84375,0)" xlink:href="#aY"/><use transform="matrix(0.01953125,0,0,0.01953125,48.02734375,0)" xlink:href="#bo"/><use transform="matrix(0.01953125,0,0,0.01953125,77.6171875,0)" xlink:href="#bp"/><use transform="matrix(0.01953125,0,0,0.01953125,106.89453125,0)" xlink:href="#aV"/><use transform="matrix(0.01953125,0,0,0.01953125,125.87890625,0)" xlink:href="#bg"/><use transform="matrix(0.01953125,0,0,0.01953125,152.9296875,0)" xlink:href="#bS"/></g><g id="ap"><use transform="matrix(0.01953125,0,0,0.01953125,0,0)" xlink:href="#aV"/><use transform="matrix(0.01953125,0,0,0.01953125,21.484375,0)" xlink:href="#aW"/><use transform="matrix(0.01953125,0,0,0.01953125,52.3046875,0)" xlink:href="#bp"/><use transform="matrix(0.01953125,0,0,0.01953125,81.58203125,0)" xlink:href="#ay"/><use transform="matrix(0.01953125,0,0,0.01953125,112.0703125,0)" xlink:href="#bb"/><use transform="matrix(0.01953125,0,0,0.01953125,142.08984375,0)" xlink:href="#bd"/></g><g id="aq"><use transform="matrix(0.013020833333333334,0,0,0.013020833333333334,0,0)" xlink:href="#bf"/><use transform="matrix(0.013020833333333334,0,0,0.013020833333333334,17.4609375,0)" xlink:href="#bd"/><use transform="matrix(0.013020833333333334,0,0,0.013020833333333334,33.65885416666667,0)" xlink:href="#aU"/><use transform="matrix(0.013020833333333334,0,0,0.013020833333333334,50.65104166666667,0)" xlink:href="#bC"/><use transform="matrix(0.013020833333333334,0,0,0.013020833333333334,70.55989583333334,0)" xlink:href="#bd"/><use transform="matrix(0.013020833333333334,0,0,0.013020833333333334,86.75781250000001,0)" xlink:href="#aU"/></g><g id="ar"><use transform="matrix(0.013020833333333334,0,0,0.013020833333333334,0,0)" xlink:href="#aU"/><use transform="matrix(0.013020833333333334,0,0,0.013020833333333334,17.513020833333336,0)" xlink:href="#aW"/><use transform="matrix(0.013020833333333334,0,0,0.013020833333333334,38.059895833333336,0)" xlink:href="#aW"/><use transform="matrix(0.013020833333333334,0,0,0.013020833333333334,58.606770833333336,0)" xlink:href="#bh"/></g><g id="as"><use transform="matrix(0.010850694444444444,0,0,0.010850694444444444,0,0)" xlink:href="#aY"/><use transform="matrix(0.010850694444444444,0,0,0.010850694444444444,15.657552083333332,0)" xlink:href="#bo"/></g><g id="at"><use transform="matrix(0.01953125,0,0,0.01953125,0,0)" xlink:href="#bq"/><use transform="matrix(0.01953125,0,0,0.01953125,11.23046875,0)" xlink:href="#bc"/></g><g id="au"><use transform="matrix(0.01953125,0,0,0.01953125,0,0)" xlink:href="#aU"/><use transform="matrix(0.01953125,0,0,0.01953125,26.26953125,0)" xlink:href="#aW"/><use transform="matrix(0.01953125,0,0,0.01953125,57.08984375,0)" xlink:href="#aW"/><use transform="matrix(0.01953125,0,0,0.01953125,87.91015625,0)" xlink:href="#bh"/></g><g id="av"><use transform="matrix(0.01953125,0,0,0.01953125,0,0)" xlink:href="#bf"/><use transform="matrix(0.01953125,0,0,0.01953125,26.19140625,0)" xlink:href="#bg"/><use transform="matrix(0.01953125,0,0,0.01953125,51.62109375,0)" xlink:href="#aW"/><use transform="matrix(0.01953125,0,0,0.01953125,82.44140625,0)" xlink:href="#bo"/><use transform="matrix(0.01953125,0,0,0.01953125,112.03125,0)" xlink:href="#bV"/></g></defs></g></svg>