<svg xmlns="http://www.w3.org/2000/svg" xmlns:xlink="http://www.w3.org/1999/xlink" xmlns:lucid="lucid" viewBox="0 0 4500 4500"><g transform="translate(0 1500)" lucid:page-tab-id="0_0"><path d="M2940 626.8a6 6 0 0 1 6-6h508a6 6 0 0 1 6 6v2439.7a6 6 0 0 1-6 6h-508a6 6 0 0 1-6-6z" stroke="#000" stroke-opacity="0" stroke-width="2" fill="#f8f8f8"/><path d="M3085 2819.74a6 6 0 0 1 6-6h350.5a6 6 0 0 1 6 6V3054a6 6 0 0 1-6 6H3091a6 6 0 0 1-6-6z" stroke="#000" stroke-opacity="0" stroke-width="2" fill="#e3fae3"/><use xlink:href="#a" transform="matrix(1,0,0,1,3090.0024075687793,2818.742869455005) translate(108.228515625 112.8125)"/><use xlink:href="#b" transform="matrix(1,0,0,1,3090.0024075687793,2818.742869455005) translate(190.064453125 112.8125)"/><use xlink:href="#c" transform="matrix(1,0,0,1,3090.0024075687793,2818.742869455005) translate(96.421875 157.97395833333334)"/><use xlink:href="#d" transform="matrix(1,0,0,1,3090.0024075687793,2818.742869455005) translate(223.54427083333331 157.97395833333334)"/><path d="M3085 2566a6 6 0 0 1 6-6h350.5a6 6 0 0 1 6 6v241.74a6 6 0 0 1-6 6H3091a6 6 0 0 1-6-6z" stroke="#000" stroke-opacity="0" stroke-width="2" fill="#e3fae3"/><use xlink:href="#a" transform="matrix(1,0,0,1,3089.997605918467,2565) translate(107.876953125 115)"/><use xlink:href="#e" transform="matrix(1,0,0,1,3089.997605918467,2565) translate(189.712890625 115)"/><use xlink:href="#c" transform="matrix(1,0,0,1,3089.997605918467,2565) translate(96.421875 160.16145833333334)"/><use xlink:href="#d" transform="matrix(1,0,0,1,3089.997605918467,2565) translate(223.54427083333331 160.16145833333334)"/><path d="M3536.24 666a6 6 0 0 1 6-6h863.02a6 6 0 0 1 6 6v585.96a6 6 0 0 1-6 6h-863.02a6 6 0 0 1-6-6z" stroke="#000" stroke-opacity="0" stroke-width="2" fill="#f8f8f8"/><path d="M3927.5 758.5a6 6 0 0 1 6-6h459.26a6 6 0 0 1 6 6V1234a6 6 0 0 1-6 6H3933.5a6 6 0 0 1-6-6z" stroke="#000" stroke-opacity="0" stroke-width="2" fill="#e3fae3"/><path d="M60 78.5a6 6 0 0 1 6-6h2835.5a6 6 0 0 1 6 6V599a6 6 0 0 1-6 6H66a6 6 0 0 1-6-6z" stroke="#000" stroke-opacity="0" stroke-width="2" fill="#f8f8f8"/><path d="M1269.57 115.98a6.82 6.82 0 0 1 6.42-6.32l163-9.32L2020 65l-.94 114.18a.4.4 0 0 1-.06.82h-748a5.6 5.6 0 0 1-5.57-6z" stroke="#000" stroke-opacity="0" stroke-width="2" fill="#fcfcca"/><path d="M2278.54-1234a6 6 0 0 1 6-6H3441.5a6 6 0 0 1 6 6V73.38a6 6 0 0 1-6 6H2284.54a6 6 0 0 1-6-6z" stroke="#000" stroke-opacity="0" stroke-width="2" fill="#f8f8f8"/><path d="M2594.1-1229.07a7.17 7.17 0 0 1 6.9-6.1l98-2.83a263.5 263.5 0 0 1 12-.07l178 2.97a6.14 6.14 0 0 1 6.04 6.1l2.42 389.92a5.93 5.93 0 0 1-5.96 5.97l-350.5-1.87a5.2 5.2 0 0 1-5.1-5.96z" stroke="#000" stroke-opacity="0" stroke-width="2" fill="#e3fae3"/><use xlink:href="#f" transform="matrix(1,0,0,1,2535,-1238.1726304093709) translate(100.064453125 196.578125)"/><use xlink:href="#g" transform="matrix(1,0,0,1,2535,-1238.1726304093709) translate(184.166015625 196.578125)"/><use xlink:href="#c" transform="matrix(1,0,0,1,2535,-1238.1726304093709) translate(101.421875 241.73958333333334)"/><use xlink:href="#d" transform="matrix(1,0,0,1,2535,-1238.1726304093709) translate(228.54427083333331 241.73958333333334)"/><path d="M2534.05-814.08A7.04 7.04 0 0 1 2541-820l160.5-.1 193.5.1 2.43 399.58A3.8 3.8 0 0 1 2894-415h-418a5.1 5.1 0 0 1-5.05-5.92z" stroke="#000" stroke-opacity="0" stroke-width="2" fill="#fcfcca"/><use xlink:href="#f" transform="matrix(1,0,0,1,2470,-820.0952608187418) translate(133.53515625 155.17057291666669)"/><use xlink:href="#h" transform="matrix(1,0,0,1,2470,-820.0952608187418) translate(217.63671875 155.17057291666669)"/><use xlink:href="#c" transform="matrix(1,0,0,1,2470,-820.0952608187418) translate(134.921875 200.33203125000003)"/><use xlink:href="#i" transform="matrix(1,0,0,1,2470,-820.0952608187418) translate(262.0442708333333 200.33203125000003)"/><use xlink:href="#j" transform="matrix(1,0,0,1,2470,-820.0952608187418) translate(215 239.05078125000003)"/><use xlink:href="#k" transform="matrix(1,0,0,1,2470,-820.0952608187418) translate(81.02322048611111 282.0750868055556)"/><use xlink:href="#l" transform="matrix(1,0,0,1,2470,-820.0952608187418) translate(196.76323784722223 282.0750868055556)"/><use xlink:href="#m" transform="matrix(1,0,0,1,2470,-820.0952608187418) translate(230.95811631944446 282.0750868055556)"/><use xlink:href="#n" transform="matrix(1,0,0,1,2470,-820.0952608187418) translate(252.87868923611111 282.0750868055556)"/><use xlink:href="#o" transform="matrix(1,0,0,1,2470,-820.0952608187418) translate(325.7497829861111 282.0750868055556)"/><path d="M3073.13-814.1a6 6 0 0 1 6-6H3429a6 6 0 0 1 6 6v388.2a6 6 0 0 1-6 6h-349.88a6 6 0 0 1-6-6z" stroke="#000" stroke-opacity="0" stroke-width="2" fill="#fcfcca"/><use xlink:href="#f" transform="matrix(1,0,0,1,3078.125,-815.0952608187418) translate(103.79296875 148.71875)"/><use xlink:href="#p" transform="matrix(1,0,0,1,3078.125,-815.0952608187418) translate(187.89453125 148.71875)"/><use xlink:href="#c" transform="matrix(1,0,0,1,3078.125,-815.0952608187418) translate(95.921875 193.88020833333334)"/><use xlink:href="#i" transform="matrix(1,0,0,1,3078.125,-815.0952608187418) translate(223.04427083333331 193.88020833333334)"/><use xlink:href="#j" transform="matrix(1,0,0,1,3078.125,-815.0952608187418) translate(176 232.59895833333334)"/><use xlink:href="#k" transform="matrix(1,0,0,1,3078.125,-815.0952608187418) translate(54.22916666666666 275.6232638888889)"/><use xlink:href="#q" transform="matrix(1,0,0,1,3078.125,-815.0952608187418) translate(169.96918402777777 275.6232638888889)"/><use xlink:href="#m" transform="matrix(1,0,0,1,3078.125,-815.0952608187418) translate(210.34678819444443 275.6232638888889)"/><use xlink:href="#r" transform="matrix(1,0,0,1,3078.125,-815.0952608187418) translate(232.26736111111111 275.6232638888889)"/><path d="M3073.13-1229.28a6 6 0 0 1 6-6H3429a6 6 0 0 1 6 6v390.78a6 6 0 0 1-6 6h-349.88a6 6 0 0 1-6-6z" stroke="#000" stroke-opacity="0" stroke-width="2" fill="#e3fae3"/><use xlink:href="#f" transform="matrix(1,0,0,1,3078.125,-1230.2842274353584) translate(98.9296875 192.265625)"/><use xlink:href="#s" transform="matrix(1,0,0,1,3078.125,-1230.2842274353584) translate(183.03125 192.265625)"/><use xlink:href="#c" transform="matrix(1,0,0,1,3078.125,-1230.2842274353584) translate(95.921875 237.42708333333334)"/><use xlink:href="#d" transform="matrix(1,0,0,1,3078.125,-1230.2842274353584) translate(223.04427083333331 237.42708333333334)"/><path d="M3073.13-401.8a6 6 0 0 1 6-6H3429a6 6 0 0 1 6 6v388.2a6 6 0 0 1-6 6h-349.88a6 6 0 0 1-6-6z" stroke="#000" stroke-opacity="0" stroke-width="2" fill="#e3fae3"/><use xlink:href="#f" transform="matrix(1,0,0,1,3078.125,-402.78710782568777) translate(99.818359375 191.484375)"/><use xlink:href="#t" transform="matrix(1,0,0,1,3078.125,-402.78710782568777) translate(183.919921875 191.484375)"/><use xlink:href="#c" transform="matrix(1,0,0,1,3078.125,-402.78710782568777) translate(95.921875 236.64583333333334)"/><use xlink:href="#d" transform="matrix(1,0,0,1,3078.125,-402.78710782568777) translate(223.04427083333331 236.64583333333334)"/><path d="M1527.48 115.06a6 6 0 0 1 6-6h270.5a6 6 0 0 1 6 6V486.7a6 6 0 0 1-6 6h-270.5a6 6 0 0 1-6-6z" stroke="#000" stroke-opacity="0" stroke-width="2" fill="#fcfcca"/><use xlink:href="#f" transform="matrix(1,0,0,1,1532.484021828693,114.0630266414479) translate(54.52734375 114.71875)"/><use xlink:href="#u" transform="matrix(1,0,0,1,1532.484021828693,114.0630266414479) translate(138.62890625 114.71875)"/><use xlink:href="#c" transform="matrix(1,0,0,1,1532.484021828693,114.0630266414479) translate(55.9140625 159.88020833333334)"/><use xlink:href="#v" transform="matrix(1,0,0,1,1532.484021828693,114.0630266414479) translate(183.03645833333331 159.88020833333334)"/><use xlink:href="#j" transform="matrix(1,0,0,1,1532.484021828693,114.0630266414479) translate(136.5 198.59895833333334)"/><use xlink:href="#k" transform="matrix(1,0,0,1,1532.484021828693,114.0630266414479) translate(51.16471354166667 241.62326388888889)"/><use xlink:href="#q" transform="matrix(1,0,0,1,1532.484021828693,114.0630266414479) translate(166.90473090277777 241.62326388888889)"/><use xlink:href="#w" transform="matrix(1,0,0,1,1532.484021828693,114.0630266414479) translate(207.28233506944446 241.62326388888889)"/><use xlink:href="#x" transform="matrix(1,0,0,1,1532.484021828693,114.0630266414479) translate(76.69314236111111 286.7951388888889)"/><use xlink:href="#y" transform="matrix(1,0,0,1,1532.484021828693,114.0630266414479) translate(173.07986111111111 286.7951388888889)"/><path d="M3551.55 678.5a6 6 0 0 1 6-6h363.95a6 6 0 0 1 6 6v557.1a6 6 0 0 1-6 6h-363.95a6 6 0 0 1-6-6zM3085 2038.5a6 6 0 0 1 6-6h350.5a6 6 0 0 1 6 6V2554a6 6 0 0 1-6 6H3091a6 6 0 0 1-6-6z" stroke="#000" stroke-opacity="0" stroke-width="2" fill="#e3fae3"/><use xlink:href="#a" transform="matrix(1,0,0,1,3089.9976319596926,2037.5000590350135) translate(109.439453125 249.1875)"/><use xlink:href="#z" transform="matrix(1,0,0,1,3089.9976319596926,2037.5000590350135) translate(191.275390625 249.1875)"/><use xlink:href="#c" transform="matrix(1,0,0,1,3089.9976319596926,2037.5000590350135) translate(90.97265625 294.3489583333333)"/><use xlink:href="#A" transform="matrix(1,0,0,1,3089.9976319596926,2037.5000590350135) translate(218.09505208333331 294.3489583333333)"/><path d="M1822.47 194.56a6 6 0 0 1 6-6H2139a6 6 0 0 1 6 6V486.7a6 6 0 0 1-6 6h-310.53a6 6 0 0 1-6-6z" stroke="#000" stroke-opacity="0" stroke-width="2" fill="#e3fae3"/><use xlink:href="#f" transform="matrix(1,0,0,1,1827.4680436573854,193.55975505179603) translate(75.26953125 140.15625)"/><use xlink:href="#B" transform="matrix(1,0,0,1,1827.4680436573854,193.55975505179603) translate(159.37109375 140.15625)"/><use xlink:href="#c" transform="matrix(1,0,0,1,1827.4680436573854,193.55975505179603) translate(75.9140625 185.31770833333334)"/><use xlink:href="#C" transform="matrix(1,0,0,1,1827.4680436573854,193.55975505179603) translate(203.03645833333331 185.31770833333334)"/><path d="M2532.5 98.3a6 6 0 0 1 6-6h353.63a6 6 0 0 1 6 6v388.2a6 6 0 0 1-6 6H2538.5a6 6 0 0 1-6-6z" stroke="#000" stroke-opacity="0" stroke-width="2" fill="#fcfcca"/><use xlink:href="#f" transform="matrix(1,0,0,1,2537.5,97.30578075783319) translate(98.3125 148.71875)"/><use xlink:href="#D" transform="matrix(1,0,0,1,2537.5,97.30578075783319) translate(182.4140625 148.71875)"/><use xlink:href="#c" transform="matrix(1,0,0,1,2537.5,97.30578075783319) translate(97.921875 193.88020833333334)"/><use xlink:href="#i" transform="matrix(1,0,0,1,2537.5,97.30578075783319) translate(225.04427083333331 193.88020833333334)"/><use xlink:href="#j" transform="matrix(1,0,0,1,2537.5,97.30578075783319) translate(178 232.59895833333334)"/><use xlink:href="#k" transform="matrix(1,0,0,1,2537.5,97.30578075783319) translate(32.265407986111114 275.6232638888889)"/><use xlink:href="#l" transform="matrix(1,0,0,1,2537.5,97.30578075783319) translate(148.00542534722223 275.6232638888889)"/><use xlink:href="#m" transform="matrix(1,0,0,1,2537.5,97.30578075783319) translate(182.20030381944446 275.6232638888889)"/><use xlink:href="#E" transform="matrix(1,0,0,1,2537.5,97.30578075783319) translate(204.12087673611111 275.6232638888889)"/><use xlink:href="#o" transform="matrix(1,0,0,1,2537.5,97.30578075783319) translate(300.5075954861111 275.6232638888889)"/><path d="M2157.5 98.5a6 6 0 0 1 6-6h353.63a6 6 0 0 1 6 6v388.2a6 6 0 0 1-6 6H2163.5a6 6 0 0 1-6-6z" stroke="#000" stroke-opacity="0" stroke-width="2" fill="#e3fae3"/><use xlink:href="#f" transform="matrix(1,0,0,1,2162.5,97.50375161703619) translate(96.564453125 191.484375)"/><use xlink:href="#F" transform="matrix(1,0,0,1,2162.5,97.50375161703619) translate(180.666015625 191.484375)"/><use xlink:href="#c" transform="matrix(1,0,0,1,2162.5,97.50375161703619) translate(97.921875 236.64583333333334)"/><use xlink:href="#d" transform="matrix(1,0,0,1,2162.5,97.50375161703619) translate(225.04427083333331 236.64583333333334)"/><path d="M576.25 198.5a6 6 0 0 1 6-6h337.13a6 6 0 0 1 6 6v288a6 6 0 0 1-6 6H582.25a6 6 0 0 1-6-6z" stroke="#000" stroke-opacity="0" stroke-width="2" fill="#e3fae3"/><use xlink:href="#f" transform="matrix(1,0,0,1,581.25,197.49929226836076) translate(88.955078125 138.4375)"/><use xlink:href="#G" transform="matrix(1,0,0,1,581.25,197.49929226836076) translate(173.056640625 138.4375)"/><use xlink:href="#c" transform="matrix(1,0,0,1,581.25,197.49929226836076) translate(90.09765625 183.59895833333334)"/><use xlink:href="#H" transform="matrix(1,0,0,1,581.25,197.49929226836076) translate(217.22005208333331 183.59895833333334)"/><path d="M210.88 198.5a6 6 0 0 1 6-6H554a6 6 0 0 1 6 6v288a6 6 0 0 1-6 6H216.87a6 6 0 0 1-6-6z" stroke="#000" stroke-opacity="0" stroke-width="2" fill="#e3fae3"/><use xlink:href="#f" transform="matrix(1,0,0,1,215.8750000000582,197.49929226836076) translate(92.9296875 138.4375)"/><use xlink:href="#I" transform="matrix(1,0,0,1,215.8750000000582,197.49929226836076) translate(177.03125 138.4375)"/><use xlink:href="#c" transform="matrix(1,0,0,1,215.8750000000582,197.49929226836076) translate(90.09765625 183.59895833333334)"/><use xlink:href="#H" transform="matrix(1,0,0,1,215.8750000000582,197.49929226836076) translate(217.22005208333331 183.59895833333334)"/><path d="M3085 1378.5a6 6 0 0 1 6-6h350.5a6 6 0 0 1 6 6v315.03a6 6 0 0 1-6 6H3091a6 6 0 0 1-6-6z" stroke="#000" stroke-opacity="0" stroke-width="2" fill="#e3fae3"/><use xlink:href="#a" transform="matrix(1,0,0,1,3090,1377.5000140058876) translate(107.740234375 153.03125)"/><use xlink:href="#J" transform="matrix(1,0,0,1,3090,1377.5000140058876) translate(189.576171875 153.03125)"/><use xlink:href="#c" transform="matrix(1,0,0,1,3090,1377.5000140058876) translate(96.421875 198.19270833333334)"/><use xlink:href="#d" transform="matrix(1,0,0,1,3090,1377.5000140058876) translate(223.54427083333331 198.19270833333334)"/><path d="M940 198.5a6 6 0 0 1 6-6h390.04a6 6 0 0 1 6 6v288a6 6 0 0 1-6 6H946a6 6 0 0 1-6-6z" stroke="#000" stroke-opacity="0" stroke-width="2" fill="#fcfcca"/><use xlink:href="#f" transform="matrix(1,0,0,1,945,197.50000000000006) translate(115.142578125 97.65625)"/><use xlink:href="#K" transform="matrix(1,0,0,1,945,197.50000000000006) translate(199.244140625 97.65625)"/><use xlink:href="#c" transform="matrix(1,0,0,1,945,197.50000000000006) translate(116.421875 142.81770833333334)"/><use xlink:href="#i" transform="matrix(1,0,0,1,945,197.50000000000006) translate(243.54427083333331 142.81770833333334)"/><use xlink:href="#j" transform="matrix(1,0,0,1,945,197.50000000000006) translate(196.5 181.53645833333334)"/><use xlink:href="#k" transform="matrix(1,0,0,1,945,197.50000000000006) translate(48.99565972222223 224.56076388888889)"/><use xlink:href="#q" transform="matrix(1,0,0,1,945,197.50000000000006) translate(164.73567708333334 224.56076388888889)"/><use xlink:href="#m" transform="matrix(1,0,0,1,945,197.50000000000006) translate(205.11328125 224.56076388888889)"/><use xlink:href="#E" transform="matrix(1,0,0,1,945,197.50000000000006) translate(227.03385416666669 224.56076388888889)"/><use xlink:href="#L" transform="matrix(1,0,0,1,945,197.50000000000006) translate(323.4205729166667 224.56076388888889)"/><path d="M212.5 192.5l-6.25-6.25L200 180v325l6.25-6.25 6.25-6.25z" fill="#fff"/><path d="M212.5 192.5v300M200 505V180m12.5 12.5" stroke="#000" stroke-width="2" fill="none"/><path d="M3447.5 1033.75l6.25 6.25h6.25V846.25h-6.25l-6.25 6.25zm0-193.75l6.25 6.25h6.25v-225l-6.25 6.25-6.25 6.25z" fill="#fff"/><path d="M3447.5 1033.75V852.5m12.5-6.25V1040m-12.5-200V633.75m12.5-12.5v225m-12.5-6.25" stroke="#000" stroke-width="2" fill="none"/><path d="M212.5 492.5l-6.25 6.25L200 505h109.33v-12.5z" fill="#fff"/><path d="M212.5 492.5h96.83m0 12.5H200m12.5-12.5" stroke="#000" stroke-width="2" fill="none"/><path d="M3085 1372.5l-6.25-6.25h-6.25V1420h12.5zm0 87.5h-12.5v162.5h12.5zm0 202.5h-12.5v43.76h6.25l6.25-6.25zm0 50l-6.25-6.24h-6.25v57.5h12.5zm0 91.25h-12.5V1835l6.25-6.25 6.25-6.25z" fill="#fff"/><path d="M3085 1372.5v47.5h-12.5v-53.75M3085 1460v162.5h-12.5V1460h12.5zm0 202.5v37.5m-12.5 6.26v-43.76h12.5m0 50v51.25h-12.5v-57.5m12.5 97.51v18.75m-12.5 12.5v-31.25h12.5" stroke="#000" stroke-width="2" fill="none"/><path d="M3085 2812.5l-6.25 6.25 6.28 6.25h362.47l6.25-6.25-6.25-6.25z" fill="#fff"/><path d="M3085 2812.5h362.5m0 12.5h-362.47m-.03-12.5" stroke="#000" stroke-width="2" fill="none"/><path d="M3085 1622.5v40h-12.5v-40z" fill="#fff" fill-opacity="0"/><path d="M309.33 192.5V180H200l6.25 6.25 6.25 6.25z" fill="#fff"/><path d="M309.33 192.5H212.5M200 180h109.33m0 12.5" stroke="#000" stroke-width="2" fill="none"/><path d="M309.33 492.5V505H440v-12.5zm190.67 0V505h70v-6.25l-6.25-6.25z" fill="#fff"/><path d="M309.33 492.5H440V505H309.33M500 492.5h63.75M570 505h-70v-12.5" stroke="#000" stroke-width="2" fill="none"/><path d="M440 492.5h60V505h-60z" fill="#fff" fill-opacity="0"/><path d="M412.42 192.5V180h-103.1v12.5z" fill="#fff"/><path d="M412.42 192.5h-103.1m0-12.5h103.1m0 12.5" stroke="#000" stroke-width="2" fill="none"/><path d="M563.75 492.5l6.25 6.25 6.25-6.25v-300l-6.25-6.25-6.25 6.25z" fill="#fff"/><path d="M563.75 492.5v-300m12.5 0v300m-12.5 0" stroke="#000" stroke-width="2" fill="none"/><path d="M724.92 192.5V180H570v6.25l6.25 6.25zm-161.17 0l6.25-6.25V180H412.42v12.5z" fill="#fff"/><path d="M724.92 192.5H576.25M570 180h154.92m-161.17 12.5H412.42m0-12.5H570m-6.25 12.5" stroke="#000" stroke-width="2" fill="none"/><path d="M925.38 492.74l6.25 6.26 6.25-6.26V192.5l-6.25-6.25-6.25 6.25z" fill="#fff"/><path d="M925.38 492.74V192.5m12.5 0v300.24m-12.5 0" stroke="#000" stroke-width="2" fill="none"/><path d="M1037.42 192.5V180h-105.8v6.25l6.26 6.25zm-112.04 0l6.25-6.25V180h-206.7v12.5z" fill="#fff"/><path d="M1037.42 192.5h-99.54m-6.25-12.5h105.8m-112.05 12.5H724.92m0-12.5h206.7m-6.24 12.5" stroke="#000" stroke-width="2" fill="none"/><path d="M1343.67 492.5l6.25 6.25 6.25 6.25V180l-6.25 6.25-6.25 6.25z" fill="#fff"/><path d="M1343.67 492.5v-300m12.5-12.5v325m-12.5-12.5" stroke="#000" stroke-width="2" fill="none"/><path d="M1343.67 192.5l6.25-6.25 6.25-6.25h-83.67l-6.25 6.25v6.25zm-77.42 0v-6.25L1260 180h-222.58v12.5z" fill="#fff"/><path d="M1343.67 192.5h-77.42m6.25-12.5h83.67m-89.92 12.5h-228.83m0-12.5H1260m6.25 12.5" stroke="#000" stroke-width="2" fill="none"/><path d="M1532.5 180H1520v325l6.25-6.25 6.25-6.25z" fill="#fff"/><path d="M1532.5 180v312.5M1520 505V180h12.5" stroke="#000" stroke-width="2" fill="none"/><path d="M1368.58 180H1500v20.3h-131.42zM1368.58 200.3H1500v20.32h-131.42zM1368.58 220.63H1500v20.3h-131.42zM1368.58 240.94H1500v20.3h-131.42zM1368.58 261.25H1500v20.3h-131.42zM1368.58 281.56H1500v20.3h-131.42zM1368.58 301.88H1500v20.3h-131.42zM1368.58 322.2H1500v20.3h-131.42zM1368.58 342.5H1500v20.3h-131.42zM1368.58 362.8H1500v20.32h-131.42zM1368.58 383.13H1500v20.3h-131.42zM1368.58 403.44H1500v20.3h-131.42zM1368.58 423.75H1500v20.3h-131.42zM1368.58 444.06H1500v20.3h-131.42zM1368.58 464.38H1500v20.3h-131.42zM1368.58 484.7H1500V505h-131.42z" stroke="#000" stroke-width="2" fill="#fff"/><path d="M1434.3 474.53V190.16l-26.3 20.3m26.3-20.3l26.28 20.3" stroke="#000" stroke-width="2" fill="none"/><use xlink:href="#M" transform="matrix(1,0,0,1,1372.5833333334886,488.99999999999994) translate(50.646552734375 16.216875)"/><path d="M1532.5 492.5l-6.25 6.25L1520 505h40v-12.5zm67.5 0V505h140v-12.5zm180 0V505h36.22v-6.25l-6.25-6.25zm42.47 0l-6.25 6.25V505h22.53v-12.5z" fill="#fff"/><path d="M1532.5 492.5h27.5V505h-40m80-12.5h140V505h-140v-12.5zm180 0h29.97m6.25 12.5H1780v-12.5m42.47 0h16.28m0 12.5h-22.53m6.25-12.5" stroke="#000" stroke-width="2" fill="none"/><path d="M1809.97 492.5l6.25 6.25 6.25-6.25V190.93l-6.25-6.28-6.25-6.28z" fill="#fff"/><path d="M1809.97 492.5V178.37m12.5 12.56V492.5m-12.5 0" stroke="#000" stroke-width="2" fill="none"/><path d="M1838.75 492.5V505h38.75v-12.5zm78.75 0V505H2060v-12.5zm182.5 0V505h51.25v-6.25l-6.25-6.25z" fill="#fff"/><path d="M1838.75 492.5h38.75V505h-38.75m78.75-12.5H2060V505h-142.5v-12.5zm182.5 0h45m6.25 12.5H2100v-12.5" stroke="#000" stroke-width="2" fill="none"/><path d="M2145 192.47l6.25-6.22-6.25-6.28-112.5-.54-6.25 6.22-.03 6.25zm-118.78-.57l.03-6.25-6.25-6.28-210.03-1 6.25 6.28 6.25 6.28z" fill="#fff"/><path d="M2145 192.47l-118.78-.57m6.28-12.47l112.5.54m-118.78 11.93l-203.75-.97m-12.5-12.56l210.03 1m6.22 12.53" stroke="#000" stroke-width="2" fill="none"/><path d="M2060 492.5h40V505h-40z" fill="#fff" fill-opacity="0"/><path d="M2157.5 92.5l-6.25-6.25L2145 80v99.97l6.25 6.28h6.25zm0 93.75h-6.25l-6.25 6.22V492.5l6.25 6.25 6.25-6.25z" fill="#fff"/><path d="M2157.5 92.5v93.75m-12.5-6.28V80m12.5 106.25V492.5m-12.5 0V192.47m12.5-6.22" stroke="#000" stroke-width="2" fill="none"/><path d="M2157.5 492.5l-6.25 6.25V505H2180v-12.5zm72.5 0V505h210v-12.5zm260 0V505h36.25v-6.25l-6.25-6.25z" fill="#fff"/><path d="M2157.5 492.5h22.5V505h-28.75m78.75-12.5h210V505h-210v-12.5zm260 0h30m6.25 12.5H2490v-12.5" stroke="#000" stroke-width="2" fill="none"/><path d="M2520 492.5l6.25 6.25 6.25-6.25v-400l-6.25-6.25-6.25 6.25z" fill="#fff"/><path d="M2520 492.5v-400m12.5 0v400m-12.5 0" stroke="#000" stroke-width="2" fill="none"/><path d="M2520 92.5l6.25-6.25V80h-235.2l-6.26 6.25v6.25zm-235.2 0v-6.25l-6.26-6.25H2145l6.25 6.25 6.25 6.25z" fill="#fff"/><path d="M2520 92.5h-235.2m6.24-12.5h235.2M2284.8 92.5h-127.3M2145 80h133.54m6.25 12.5" stroke="#000" stroke-width="2" fill="none"/><path d="M2532.5 492.5l-6.25 6.25V505h36.25v-12.5zm80 0V505H2820v-12.5zm257.5 0V505h37.5l-6.25-6.25-6.25-6.25z" fill="#fff"/><path d="M2532.5 492.5h30V505h-36.25m86.25-12.5H2820V505h-207.5v-12.5zm257.5 0h25m12.5 12.5H2870v-12.5" stroke="#000" stroke-width="2" fill="none"/><path d="M2895 492.5l6.25 6.25 6.25 6.25V80l-6.25 6.25-6.25 6.25z" fill="#fff"/><path d="M2895 492.5v-400m12.5-12.5v425m-12.5-12.5" stroke="#000" stroke-width="2" fill="none"/><path d="M2895 92.5l6.25-6.25 6.25-6.25h-381.25v6.25l6.25 6.25z" fill="#fff"/><path d="M2895 92.5h-362.5m-6.25-12.5h381.25M2895 92.5" stroke="#000" stroke-width="2" fill="none"/><path d="M2440 492.5h50V505h-50zM2180 492.5h50V505h-50zM2562.5 492.5h50V505h-50zM2820 492.5h50V505h-50z" fill="#fff" fill-opacity="0"/><path d="M2523.13-7.5l6.24 6.25 6.26-6.25v-400l-6.26-6.25-6.24 6.25z" fill="#fff"/><path d="M2523.13-7.5v-400m12.5 0v400m-12.5 0" stroke="#000" stroke-width="2" fill="none"/><path d="M2898.13-7.5l6.24 6.25 6.26 6.25v-45h-12.5zm0-92.5h12.5v-203.75h-12.5zm0-263.75h12.5v-50h-6.26l-6.24 6.25z" fill="#fff"/><path d="M2898.13-7.5V-40h12.5V5m-12.5-105v-203.75h12.5V-100h-12.5zm0-263.75v-43.75m12.5-6.25v50h-12.5" stroke="#000" stroke-width="2" fill="none"/><path d="M2898.13-407.5l6.24-6.25-6.24-6.25h-368.76v6.25l6.26 6.25z" fill="#fff"/><path d="M2898.13-407.5h-362.5m-6.26-12.5h368.76m0 12.5" stroke="#000" stroke-width="2" fill="none"/><path d="M2898.13-303.75v-60h12.5v60z" fill="#fff" fill-opacity="0"/><path d="M2910.63 5l-6.26-6.25-6.24-6.25h-362.5l-6.26 6.25V5z" fill="#fff"/><path d="M2910.63 5h-381.26m6.26-12.5h362.5m12.5 12.5" stroke="#000" stroke-width="2" fill="none"/><path d="M2278.54-2.56l6.25 1.3 9.54-6.24 174.75-400-4.1-6.25-6.05-1.76z" fill="#fff"/><path d="M2278.54-2.56l180.4-412.95m10.15 8l-174.76 400m-15.8 4.94" stroke="#000" stroke-width="2" fill="none"/><path d="M2523.13-407.5l6.24-6.25V-420h-57.07l-7.3 6.25 4.1 6.25z" fill="#fff"/><path d="M2523.13-407.5h-54.04m3.2-12.5h57.07m-6.24 12.5" stroke="#000" stroke-width="2" fill="none"/><path d="M2377.5-225.2a6 6 0 0 1 6-6H2514a6 6 0 0 1 6 6v65.8a6 6 0 0 1-6 6h-130.5a6 6 0 0 1-6-6z" fill="none"/><use xlink:href="#N" transform="matrix(1,0,0,1,2377.5,-231.1956903752447) translate(52.88020833333333 48.700520833333336)"/><path d="M2529.37 5v-6.25l-6.25-6.25h-228.78l-9.55 6.25 6.24 6.25z" fill="#fff"/><path d="M2529.37 5h-238.33m3.3-12.5h228.78m6.25 12.5" stroke="#000" stroke-width="2" fill="none"/><path d="M2898.13-40v-60h12.5v60z" fill="#fff" fill-opacity="0"/><path d="M2458.95-415.5l6.05 1.75 7.3-6.25 62.43-400-5.35-6.25-6.2-.92z" fill="#fff"/><path d="M2458.95-415.5l64.24-411.67m11.53 7.17l-62.43 400m-13.35 4.5" stroke="#000" stroke-width="2" fill="none"/><path d="M2898.13-420l6.24 6.25h6.26v-38.75h-12.5zm0-92.5h12.5v-203.75h-12.5zm0-263.75h12.5v-50h-6.26l-6.24 6.25z" fill="#fff"/><path d="M2898.13-420v-32.5h12.5v38.75m-12.5-98.75v-203.75h12.5v203.75h-12.5zm0-263.75V-820m12.5-6.25v50h-12.5" stroke="#000" stroke-width="2" fill="none"/><path d="M2898.13-820l6.24-6.25-6.24-6.25h-361.56l-7.2 6.25 5.36 6.25z" fill="#fff"/><path d="M2898.13-820h-363.4m1.84-12.5h361.55m0 12.5" stroke="#000" stroke-width="2" fill="none"/><path d="M2898.13-716.25v-60h12.5v60zM2898.13-452.5v-60h12.5v60z" fill="#fff" fill-opacity="0"/><path d="M2523.2-827.17l6.17.92 7.2-6.25 56.36-400-5.43-6.25-5.43-6.25z" fill="#fff"/><path d="M2523.2-827.17l58.87-417.83m10.86 12.5l-56.36 400m-13.38 5.33" stroke="#000" stroke-width="2" fill="none"/><path d="M2898.12-1232.5l6.25-6.25 6.25-6.25h-328.55l5.43 6.25 5.43 6.25z" fill="#fff"/><path d="M2898.12-1232.5h-305.2m-10.85-12.5h328.55m-12.5 12.5" stroke="#000" stroke-width="2" fill="none"/><path d="M1560 492.5h40V505h-40z" fill="#fff" fill-opacity="0"/><path d="M60 180h131.42v20.3H60zM60 200.3h131.42v20.32H60zM60 220.63h131.42v20.3H60zM60 240.94h131.42v20.3H60zM60 261.25h131.42v20.3H60zM60 281.56h131.42v20.3H60zM60 301.88h131.42v20.3H60zM60 322.2h131.42v20.3H60zM60 342.5h131.42v20.3H60zM60 362.8h131.42v20.32H60zM60 383.13h131.42v20.3H60zM60 403.44h131.42v20.3H60zM60 423.75h131.42v20.3H60zM60 444.06h131.42v20.3H60zM60 464.38h131.42v20.3H60zM60 484.7h131.42V505H60z" stroke="#000" stroke-width="2" fill="#fff"/><path d="M125.7 474.53V190.16l-26.28 20.3m26.3-20.3l26.27 20.3" stroke="#000" stroke-width="2" fill="none"/><use xlink:href="#M" transform="matrix(1,0,0,1,64,489) translate(50.646552734375 16.216875)"/><path d="M1740 492.5h40V505h-40z" fill="#fff" fill-opacity="0"/><path d="M3435-7.5l6.25 6.25L3447.5 5v-418.75h-6.25l-6.25 6.25z" fill="#fff"/><path d="M3435-7.5v-400m12.5-6.25V5M3435-7.5" stroke="#000" stroke-width="2" fill="none"/><g><path d="M3435-420l6.25 6.25h6.25v-412.5h-6.25L3435-820z" fill="#fff"/><path d="M3435-420v-400m12.5-6.25v412.5M3435-420" stroke="#000" stroke-width="2" fill="none"/></g><g><path d="M3435-1232.5l6.25-6.25 6.25-6.25H3060l6.25 6.25 6.25 6.25z" fill="#fff"/><path d="M3435-1232.5h-362.5M3060-1245h387.5m-12.5 12.5" stroke="#000" stroke-width="2" fill="none"/></g><g><path d="M3060-826.25h6.25l6.25-6.25V-865H3060zm0-98.75h12.5v-307.5l-6.25-6.25-6.25-6.25z" fill="#fff"/><path d="M3060-826.25V-865h12.5v32.5M3060-925v-320m12.5 12.5V-925H3060" stroke="#000" stroke-width="2" fill="none"/></g><g><path d="M3060-413.75h6.25l6.25-6.25v-40H3060zm0-106.25h12.5v-183.75H3060zm0-243.75h12.5V-820l-6.25-6.25H3060z" fill="#fff"/><path d="M3060-413.75V-460h12.5v40M3060-520v-183.75h12.5V-520H3060zm0-243.75v-62.5m12.5 6.25v56.25H3060" stroke="#000" stroke-width="2" fill="none"/></g><g><path d="M3060-703.75v-60h12.5v60z" fill="#fff" fill-opacity="0"/></g><g><path d="M3060-460v-60h12.5v60z" fill="#fff" fill-opacity="0"/></g><g><path d="M3060 5l6.25-6.25 6.25-6.25V-40H3060zm0-105h12.5v-203.75H3060zm0-263.75h12.5v-43.75l-6.25-6.25H3060z" fill="#fff"/><path d="M3060 5v-45h12.5v32.5M3060-100v-203.75h12.5V-100H3060zm0-263.75v-50m12.5 6.25v43.75H3060" stroke="#000" stroke-width="2" fill="none"/></g><g><path d="M3060-303.75v-60h12.5v60z" fill="#fff" fill-opacity="0"/></g><g><path d="M3060-40v-60h12.5v60z" fill="#fff" fill-opacity="0"/></g><g><path d="M3447.5 5l-6.25-6.25L3435-7.5h-362.5l-6.25 6.25L3060 5z" fill="#fff"/><path d="M3447.5 5H3060m12.5-12.5H3435M3447.5 5" stroke="#000" stroke-width="2" fill="none"/></g><g><path d="M2898.13-832.5l6.24 6.25h6.26V-865h-12.5zm0-92.5h12.5v-320l-6.26 6.25-6.24 6.25z" fill="#fff"/><path d="M2898.13-832.5V-865h12.5v38.75m-12.5-98.75v-307.5m12.5-12.5v320h-12.5" stroke="#000" stroke-width="2" fill="none"/></g><g><path d="M2898.13-865v-60h12.5v60z" fill="#fff" fill-opacity="0"/></g><g><path d="M3060-865v-60h12.5v60z" fill="#fff" fill-opacity="0"/></g><g><path d="M3435-832.5l6.25 6.25h6.25V-1245l-6.25 6.25-6.25 6.25z" fill="#fff"/><path d="M3435-832.5v-400m12.5-12.5v418.75m-12.5-6.25" stroke="#000" stroke-width="2" fill="none"/></g><g><path d="M2032.5 54.45l-6.25 6.6-6.25 6.6v111.72l6.25 6.28 6.25-6.22z" fill="#fff"/><path d="M2032.5 54.45v124.98m-12.5-.06V67.65m12.5-13.2" stroke="#000" stroke-width="2" fill="none"/></g><g><path d="M1272.5 108.42l-6.25-5.92-6.25-5.92V180l6.25 6.25 6.25-6.25z" fill="#fff"/><path d="M1272.5 108.42V180m-12.5 0V96.58m12.5 11.84" stroke="#000" stroke-width="2" fill="none"/></g><g><path d="M1260 96.58l6.25 5.92 6.25 5.92L2020 67.65l6.25-6.6 6.25-6.6z" fill="#fff"/><path d="M1260 96.58l772.5-42.13m-12.5 13.2l-747.5 40.77M1260 96.58" stroke="#000" stroke-width="2" fill="none"/></g><path d="M2910.63-1245H3060v20h-149.38zM2910.63-1225H3060v20h-149.38zM2910.63-1205H3060v20h-149.38zM2910.63-1185H3060v20h-149.38zM2910.63-1165H3060v20h-149.38zM2910.63-1145H3060v20h-149.38zM2910.63-1125H3060v20h-149.38zM2910.63-1105H3060v20h-149.38z" stroke="#000" stroke-width="2" fill="#fff"/><path d="M2985.3-1115v-120l-29.86 20m29.87-20l29.9 20" stroke="#000" stroke-width="2" fill="none"/><g><use xlink:href="#M" transform="matrix(1,0,0,1,2914.625,-1100.9999999999995) translate(59.646552734375 16.216875)"/></g><g><path d="M2291.04 5l-6.25-6.25-6.26-1.3V80l6.25 6.25 6.24-6.25z" fill="#fff"/><path d="M2291.04 5v75m-12.5 0V-2.56m12.5 7.56" stroke="#000" stroke-width="2" fill="none"/></g><g><path d="M576.25 492.5l-6.25 6.25V505l250 .17v-12.5zm303.76.2v12.5l51.62.05V499l-6.24-6.26z" fill="#fff"/><path d="M576.25 492.5l243.76.17v12.5L570 505M880 492.7l45.38.04m6.24 12.5l-51.62-.03v-12.5" stroke="#000" stroke-width="2" fill="none"/></g><path d="M500-474a6 6 0 0 1 6-6h88a6 6 0 0 1 6 6v66.75a6 6 0 0 1-6 6h-88a6 6 0 0 1-6-6z" stroke="#6f7681" stroke-width="2" fill="#e3fae3"/><path d="M640-464a6 6 0 0 1 6-6h691.67a6 6 0 0 1 6 6v46.75a6 6 0 0 1-6 6H646a6 6 0 0 1-6-6z" fill="none"/><g><use xlink:href="#O" transform="matrix(1,0,0,1,640,-470) translate(0 51.66666666666667)"/><use xlink:href="#P" transform="matrix(1,0,0,1,640,-470) translate(125.18229166666669 51.66666666666667)"/></g><path d="M500-574a6 6 0 0 1 6-6h691.67a6 6 0 0 1 6 6v46.75a6 6 0 0 1-6 6H506a6 6 0 0 1-6-6z" fill="none"/><g><use xlink:href="#Q" transform="matrix(1,0,0,1,500,-580) translate(0 51.66666666666667)"/></g><path d="M500-354a6 6 0 0 1 6-6h88a6 6 0 0 1 6 6v66.75a6 6 0 0 1-6 6h-88a6 6 0 0 1-6-6z" stroke="#6f7681" stroke-width="2" fill="#fcfcca"/><path d="M640-344a6 6 0 0 1 6-6h691.67a6 6 0 0 1 6 6v46.75a6 6 0 0 1-6 6H646a6 6 0 0 1-6-6z" fill="none"/><g><use xlink:href="#R" transform="matrix(1,0,0,1,640,-350) translate(0 51.66666666666667)"/><use xlink:href="#P" transform="matrix(1,0,0,1,640,-350) translate(120.44270833333334 51.66666666666667)"/></g><g><path d="M3447.5 1046.25l6.25-6.25-6.25-6.25H3085l-6.25 6.25 6.25 6.25z" fill="#fff"/><path d="M3447.5 1046.25H3085m0-12.5h362.5m0 12.5" stroke="#000" stroke-width="2" fill="none"/></g><g><path d="M3447.5 633.75l6.25-6.25 6.25-6.25h-387.5l6.25 6.25 6.25 6.25z" fill="#fff"/><path d="M3447.5 633.75H3085m-12.5-12.5H3460m-12.5 12.5" stroke="#000" stroke-width="2" fill="none"/></g><g><path d="M3447.5 1257.96l6.25 6.25h6.25V1040h-6.25l-6.25 6.25z" fill="#fff"/><path d="M3447.5 1257.96v-211.7m12.5-6.26v224.2m-12.5-6.24" stroke="#000" stroke-width="2" fill="none"/></g><g><path d="M3072.5 1264.2h6.25l6.25-6.24v-16.37h-12.5zm0-62.6h12.5v-84.9h-12.5zm0-124.9h12.5v-30.45l-6.25-6.25h-6.25z" fill="#fff"/><path d="M3072.5 1264.2v-22.6h12.5v16.36m-12.5-56.35v-84.9h12.5v84.9h-12.5zm0-124.9V1040m12.5 6.25v30.46h-12.5" stroke="#000" stroke-width="2" fill="none"/></g><g><path d="M3072.5 1116.7v-40h12.5v40z" fill="#fff" fill-opacity="0"/></g><path d="M3848.74 910.22a6 6 0 0 1 6-6h248a6 6 0 0 1 6 6v132.85a6 6 0 0 1-6 6h-248a6 6 0 0 1-6-6z" fill="none"/><g><use xlink:href="#S" transform="matrix(1,0,0,1,3848.73562091753,904.2227124158027) translate(50.95703125 66.078125)"/><use xlink:href="#I" transform="matrix(1,0,0,1,3848.73562091753,904.2227124158027) translate(139.00390625 66.078125)"/><use xlink:href="#c" transform="matrix(1,0,0,1,3848.73562091753,904.2227124158027) translate(44.47265625 111.23958333333334)"/><use xlink:href="#A" transform="matrix(1,0,0,1,3848.73562091753,904.2227124158027) translate(171.59505208333331 111.23958333333334)"/></g><g><path d="M3085 1420v40h-12.5v-40z" fill="#fff" fill-opacity="0"/></g><g><path d="M3085 1700l-6.25 6.26 6.25 6.25h362.5l6.25-6.26-6.25-6.25z" fill="#fff"/><path d="M3085 1700h362.5m0 12.5H3085m0-12.5" stroke="#000" stroke-width="2" fill="none"/></g><g><path d="M3447.5 1822.5l6.25 6.25 6.25 6.25v-128.76h-6.25l-6.25 6.25zm0-122.5l6.25 6.24h6.25v-340h-6.25l-6.25 6.26z" fill="#fff"/><path d="M3447.5 1822.5v-110m12.5-6.26V1835m-12.5-135v-327.5m12.5-6.25v340m-12.5-6.26" stroke="#000" stroke-width="2" fill="none"/></g><g><path d="M3447.5 1372.5l6.25-6.25-6.25-6.25H3085l-6.25 6.25 6.25 6.25z" fill="#fff"/><path d="M3447.5 1372.5H3085m0-12.5h362.5m0 12.5" stroke="#000" stroke-width="2" fill="none"/></g><g><path d="M3460 1835l-6.25-6.25-6.25-6.25H3085l-6.25 6.25-6.25 6.25z" fill="#fff"/><path d="M3460 1835h-387.5m12.5-12.5h362.5m12.5 12.5" stroke="#000" stroke-width="2" fill="none"/></g><g><path d="M3085 1763.75v40h-12.5v-40z" fill="#fff" fill-opacity="0"/></g><g stroke="#000" stroke-width="2"><path d="M3456.32 1851.1v140h-20.4v-140z" fill="#fff"/><path d="M3435.93 1851.1v140h-20.4v-140z" fill="#fff"/><path d="M3415.53 1851.1v140h-20.4v-140z" fill="#fff"/><path d="M3395.14 1851.1v140h-20.4v-140zM3374.74 1851.1v140h-20.4v-140z" fill="#fff"/><path d="M3354.35 1851.1v140h-20.4v-140zM3333.95 1851.1v140h-20.4v-140z" fill="#fff"/><path d="M3313.56 1851.1v140h-20.4v-140z" fill="#fff"/><path d="M3293.17 1851.1v140h-20.4v-140z" fill="#fff"/><path d="M3303.36 1921.1h142.76l-20.4-28m20.4 28l-20.4 28" fill="none"/></g><g><use xlink:href="#M" transform="matrix(6.123233995736766e-17,1,-1,6.123233995736766e-17,3288.7707206110395,1855.0971559549805) translate(54.646552734375 16.216875)"/></g><g><path d="M3447.5 3060l6.25 6.25 6.25 6.25v-253.75h-6.25l-6.25 6.25zm0-247.5l6.25 6.25h6.25v-252.5h-6.25l-6.25 6.26zm0-252.5l6.25 6.26h6.25V2020l-6.25 6.25-6.25 6.25z" fill="#fff"/><path d="M3447.5 3060v-235m12.5-6.25v253.75m-12.5-260v-240m12.5-6.24v252.5M3447.5 2560v-527.5m12.5-12.5v546.26m-12.5-6.25" stroke="#000" stroke-width="2" fill="none"/></g><g><path d="M3072.5 2020l6.25 6.25 6.25 6.25h362.5l6.25-6.25 6.25-6.25z" fill="#fff"/><path d="M3072.5 2020H3460m-12.5 12.5H3085m-12.5-12.5" stroke="#000" stroke-width="2" fill="none"/></g><g><path d="M3085 2572.5l-6.25-6.25h-6.25v55.4h12.5zm0 89.15h-12.5v72.22h12.5zm0 112.22h-12.5v44.9l6.25-.02 6.25-6.25z" fill="#fff"/><path d="M3085 2572.5v49.15h-12.5v-55.4m12.5 95.4v72.22h-12.5v-72.22h12.5zm0 112.22v38.63m-12.5 6.27v-44.9h12.5" stroke="#000" stroke-width="2" fill="none"/></g><g><path d="M3085 2621.65v40h-12.5v-40z" fill="#fff" fill-opacity="0"/></g><path d="M500-226.14a6 6 0 0 1 6-6h88a6 6 0 0 1 6 6v66.75a6 6 0 0 1-6 6h-88a6 6 0 0 1-6-6z" stroke="#6f7681" stroke-width="2" fill="#edf5ff"/><path d="M640-221.54a6 6 0 0 1 6-6h691.67a6 6 0 0 1 6 6v46.75a6 6 0 0 1-6 6H646a6 6 0 0 1-6-6z" fill="none"/><g><use xlink:href="#T" transform="matrix(1,0,0,1,640,-227.5395594227487) translate(0 51.66666666666667)"/></g><g><path d="M3927.5 672.5V660h-387.46l6.2 6.25 6.22 6.25z" fill="#fff"/><path d="M3927.5 672.5h-375.04m-12.42-12.5h387.46v12.5" stroke="#000" stroke-width="2" fill="none"/></g><g><path d="M3536.24 1254.07l6.3-6.25 6.28-6.25 3.64-569.07-6.2-6.25-6.22-6.25z" fill="#fff"/><path d="M3536.24 1254.07l3.8-594.07m12.42 12.5l-3.64 569.07m-12.58 12.5" stroke="#000" stroke-width="2" fill="none"/></g><g><path d="M4398.76 1078.67h12.51V740l-6.25 6.25-6.24 6.25z" fill="#fff"/><path d="M4398.76 1078.67V752.5m12.5-12.5v338.67m-12.5 0" stroke="#000" stroke-width="2" fill="none"/></g><g><path d="M4398.76 752.5l6.25-6.25 6.26-6.25h-387.5v12.5z" fill="#fff"/><path d="M4398.76 752.5h-375V740h387.5m-12.5 12.5" stroke="#000" stroke-width="2" fill="none"/></g><g><path d="M4398.76 1241.5l6.25 6.24 6.26 6.25v-175.33h-12.49z" fill="#fff"/><path d="M4398.76 1241.5v-162.83m12.5 0V1254m-12.5-12.5" stroke="#000" stroke-width="2" fill="none"/></g><g><path d="M4411.26 1254l-6.25-6.26-6.24-6.25-849.94.07-6.3 6.25-6.28 6.25z" fill="#fff"/><path d="M4411.26 1254l-875.02.07m12.58-12.5l849.94-.08m12.5 12.5" stroke="#000" stroke-width="2" fill="none"/></g><g stroke="#000" stroke-width="2"><path d="M4411.26 660v80h-19.17v-80z" fill="#fff"/><path d="M4392.1 660v80h-19.17v-80zM4372.93 660v80h-19.17v-80zM4353.76 660v80h-19.17v-80z" fill="#fff"/><path d="M4334.6 660v80h-19.17v-80zM4315.43 660v80h-19.17v-80zM4296.26 660v80h-19.17v-80z" fill="#fff"/><path d="M4277.1 660v80h-19.17v-80zM4257.93 660v80h-19.17v-80z" fill="#fff"/><path d="M4267.5 700h134.18l-19.17-16m19.18 16l-19.17 16" fill="none"/></g><g><use xlink:href="#M" transform="matrix(6.123233995736766e-17,1,-1,6.123233995736766e-17,4254.760297860028,664) translate(25.146552734375 16.216875)"/></g><path d="M417.5-940.25a6 6 0 0 1 6-6h1948a6 6 0 0 1 6 6v131.75a6 6 0 0 1-6 6h-1948a6 6 0 0 1-6-6z" fill="none"/><g><use xlink:href="#U" transform="matrix(1,0,0,1,417.4999999999998,-946.25) translate(538.3125 129.16666666666669)"/><use xlink:href="#V" transform="matrix(1,0,0,1,417.4999999999998,-946.25) translate(979.7838541666667 129.16666666666669)"/><use xlink:href="#W" transform="matrix(1,0,0,1,417.4999999999998,-946.25) translate(706.18359375 271.09375)"/><use xlink:href="#X" transform="matrix(1,0,0,1,417.4999999999998,-946.25) translate(874.38671875 271.09375)"/></g><g><path d="M820 492.67l60 .04v12.5l-60-.03z" fill="#fff" fill-opacity="0"/></g><g><path d="M937.88 492.74l-6.25 6.26v6.25l30.2-.02v-12.5zm83.95-.05v12.5l238.18-.15v-12.5zm298.17-.18v12.5l36.17-.02-6.25-6.25-6.25-6.25z" fill="#fff"/><path d="M937.88 492.74h23.95v12.5h-30.2m90.2-12.55l238.17-.15v12.5l-238.16.14v-12.5zm298.17-.18l23.67-.02m12.5 12.5l-36.16.02v-12.5" stroke="#000" stroke-width="2" fill="none"/></g><g><path d="M961.83 492.73l60-.04v12.5l-60 .03z" fill="#fff" fill-opacity="0"/></g><g><path d="M1260 492.55l60-.03v12.5l-60 .03z" fill="#fff" fill-opacity="0"/></g><path d="M1877.5 492.5h40V505h-40z" fill="#fff" fill-opacity="0"/><path d="M3072.5-832.5l-6.25 6.25 6.25 6.25H3435l6.25-6.25-6.25-6.25z" fill="#fff"/><path d="M3072.5-832.5H3435m0 12.5h-362.5m0-12.5" stroke="#000" stroke-width="2" fill="none"/><path d="M3072.5-420l-6.25 6.25 6.25 6.25H3435l6.25-6.25L3435-420z" fill="#fff"/><path d="M3072.5-420H3435m0 12.5h-362.5m0-12.5" stroke="#000" stroke-width="2" fill="none"/><g><path d="M3085 633.75l-6.25-6.25-6.25-6.25v225h6.25L3085 840zm0 218.75l-6.25-6.25h-6.25v130.8h12.5zm0 164.54h-12.5V1040h6.25l6.25-6.25z" fill="#fff"/><path d="M3085 633.75V840m-12.5 6.25v-225M3085 852.5v124.54h-12.5v-130.8M3085 1017.05v16.7m-12.5 6.26v-22.96h12.5" stroke="#000" stroke-width="2" fill="none"/></g><g><path d="M3085 977.04v40h-12.5v-40z" fill="#fff" fill-opacity="0"/></g><g><path d="M3447.5 1270.46l6.25-6.25-6.25-6.24H3085l-6.25 6.25 6.25 6.26z" fill="#fff"/><path d="M3447.5 1270.46H3085m0-12.5h362.5m0 12.5" stroke="#000" stroke-width="2" fill="none"/></g><g><path d="M3072.5 1241.6v-40h12.5v40z" fill="#fff" fill-opacity="0"/></g><g><path d="M3460 1264.2h-6.25l-6.25 6.26V1360l6.25 6.25h6.25z" fill="#fff"/><path d="M3460 1264.2v102.05m-12.5-6.25v-89.54m12.5-6.25" stroke="#000" stroke-width="2" fill="none"/></g><g><path d="M3085 1270.46l-6.25-6.25h-6.25v31.03h12.5zm0 64.77h-12.5v31.02h6.25l6.25-6.25z" fill="#fff"/><path d="M3085 1270.46v24.77h-12.5v-31.02m12.5 71.03V1360m-12.5 6.25v-31.02h12.5" stroke="#000" stroke-width="2" fill="none"/></g><g><path d="M3085 1295.23v40h-12.5v-40z" fill="#fff" fill-opacity="0"/></g><path d="M3130.54 1282.33a6 6 0 0 1 6-6h248a6 6 0 0 1 6 6v65.8a6 6 0 0 1-6 6h-248a6 6 0 0 1-6-6z" fill="none"/><g><use xlink:href="#N" transform="matrix(1,0,0,1,3130.5442753806647,1276.3277825499613) translate(111.38020833333333 48.700520833333336)"/></g><g><path d="M3085 2733.87v40h-12.5v-40z" fill="#fff" fill-opacity="0"/></g><g><path d="M3085 2560l-6.25 6.25 6.25 6.25h362.5l6.25-6.24-6.25-6.25z" fill="#fff"/><path d="M3085 2560h362.5m0 12.5H3085m0-12.5" stroke="#000" stroke-width="2" fill="none"/></g><g><path d="M3086.18 3060l-6.22 6.25-6.22 6.25H3460l-6.25-6.25-6.25-6.25z" fill="#fff"/><path d="M3086.18 3060h361.32m12.5 12.5h-386.26m12.44-12.5" stroke="#000" stroke-width="2" fill="none"/></g><path d="M3536.24 1326a6 6 0 0 1 6-6h863.02a6 6 0 0 1 6 6v108a6 6 0 0 1-6 6h-863.02a6 6 0 0 1-6-6z" fill="none"/><g><use xlink:href="#Y" transform="matrix(1,0,0,1,3536.238539809635,1320) translate(159.73828125 89.1015625)"/><use xlink:href="#X" transform="matrix(1,0,0,1,3536.238539809635,1320) translate(335.83203125 89.1015625)"/></g><g><path d="M2934 1200a6 6 0 0 1 6 6v1208a6 6 0 0 1-6 6h-201.13a6 6 0 0 1-6-6V1206a6 6 0 0 1 6-6z" fill="none"/></g><g><use xlink:href="#Z" transform="matrix(6.123233995736766e-17,1,-1,6.123233995736766e-17,2940,1200) translate(337.94921875 136.1015625)"/><use xlink:href="#X" transform="matrix(6.123233995736766e-17,1,-1,6.123233995736766e-17,2940,1200) translate(501.62109375 136.1015625)"/></g><path d="M2582.07-240.6a6 6 0 0 1 6-6h248a6 6 0 0 1 6 6v65.8a6 6 0 0 1-6 6h-248a6 6 0 0 1-6-6z" fill="none"/><g><use xlink:href="#aa" transform="matrix(1,0,0,1,2582.0689387574357,-246.59413459114313) translate(28.154296875 53.55078125)"/><use xlink:href="#ab" transform="matrix(1,0,0,1,2582.0689387574357,-246.59413459114313) translate(112.314453125 53.55078125)"/></g><g><path d="M3085.03 2825l-6.28-6.25-6.25.02.8 161.3 12.5-.07zm.95 195.03l-12.5.06.26 52.4 6.22-6.25 6.22-6.25z" fill="#fff"/><path d="M3085.03 2825l.76 155-12.5.06-.8-161.3M3085.98 3020.04l.2 39.97m-12.44 12.5l-.26-52.4 12.5-.07" stroke="#000" stroke-width="2" fill="none"/></g><g stroke="#000" stroke-width="2"><path d="M3460 540v80h-20v-80zM3440 540v80h-20v-80zM3420 540v80h-20v-80zM3400 540v80h-20v-80zM3380 540v80h-20v-80zM3360 540v80h-20v-80zM3340 540v80h-20v-80zM3320 540v80h-20v-80z" fill="#fff"/><path d="M3330 580h120l-20-16m20 16l-20 16" fill="none"/></g><g><use xlink:href="#M" transform="matrix(6.123233995736766e-17,1,-1,6.123233995736766e-17,3316.0021430108636,544) translate(24.646552734375 16.216875)"/></g><g><path d="M3085.8 2980l.18 40.03-12.5.06-.2-40.04z" fill="#fff" fill-opacity="0"/></g><g><path d="M3085 2032.5l-6.25-6.25-6.25-6.25v120h12.5zm0 147.5h-12.5v65.4h12.5zm0 105.4h-12.5V2400h12.5zm0 154.6h-12.5v126.25h6.25l6.25-6.25z" fill="#fff"/><path d="M3085 2032.5V2140h-12.5v-120m12.5 160v65.4h-12.5V2180h12.5zm0 105.4V2400h-12.5v-114.6h12.5zm0 154.6v120m-12.5 6.25V2440h12.5" stroke="#000" stroke-width="2" fill="none"/></g><g><path d="M3085 2140v40h-12.5v-40z" fill="#fff" fill-opacity="0"/></g><g><path d="M3085 2245.4v40h-12.5v-40z" fill="#fff" fill-opacity="0"/></g><g><path d="M3085 2400v40h-12.5v-40z" fill="#fff" fill-opacity="0"/></g><path d="M60 659.12a6 6 0 0 1 6-6h416.58a6 6 0 0 1 6 6v1098.63a6 6 0 0 1-6 6H66a6 6 0 0 1-6-6z" stroke="#000" stroke-width="2" fill="#ddd"/><g><path d="M94.58 1440a6 6 0 0 1-6-6V926a6 6 0 0 1 6-6h172.3a6 6 0 0 1 6 6v508a6 6 0 0 1-6 6z" fill="none"/></g><g><use xlink:href="#ac" transform="matrix(6.123233995736766e-17,-1,1,6.123233995736766e-17,88.58333333348855,1440) translate(56.220703125 107.05078125)"/><use xlink:href="#ad" transform="matrix(6.123233995736766e-17,-1,1,6.123233995736766e-17,88.58333333348855,1440) translate(322.646484375 107.05078125)"/></g><g><path d="M309.58 661v1098" stroke="#000" stroke-width="2" stroke-linecap="round" fill="none"/></g><g><path d="M294.58 1432.63a6 6 0 0 1-6-6V926a6 6 0 0 1 6-6h163.55a6 6 0 0 1 6 6v500.63a6 6 0 0 1-6 6z" fill="none"/></g><g><use xlink:href="#ae" transform="matrix(6.123233995736766e-17,-1,1,6.123233995736766e-17,288.5833333334883,1432.627750292819) translate(54.17578125 102.55078125)"/><use xlink:href="#ad" transform="matrix(6.123233995736766e-17,-1,1,6.123233995736766e-17,288.5833333334883,1432.627750292819) translate(317.69140625 102.55078125)"/></g><defs><path d="M135 0v-1490h581c339 0 533 192 533 485 0 204-94 351-264 424L1302 0H964L680-532H440V0H135zm305-779h220c186 0 274-77 274-226 0-150-88-233-275-233H440v459" id="af"/><path d="M135 0v-1490h980v253H440v416h609v249H440V0H135" id="ag"/><path d="M135 0v-1490h305v1237h643V0H135" id="ah"/><g id="a"><use transform="matrix(0.01953125,0,0,0.01953125,0,0)" xlink:href="#af"/><use transform="matrix(0.01953125,0,0,0.01953125,26.26953125,0)" xlink:href="#ag"/><use transform="matrix(0.01953125,0,0,0.01953125,49.74609375,0)" xlink:href="#ah"/></g><path d="M659 20C335 20 103-159 99-418h307c5 112 113 185 254 185 147 0 250-83 250-204 0-123-105-209-278-209H494v-227h138c145 0 246-81 246-200 0-115-87-193-216-193-130 0-237 73-240 189H128c4-255 233-433 536-433 306 0 510 185 510 418 0 167-114 285-279 317v11c217 29 333 162 333 347 0 254-237 437-569 437" id="ai"/><path d="M659 0H135v-1490h529c448 0 721 280 721 744 0 466-273 746-726 746zM440-263h204c287 0 437-148 437-483 0-333-150-481-435-481H440v964" id="aj"/><g id="b"><use transform="matrix(0.01953125,0,0,0.01953125,0,0)" xlink:href="#ai"/><use transform="matrix(0.01953125,0,0,0.01953125,25.8203125,0)" xlink:href="#aj"/></g><path d="M783 20c-382 0-661-292-661-764 0-473 279-766 661-766 302 0 548 182 601 489h-190c-42-204-217-313-411-313-268 0-476 208-476 590 0 381 209 588 476 588 195 0 369-110 411-313h190c-52 303-296 489-601 489" id="ak"/><path d="M471 26C259 26 90-98 90-318c0-256 228-303 435-329 202-27 287-16 287-108 0-139-79-219-234-219-161 0-248 86-283 164l-173-57c86-203 278-265 451-265 150 0 419 46 419 395V0H815v-152h-12C765-73 660 26 471 26zm31-159c199 0 310-134 310-271v-155c-30 35-226 55-295 64-131 17-246 59-246 186 0 116 97 176 231 176" id="al"/><path d="M158 418v-1536h174v179h20c37-59 106-193 324-193 279 0 474 222 474 576 0 356-194 580-473 580-213 0-288-135-325-197h-14v591H158zm492-555c209 0 317-186 317-421 0-232-105-413-317-413-206 0-314 166-314 413 0 249 111 421 314 421" id="am"/><path d="M613 24c-304 0-509-231-509-576 0-350 205-580 509-580 216 0 392 114 453 309l-173 49c-33-115-133-197-280-197-223 0-326 196-326 419 0 220 103 415 326 415 150 0 252-85 285-206l172 49C1010-95 832 24 613 24" id="an"/><path d="M158 0v-1118h180V0H158zm91-1301c-68 0-125-53-125-119s57-119 125-119c69 0 126 53 126 119s-57 119-126 119" id="ao"/><path d="M598-1118v154H368v674c0 100 37 144 132 144 23 0 62-6 92-12L629-6c-37 13-88 20-134 20-193 0-307-107-307-290v-688H20v-154h168v-266h180v266h230" id="ap"/><path d="M140 405l46-156c120 36 205 19 263-150l32-93L54-1118h197c107 313 237 620 324 950 87-331 219-637 326-950h196L606 167c-68 178-176 259-334 259-64 0-113-12-132-21" id="aq"/><path d="M295 13c-75 0-135-60-135-135s60-135 135-135 135 60 135 135S370 13 295 13zm0-809c-75 0-135-60-135-135s60-135 135-135 135 60 135 135-60 135-135 135" id="ar"/><g id="c"><use transform="matrix(0.013020833333333334,0,0,0.013020833333333334,0,0)" xlink:href="#ak"/><use transform="matrix(0.013020833333333334,0,0,0.013020833333333334,19.479166666666668,0)" xlink:href="#al"/><use transform="matrix(0.013020833333333334,0,0,0.013020833333333334,34.453125,0)" xlink:href="#am"/><use transform="matrix(0.013020833333333334,0,0,0.013020833333333334,51.041666666666664,0)" xlink:href="#al"/><use transform="matrix(0.013020833333333334,0,0,0.013020833333333334,66.015625,0)" xlink:href="#an"/><use transform="matrix(0.013020833333333334,0,0,0.013020833333333334,81.25,0)" xlink:href="#ao"/><use transform="matrix(0.013020833333333334,0,0,0.013020833333333334,87.70833333333333,0)" xlink:href="#ap"/><use transform="matrix(0.013020833333333334,0,0,0.013020833333333334,96.95312499999999,0)" xlink:href="#aq"/><use transform="matrix(0.013020833333333334,0,0,0.013020833333333334,111.94010416666664,0)" xlink:href="#ar"/></g><path d="M626 20c-262 0-458-168-468-396h184c12 133 134 229 284 229 180 0 311-137 311-326 0-192-136-335-323-335-92 0-196 33-255 78l-178-22 88-738h784v167H429l-51 435h8c61-51 160-87 263-87 273 0 474 211 474 499 0 286-210 496-497 496" id="as"/><path d="M646 20c-332 0-524-278-524-764 0-483 194-766 524-766s524 283 524 766c0 485-191 764-524 764zm0-166c218 0 341-220 341-598 0-380-123-601-341-601s-341 222-341 601c0 378 123 598 341 598" id="at"/><g id="d"><use transform="matrix(0.013020833333333334,0,0,0.013020833333333334,0,0)" xlink:href="#as"/><use transform="matrix(0.013020833333333334,0,0,0.013020833333333334,16.2109375,0)" xlink:href="#at"/></g><path d="M786 20C389 20 94-260 94-744c0-487 299-766 692-766 339 0 597 194 641 529h-309c-28-162-156-258-326-258-233 0-388 179-388 495 0 323 157 493 387 493 170 0 298-97 328-259h309c-34 277-266 530-642 530" id="au"/><g id="e"><use transform="matrix(0.01953125,0,0,0.01953125,0,0)" xlink:href="#ai"/><use transform="matrix(0.01953125,0,0,0.01953125,25.8203125,0)" xlink:href="#au"/></g><path d="M567 20C257 20 68-148 68-448v-87h305v92c0 143 75 217 194 217s193-74 193-218v-1046h302v1041c0 301-188 469-495 469" id="av"/><path d="M135 0v-1490h340l471 754c59 97 122 210 187 365-32-387-14-721-19-1119h312V0h-341C855-382 627-689 427-1113c32 420 16 695 20 1113H135" id="aw"/><g id="f"><use transform="matrix(0.01953125,0,0,0.01953125,0,0)" xlink:href="#ag"/><use transform="matrix(0.01953125,0,0,0.01953125,20.76171875,0)" xlink:href="#av"/><use transform="matrix(0.01953125,0,0,0.01953125,44.140625,0)" xlink:href="#aw"/></g><path d="M690 20C314 20 94-261 94-744c0-482 221-766 596-766 376 0 597 284 597 766 0 483-219 764-597 764zm0-253c184 0 286-184 286-511 0-328-102-514-286-514-183 0-285 187-285 514s101 511 285 511" id="ax"/><path d="M636 22c-294 0-497-190-527-437h302c24 106 107 174 225 174 196 0 302-184 302-479h-10c-68 129-211 209-374 209-265 0-460-202-460-482 0-301 224-521 555-519 300 2 588 186 588 731 0 502-235 803-601 803zm11-757c147 0 260-121 260-268 0-144-109-265-258-265-147 0-258 117-258 267 0 151 108 266 256 266" id="ay"/><g id="g"><use transform="matrix(0.01953125,0,0,0.01953125,0,0)" xlink:href="#ai"/><use transform="matrix(0.01953125,0,0,0.01953125,25.8203125,0)" xlink:href="#ax"/><use transform="matrix(0.01953125,0,0,0.01953125,52.79296875,0)" xlink:href="#ay"/></g><path d="M666 20C332 20 94-158 94-400c0-186 139-340 321-370v-9c-159-33-267-168-267-331 0-230 219-400 518-400 298 0 519 171 519 400 0 163-111 298-266 331v9c177 30 321 184 321 370 0 242-241 420-574 420zm0-226c153 0 255-89 255-218 0-131-108-226-255-226-148 0-255 94-255 226 0 128 101 218 255 218zm0-668c127 0 220-84 220-203s-90-200-220-200-220 80-220 200c0 119 92 203 220 203" id="az"/><g id="h"><use transform="matrix(0.01953125,0,0,0.01953125,0,0)" xlink:href="#ai"/><use transform="matrix(0.01953125,0,0,0.01953125,25.8203125,0)" xlink:href="#ax"/><use transform="matrix(0.01953125,0,0,0.01953125,52.79296875,0)" xlink:href="#az"/></g><g id="i"><use transform="matrix(0.013020833333333334,0,0,0.013020833333333334,0,0)" xlink:href="#as"/><use transform="matrix(0.013020833333333334,0,0,0.013020833333333334,16.2109375,0)" xlink:href="#at"/></g><path d="M795 20C377 20 94-272 94-743c0-483 302-767 694-767 335 0 593 206 635 500h-310c-42-142-154-229-320-229-230 0-389 177-389 493s154 495 393 495c212 0 340-120 345-311H818v-232h620v186c0 391-269 628-643 628" id="aA"/><path d="M49 0l509-1490h400L1480 0h-339l-115-346H497L386 0H49zm524-585h374c-75-213-124-402-192-666-66 268-110 453-182 666" id="aB"/><path d="M135 0v-1490h997v253H440v360h640v249H440v375h694V0H135" id="aC"/><g id="k"><use transform="matrix(0.015190972222222224,0,0,0.015190972222222224,0,0)" xlink:href="#aA"/><use transform="matrix(0.015190972222222224,0,0,0.015190972222222224,23.348524305555557,0)" xlink:href="#af"/><use transform="matrix(0.015190972222222224,0,0,0.015190972222222224,43.78038194444444,0)" xlink:href="#aB"/><use transform="matrix(0.015190972222222224,0,0,0.015190972222222224,67.00737847222223,0)" xlink:href="#aj"/><use transform="matrix(0.015190972222222224,0,0,0.015190972222222224,89.4748263888889,0)" xlink:href="#aC"/></g><path d="M749-1490V0H444v-1221h-10L93-980v-279l329-231h327" id="aD"/><g id="l"><use transform="matrix(0.015190972222222224,0,0,0.015190972222222224,0,0)" xlink:href="#aD"/><use transform="matrix(0.015190972222222224,0,0,0.015190972222222224,13.413628472222223,0)" xlink:href="#aD"/></g><path d="M818-733v240H140v-240h678" id="aE"/><use transform="matrix(0.015190972222222224,0,0,0.015190972222222224,0,0)" xlink:href="#aE" id="m"/><path d="M681 22C323 22 94-145 85-462h297c10 151 131 226 296 226 163 0 271-77 271-190 0-102-95-149-257-189l-164-41c-252-61-403-188-403-405 0-269 236-449 560-449 330 0 546 183 551 445H941c-11-119-106-188-259-188-156 0-244 72-244 172-3 156 226 185 373 221 250 61 445 186 445 436 0 271-213 446-575 446" id="aF"/><g id="n"><use transform="matrix(0.015190972222222224,0,0,0.015190972222222224,0,0)" xlink:href="#aA"/><use transform="matrix(0.015190972222222224,0,0,0.015190972222222224,22.376302083333336,0)" xlink:href="#aB"/><use transform="matrix(0.015190972222222224,0,0,0.015190972222222224,45.13237847222223,0)" xlink:href="#aF"/></g><use transform="matrix(0.015190972222222224,0,0,0.015190972222222224,0,0)" xlink:href="#aB" id="o"/><g id="p"><use transform="matrix(0.01953125,0,0,0.01953125,0,0)" xlink:href="#ai"/><use transform="matrix(0.01953125,0,0,0.01953125,25.8203125,0)" xlink:href="#aD"/><use transform="matrix(0.01953125,0,0,0.01953125,43.06640625,0)" xlink:href="#aD"/></g><path d="M124 0v-220l528-495c135-132 210-216 210-336 0-133-98-215-231-215-139 0-229 88-229 233H110c0-290 214-477 523-477 315 0 525 182 525 440 0 167-80 305-385 586L548-262v11h630V0H124" id="aG"/><g id="q"><use transform="matrix(0.015190972222222224,0,0,0.015190972222222224,0,0)" xlink:href="#aD"/><use transform="matrix(0.015190972222222224,0,0,0.015190972222222224,13.413628472222223,0)" xlink:href="#aG"/></g><g id="r"><use transform="matrix(0.015190972222222224,0,0,0.015190972222222224,0,0)" xlink:href="#aA"/><use transform="matrix(0.015190972222222224,0,0,0.015190972222222224,22.376302083333336,0)" xlink:href="#aB"/><use transform="matrix(0.015190972222222224,0,0,0.015190972222222224,45.13237847222223,0)" xlink:href="#aF"/></g><g id="s"><use transform="matrix(0.01953125,0,0,0.01953125,0,0)" xlink:href="#ai"/><use transform="matrix(0.01953125,0,0,0.01953125,25.8203125,0)" xlink:href="#aD"/><use transform="matrix(0.01953125,0,0,0.01953125,43.06640625,0)" xlink:href="#ax"/></g><g id="t"><use transform="matrix(0.01953125,0,0,0.01953125,0,0)" xlink:href="#ai"/><use transform="matrix(0.01953125,0,0,0.01953125,25.8203125,0)" xlink:href="#aD"/><use transform="matrix(0.01953125,0,0,0.01953125,43.06640625,0)" xlink:href="#aG"/></g><path d="M101-265v-241l623-984h383v979h186v246h-186V0H814v-265H101zm719-246v-643h-12L409-523v12h411" id="aH"/><g id="u"><use transform="matrix(0.01953125,0,0,0.01953125,0,0)" xlink:href="#ai"/><use transform="matrix(0.01953125,0,0,0.01953125,25.8203125,0)" xlink:href="#ax"/><use transform="matrix(0.01953125,0,0,0.01953125,52.79296875,0)" xlink:href="#aH"/></g><path d="M120-303v-155l652-1032h231v1020h202v167h-202V0H821v-303H120zm702-167v-782h-12L323-482v12h499" id="aI"/><g id="v"><use transform="matrix(0.013020833333333334,0,0,0.013020833333333334,0,0)" xlink:href="#aI"/><use transform="matrix(0.013020833333333334,0,0,0.013020833333333334,17.2265625,0)" xlink:href="#at"/></g><use transform="matrix(0.015190972222222224,0,0,0.015190972222222224,0,0)" xlink:href="#aE" id="w"/><path d="M75-1237v-253h1217v253H837V0H531v-1237H75" id="aJ"/><path d="M135 0v-1490h468l242 684c30 94 76 293 111 455 34-161 80-360 110-455l238-684h470V0h-307c0-447-3-765 11-1227-122 503-246 788-395 1227H826C676-435 552-717 427-1215c15 453 11 775 11 1215H135" id="aK"/><g id="x"><use transform="matrix(0.015190972222222224,0,0,0.015190972222222224,0,0)" xlink:href="#aF"/><use transform="matrix(0.015190972222222224,0,0,0.015190972222222224,20.371093750000004,0)" xlink:href="#aJ"/><use transform="matrix(0.015190972222222224,0,0,0.015190972222222224,41.137152777777786,0)" xlink:href="#aC"/><use transform="matrix(0.015190972222222224,0,0,0.015190972222222224,60.03472222222223,0)" xlink:href="#aK"/></g><use transform="matrix(0.015190972222222224,0,0,0.015190972222222224,0,0)" xlink:href="#aB" id="y"/><path d="M135 0v-1490h591c327 0 492 160 492 383 0 177-115 286-268 320v15c168 8 326 140 326 361 0 236-176 411-512 411H135zm305-251h264c179 0 258-76 258-189 0-125-97-215-250-215H440v404zm0-613h241c131 0 228-74 228-194 0-109-79-183-222-183H440v377" id="aL"/><g id="z"><use transform="matrix(0.01953125,0,0,0.01953125,0,0)" xlink:href="#ai"/><use transform="matrix(0.01953125,0,0,0.01953125,25.8203125,0)" xlink:href="#aL"/></g><path d="M653-1490V0H466v-1314h-10L96-1047v-204l324-239h233" id="aM"/><path d="M154 0v-137l495-537c165-179 249-281 249-418 0-156-121-253-280-253-170 0-278 110-278 278H158c0-264 200-443 465-443 266 0 455 183 455 416 0 161-73 288-336 568L416-179v12h687V0H154" id="aN"/><g id="A"><use transform="matrix(0.013020833333333334,0,0,0.013020833333333334,0,0)" xlink:href="#aM"/><use transform="matrix(0.013020833333333334,0,0,0.013020833333333334,10.846354166666668,0)" xlink:href="#aN"/><use transform="matrix(0.013020833333333334,0,0,0.013020833333333334,27.109375,0)" xlink:href="#at"/></g><path d="M664 20c-306 0-529-183-535-438h297c6 117 110 196 238 196 149 0 255-108 255-266 0-159-108-270-261-270-89 0-178 39-224 98l-274-48 72-782h901v252H485l-39 377h8c53-72 165-124 294-124 269 0 467 204 467 490 0 300-224 515-551 515" id="aO"/><g id="B"><use transform="matrix(0.01953125,0,0,0.01953125,0,0)" xlink:href="#ai"/><use transform="matrix(0.01953125,0,0,0.01953125,25.8203125,0)" xlink:href="#ax"/><use transform="matrix(0.01953125,0,0,0.01953125,52.79296875,0)" xlink:href="#aO"/></g><g id="C"><use transform="matrix(0.013020833333333334,0,0,0.013020833333333334,0,0)" xlink:href="#aI"/><use transform="matrix(0.013020833333333334,0,0,0.013020833333333334,17.2265625,0)" xlink:href="#at"/></g><path d="M177 0l620-1228v-10H75v-252h1041v256L494 0H177" id="aP"/><g id="D"><use transform="matrix(0.01953125,0,0,0.01953125,0,0)" xlink:href="#ai"/><use transform="matrix(0.01953125,0,0,0.01953125,25.8203125,0)" xlink:href="#ax"/><use transform="matrix(0.01953125,0,0,0.01953125,52.01171875,0)" xlink:href="#aP"/></g><g id="E"><use transform="matrix(0.015190972222222224,0,0,0.015190972222222224,0,0)" xlink:href="#aF"/><use transform="matrix(0.015190972222222224,0,0,0.015190972222222224,20.371093750000004,0)" xlink:href="#aJ"/><use transform="matrix(0.015190972222222224,0,0,0.015190972222222224,41.137152777777786,0)" xlink:href="#aC"/><use transform="matrix(0.015190972222222224,0,0,0.015190972222222224,60.03472222222223,0)" xlink:href="#aK"/></g><path d="M684 20C381 20 94-164 94-710c0-501 235-800 601-800 293 0 496 188 526 433H921c-25-105-108-170-226-170-197 0-301 182-301 476h10c67-130 211-208 374-208 263 0 459 201 459 481 0 301-224 518-553 518zm-2-242c147 0 258-116 258-268 0-150-108-266-256-266-146 0-259 121-259 267 0 147 109 267 257 267" id="aQ"/><g id="F"><use transform="matrix(0.01953125,0,0,0.01953125,0,0)" xlink:href="#ai"/><use transform="matrix(0.01953125,0,0,0.01953125,25.8203125,0)" xlink:href="#ax"/><use transform="matrix(0.01953125,0,0,0.01953125,52.79296875,0)" xlink:href="#aQ"/></g><g id="G"><use transform="matrix(0.01953125,0,0,0.01953125,0,0)" xlink:href="#ai"/><use transform="matrix(0.01953125,0,0,0.01953125,25.8203125,0)" xlink:href="#ax"/><use transform="matrix(0.01953125,0,0,0.01953125,52.79296875,0)" xlink:href="#aG"/></g><path d="M635 20c-292 0-500-160-510-396h192c11 142 145 229 315 229 187 0 323-105 323-260 0-161-125-274-346-274H488v-165h121c174 0 294-100 294-254 0-148-104-245-266-245-152 0-291 85-297 230H157c8-234 222-395 484-395 278 0 448 188 448 400 0 168-95 291-247 336v12c190 31 301 169 301 357 0 244-216 425-508 425" id="aR"/><g id="H"><use transform="matrix(0.013020833333333334,0,0,0.013020833333333334,0,0)" xlink:href="#aR"/><use transform="matrix(0.013020833333333334,0,0,0.013020833333333334,16.471354166666668,0)" xlink:href="#as"/></g><g id="I"><use transform="matrix(0.01953125,0,0,0.01953125,0,0)" xlink:href="#ai"/><use transform="matrix(0.01953125,0,0,0.01953125,25.8203125,0)" xlink:href="#ax"/><use transform="matrix(0.01953125,0,0,0.01953125,52.79296875,0)" xlink:href="#aD"/></g><g id="J"><use transform="matrix(0.01953125,0,0,0.01953125,0,0)" xlink:href="#ai"/><use transform="matrix(0.01953125,0,0,0.01953125,25.8203125,0)" xlink:href="#aB"/></g><g id="K"><use transform="matrix(0.01953125,0,0,0.01953125,0,0)" xlink:href="#ai"/><use transform="matrix(0.01953125,0,0,0.01953125,25.8203125,0)" xlink:href="#ax"/><use transform="matrix(0.01953125,0,0,0.01953125,52.79296875,0)" xlink:href="#ai"/></g><use transform="matrix(0.015190972222222224,0,0,0.015190972222222224,0,0)" xlink:href="#aL" id="L"/><path d="M763 24c-353 0-583-224-583-531v-983h190v968c0 214 149 370 393 370 243 0 391-156 391-370v-968h190v983c0 307-230 531-581 531" id="aS"/><g id="M"><use transform="matrix(0.008173828125000001,0,0,0.008173828125000001,0,0)" xlink:href="#aS"/><use transform="matrix(0.008173828125000001,0,0,0.008173828125000001,12.456914062500001,0)" xlink:href="#am"/></g><g id="N"><use transform="matrix(0.013020833333333334,0,0,0.013020833333333334,0,0)" xlink:href="#au"/><use transform="matrix(0.013020833333333334,0,0,0.013020833333333334,19.7265625,0)" xlink:href="#af"/></g><path d="M180 0v-1490h190v644h782v-644h190V0h-190v-678H370V0H180" id="aT"/><path d="M180 0v-1490h908v168H370v486h669v168H370v500h727V0H180" id="aU"/><path d="M645 0H180v-1490h484c435 0 692 280 692 742 0 466-257 748-711 748zM370-168h263c363 0 539-218 539-580 0-358-176-574-521-574H370v1154" id="aV"/><g id="O"><use transform="matrix(0.026041666666666668,0,0,0.026041666666666668,0,0)" xlink:href="#aT"/><use transform="matrix(0.026041666666666668,0,0,0.026041666666666668,39.63541666666667,0)" xlink:href="#aU"/><use transform="matrix(0.026041666666666668,0,0,0.026041666666666668,71.69270833333334,0)" xlink:href="#aV"/></g><path d="M338-1490V0H158v-1490h180" id="aW"/><path d="M538 24C308 24 148-78 108-271l171-41c32 123 123 178 257 178 156 0 256-77 256-169 0-77-54-128-164-154l-186-44c-203-48-300-148-300-305 0-192 176-326 414-326 230 0 351 112 402 269l-163 42c-31-80-94-158-238-158-133 0-233 69-233 162 0 83 57 129 188 160l169 40c203 48 298 149 298 302 0 196-179 339-441 339" id="aX"/><path d="M158 0v-1118h174v172h12c41-113 157-188 290-188 26 0 70 2 91 3v181c-11-2-60-10-108-10-161 0-279 109-279 260V0H158" id="aY"/><path d="M613 24c-304 0-509-231-509-576 0-350 205-580 509-580 305 0 511 230 511 580 0 345-206 576-511 576zm0-161c226 0 329-195 329-415 0-222-103-419-329-419-223 0-326 196-326 419 0 220 103 415 326 415" id="aZ"/><path d="M158 0v-1118h175l1 205c55-151 181-225 313-225 147 0 245 90 285 228 53-141 190-228 352-228 194 0 352 125 352 384V0h-181v-749c0-161-105-225-225-225-151 0-243 103-243 244V0H807v-767c0-124-93-207-219-207-131 0-250 92-250 270V0H158" id="ba"/><g id="P"><use transform="matrix(0.026041666666666668,0,0,0.026041666666666668,0,0)" xlink:href="#ak"/><use transform="matrix(0.026041666666666668,0,0,0.026041666666666668,38.958333333333336,0)" xlink:href="#aW"/><use transform="matrix(0.026041666666666668,0,0,0.026041666666666668,51.875,0)" xlink:href="#al"/><use transform="matrix(0.026041666666666668,0,0,0.026041666666666668,81.82291666666667,0)" xlink:href="#aX"/><use transform="matrix(0.026041666666666668,0,0,0.026041666666666668,109.97395833333334,0)" xlink:href="#aX"/><use transform="matrix(0.026041666666666668,0,0,0.026041666666666668,138.125,0)" xlink:href="#aY"/><use transform="matrix(0.026041666666666668,0,0,0.026041666666666668,157.31770833333334,0)" xlink:href="#aZ"/><use transform="matrix(0.026041666666666668,0,0,0.026041666666666668,189.296875,0)" xlink:href="#aZ"/><use transform="matrix(0.026041666666666668,0,0,0.026041666666666668,221.27604166666669,0)" xlink:href="#ba"/><use transform="matrix(0.026041666666666668,0,0,0.026041666666666668,267.99479166666663,0)" xlink:href="#aX"/></g><path d="M342-723c-98 0-173-75-173-172s75-172 173-172 173 75 173 172-75 172-173 172zm0 742c-98 0-173-75-173-172s75-172 173-172 173 75 173 172S440 19 342 19" id="bb"/><g id="Q"><use transform="matrix(0.026041666666666668,0,0,0.026041666666666668,0,0)" xlink:href="#ah"/><use transform="matrix(0.026041666666666668,0,0,0.026041666666666668,30.15625,0)" xlink:href="#aC"/><use transform="matrix(0.026041666666666668,0,0,0.026041666666666668,62.552083333333336,0)" xlink:href="#aA"/><use transform="matrix(0.026041666666666668,0,0,0.026041666666666668,102.578125,0)" xlink:href="#aC"/><use transform="matrix(0.026041666666666668,0,0,0.026041666666666668,134.97395833333334,0)" xlink:href="#aw"/><use transform="matrix(0.026041666666666668,0,0,0.026041666666666668,175.625,0)" xlink:href="#aj"/><use transform="matrix(0.026041666666666668,0,0,0.026041666666666668,214.140625,0)" xlink:href="#bb"/></g><path d="M180 0v-1490h528c311 0 458 177 458 395 0 191-114 278-244 313v14c139 9 302 137 302 371 0 225-148 397-499 397H180zm190-168h350c232 0 321-102 321-231 0-149-120-277-311-277H370v508zm0-668h328c160 0 286-101 286-255 0-129-87-231-280-231H370v486" id="bc"/><g id="R"><use transform="matrix(0.026041666666666668,0,0,0.026041666666666668,0,0)" xlink:href="#bc"/><use transform="matrix(0.026041666666666668,0,0,0.026041666666666668,34.895833333333336,0)" xlink:href="#aU"/><use transform="matrix(0.026041666666666668,0,0,0.026041666666666668,66.953125,0)" xlink:href="#aV"/></g><path d="M789 20C394 20 94-260 94-744c0-487 300-766 695-766s695 279 695 766c0 485-300 764-695 764zm0-271c231 0 385-174 385-493 0-321-154-495-385-495s-385 175-385 495c0 319 154 493 385 493" id="bd"/><g id="S"><use transform="matrix(0.01953125,0,0,0.01953125,0,0)" xlink:href="#af"/><use transform="matrix(0.01953125,0,0,0.01953125,26.26953125,0)" xlink:href="#ah"/><use transform="matrix(0.01953125,0,0,0.01953125,47.75390625,0)" xlink:href="#bd"/></g><path d="M52 0l541-1490h220L1361 0h-200l-149-416H398L254 0H52zm404-582h497c-103-290-145-390-251-756-108 377-145 460-246 756" id="be"/><path d="M600 0L52-1490h200c166 485 304 806 458 1336 156-533 285-846 449-1336h202L819 0H600" id="bf"/><path d="M180 0v-1490h510c348 0 508 194 508 460 0 198-88 351-276 417L1256 0h-220L726-579c-117 2-238 0-356 1V0H180zm190-747h312c235 0 327-108 327-283 0-177-92-293-329-293H370v576" id="bg"/><g id="T"><use transform="matrix(0.026041666666666668,0,0,0.026041666666666668,0,0)" xlink:href="#be"/><use transform="matrix(0.026041666666666668,0,0,0.026041666666666668,33.151041666666664,0)" xlink:href="#bf"/><use transform="matrix(0.026041666666666668,0,0,0.026041666666666668,69.94791666666666,0)" xlink:href="#bg"/></g><path d="M135 0v-1490h305v602h649v-602h306V0h-306v-635H440V0H135" id="bh"/><path d="M440-1490V0H135v-1490h305" id="bi"/><g id="U"><use transform="matrix(0.06510416666666667,0,0,0.06510416666666667,0,0)" xlink:href="#aJ"/><use transform="matrix(0.06510416666666667,0,0,0.06510416666666667,88.99739583333334,0)" xlink:href="#bh"/><use transform="matrix(0.06510416666666667,0,0,0.06510416666666667,188.60677083333334,0)" xlink:href="#bi"/><use transform="matrix(0.06510416666666667,0,0,0.06510416666666667,226.04166666666669,0)" xlink:href="#af"/><use transform="matrix(0.06510416666666667,0,0,0.06510416666666667,313.60677083333337,0)" xlink:href="#aj"/></g><g id="V"><use transform="matrix(0.06510416666666667,0,0,0.06510416666666667,0,0)" xlink:href="#ag"/><use transform="matrix(0.06510416666666667,0,0,0.06510416666666667,78.25520833333334,0)" xlink:href="#ah"/><use transform="matrix(0.06510416666666667,0,0,0.06510416666666667,149.86979166666669,0)" xlink:href="#bd"/><use transform="matrix(0.06510416666666667,0,0,0.06510416666666667,252.60416666666669,0)" xlink:href="#bd"/><use transform="matrix(0.06510416666666667,0,0,0.06510416666666667,355.3385416666667,0)" xlink:href="#af"/></g><g id="W"><use transform="matrix(0.0390625,0,0,0.0390625,0,0)" xlink:href="#ag"/><use transform="matrix(0.0390625,0,0,0.0390625,41.5234375,0)" xlink:href="#av"/><use transform="matrix(0.0390625,0,0,0.0390625,88.28125,0)" xlink:href="#aw"/></g><path d="M750 21c-371 0-615-218-615-544v-967h305v942c0 174 123 299 310 299s309-125 309-299v-942h306v967c0 326-247 544-615 544" id="bj"/><g id="X"><use transform="matrix(0.0390625,0,0,0.0390625,0,0)" xlink:href="#aL"/><use transform="matrix(0.0390625,0,0,0.0390625,52.9296875,0)" xlink:href="#bj"/><use transform="matrix(0.0390625,0,0,0.0390625,111.484375,0)" xlink:href="#bi"/><use transform="matrix(0.0390625,0,0,0.0390625,133.9453125,0)" xlink:href="#ah"/><use transform="matrix(0.0390625,0,0,0.0390625,179.1796875,0)" xlink:href="#aj"/><use transform="matrix(0.0390625,0,0,0.0390625,236.953125,0)" xlink:href="#bi"/><use transform="matrix(0.0390625,0,0,0.0390625,259.4140625,0)" xlink:href="#aw"/><use transform="matrix(0.0390625,0,0,0.0390625,320.390625,0)" xlink:href="#aA"/></g><g id="Y"><use transform="matrix(0.0390625,0,0,0.0390625,0,0)" xlink:href="#af"/><use transform="matrix(0.0390625,0,0,0.0390625,52.5390625,0)" xlink:href="#ah"/><use transform="matrix(0.0390625,0,0,0.0390625,95.5078125,0)" xlink:href="#bd"/></g><g id="Z"><use transform="matrix(0.0390625,0,0,0.0390625,0,0)" xlink:href="#af"/><use transform="matrix(0.0390625,0,0,0.0390625,52.5390625,0)" xlink:href="#ag"/><use transform="matrix(0.0390625,0,0,0.0390625,99.4921875,0)" xlink:href="#ah"/></g><g id="aa"><use transform="matrix(0.01953125,0,0,0.01953125,0,0)" xlink:href="#aK"/><use transform="matrix(0.01953125,0,0,0.01953125,37.265625,0)" xlink:href="#bi"/><use transform="matrix(0.01953125,0,0,0.01953125,48.49609375,0)" xlink:href="#aF"/></g><path d="M750-1118v229H516V0H217v-889H20v-229h197v-86c0-238 156-356 363-356 94 0 178 20 215 31l-54 226c-25-7-61-15-100-15-123-3-131 84-125 200h234" id="bk"/><path d="M128 0v-1118h300V0H128zm150-1264c-91 0-165-68-165-154 0-85 74-154 165-154 90 0 165 69 165 154 0 86-75 154-165 154" id="bl"/><path d="M628 22C291 22 81-210 81-554c0-346 210-578 547-578 265 0 455 142 497 372l-279 52c-25-116-99-188-215-188-160 0-244 139-244 341 0 200 84 341 244 341 116 0 193-74 217-195l279 51C1085-123 896 22 628 22" id="bm"/><path d="M633 22C291 22 81-200 81-553c0-345 210-579 537-579 292 0 525 185 525 567v84H378c7 183 109 277 260 277 105 0 184-46 216-132l272 51C1071-99 893 22 633 22zM380-669h474c-15-146-94-237-233-237-143 0-229 99-241 237" id="bn"/><g id="ab"><use transform="matrix(0.01953125,0,0,0.01953125,0,0)" xlink:href="#bd"/><use transform="matrix(0.01953125,0,0,0.01953125,30.8203125,0)" xlink:href="#bk"/><use transform="matrix(0.01953125,0,0,0.01953125,45.078125,0)" xlink:href="#bk"/><use transform="matrix(0.01953125,0,0,0.01953125,61.328125,0)" xlink:href="#bl"/><use transform="matrix(0.01953125,0,0,0.01953125,72.16796875,0)" xlink:href="#bm"/><use transform="matrix(0.01953125,0,0,0.01953125,95.703125,0)" xlink:href="#bn"/></g><path d="M657 26c-323 0-524-166-541-416h195c15 169 171 246 346 246 202 0 356-106 356-265 5-203-294-238-475-293-239-73-380-191-380-389 0-252 224-419 512-419 294 0 499 171 508 396H992c-17-145-151-228-328-228-193 0-321 102-321 242 0 156 175 211 284 241l149 41c160 44 422 134 422 412 0 244-197 432-541 432" id="bo"/><path d="M180 0v-1490h190c0 262 1 526-3 784 217-279 467-523 702-784h249L716-845 1319 0h-225L585-716 370-489V0H180" id="bp"/><path d="M98-1322v-168h1126v168H757V0H567v-1322H98" id="bq"/><path d="M180 0v-1490h190v1322h690V0H180" id="br"/><g id="ac"><use transform="matrix(0.01953125,0,0,0.01953125,0,0)" xlink:href="#bc"/><use transform="matrix(0.01953125,0,0,0.01953125,26.171875,0)" xlink:href="#be"/><use transform="matrix(0.01953125,0,0,0.01953125,53.76953125,0)" xlink:href="#bo"/><use transform="matrix(0.01953125,0,0,0.01953125,79.43359375,0)" xlink:href="#bp"/><use transform="matrix(0.01953125,0,0,0.01953125,106.30859375,0)" xlink:href="#aU"/><use transform="matrix(0.01953125,0,0,0.01953125,130.3515625,0)" xlink:href="#bq"/><use transform="matrix(0.01953125,0,0,0.01953125,156.171875,0)" xlink:href="#bc"/><use transform="matrix(0.01953125,0,0,0.01953125,182.34375,0)" xlink:href="#be"/><use transform="matrix(0.01953125,0,0,0.01953125,209.94140625,0)" xlink:href="#br"/><use transform="matrix(0.01953125,0,0,0.01953125,232.55859375,0)" xlink:href="#br"/></g><path d="M784 20c-382 0-662-292-662-764 0-473 280-766 662-766s660 293 660 766c0 472-278 764-660 764zm0-176c266 0 475-207 475-588 0-383-209-590-475-590-268 0-477 208-477 590 0 380 209 588 477 588" id="bs"/><g id="ad"><use transform="matrix(0.01953125,0,0,0.01953125,0,0)" xlink:href="#ak"/><use transform="matrix(0.01953125,0,0,0.01953125,29.21875,0)" xlink:href="#bs"/><use transform="matrix(0.01953125,0,0,0.01953125,59.8046875,0)" xlink:href="#aS"/><use transform="matrix(0.01953125,0,0,0.01953125,89.5703125,0)" xlink:href="#bg"/><use transform="matrix(0.01953125,0,0,0.01953125,115.3125,0)" xlink:href="#bq"/></g><path d="M600 0v-610L52-1490h220l295 481c50 82 90 150 130 243 40-96 80-164 128-243l294-481h219L790-610V0H600" id="bt"/><g id="ae"><use transform="matrix(0.01953125,0,0,0.01953125,0,0)" xlink:href="#bf"/><use transform="matrix(0.01953125,0,0,0.01953125,26.25,0)" xlink:href="#bs"/><use transform="matrix(0.01953125,0,0,0.01953125,56.8359375,0)" xlink:href="#br"/><use transform="matrix(0.01953125,0,0,0.01953125,79.453125,0)" xlink:href="#br"/><use transform="matrix(0.01953125,0,0,0.01953125,102.0703125,0)" xlink:href="#aU"/><use transform="matrix(0.01953125,0,0,0.01953125,126.11328125,0)" xlink:href="#bt"/><use transform="matrix(0.01953125,0,0,0.01953125,153.26171875,0)" xlink:href="#bc"/><use transform="matrix(0.01953125,0,0,0.01953125,179.43359375,0)" xlink:href="#be"/><use transform="matrix(0.01953125,0,0,0.01953125,207.03125,0)" xlink:href="#br"/><use transform="matrix(0.01953125,0,0,0.01953125,229.6484375,0)" xlink:href="#br"/></g></defs></g></svg>